{"glyphs":{"0":{"ha":757,"x_min":60,"x_max":701,"o":"m 701 414 q 621 99 701 211 q 381 -14 540 -14 q 140 99 221 -14 q 60 414 60 213 q 80 589 60 510 q 140 724 100 668 q 241 811 181 781 q 381 842 301 842 q 520 811 460 842 q 621 724 581 781 q 681 589 661 668 q 701 414 701 510 m 199 411 q 208 284 199 344 q 238 179 217 224 q 293 108 258 135 q 379 82 328 82 l 381 82 q 468 108 433 82 q 524 179 503 135 q 553 284 544 224 q 563 411 563 344 q 553 543 563 482 q 524 649 544 604 q 467 720 503 694 q 379 746 432 746 q 293 720 328 746 q 238 649 258 694 q 208 543 217 604 q 199 411 199 482 z "},"1":{"ha":757,"x_min":125,"x_max":611,"o":"m 306 97 l 306 696 q 222 647 271 668 q 125 611 174 626 l 125 708 q 333 819 242 743 l 444 819 l 444 97 l 611 97 l 611 0 l 125 0 l 125 97 l 306 97 z "},"2":{"ha":757,"x_min":79,"x_max":663,"o":"m 653 624 q 622 493 653 550 q 546 390 592 436 q 446 306 500 343 q 346 234 392 268 q 269 167 300 200 q 239 97 239 133 l 663 97 l 663 0 l 79 0 l 79 11 q 111 156 79 94 q 191 265 143 217 q 296 352 239 313 q 401 431 353 392 q 481 517 449 471 q 514 624 514 563 q 474 714 514 682 q 367 746 433 746 q 292 733 322 746 q 240 703 261 721 q 208 663 219 685 q 190 622 197 642 l 85 661 q 116 722 94 690 q 172 780 138 753 q 253 824 206 807 q 364 842 301 842 q 578 781 504 842 q 653 624 653 719 z "},"3":{"ha":757,"x_min":67,"x_max":681,"o":"m 268 376 l 268 468 l 365 468 q 472 509 431 468 q 514 624 514 550 q 474 714 514 682 q 367 746 433 746 q 292 733 322 746 q 240 703 261 721 q 208 663 219 685 q 190 622 197 642 l 85 661 q 116 722 94 690 q 172 780 138 753 q 253 824 206 807 q 364 842 301 842 q 481 826 428 842 q 573 783 535 811 q 632 715 611 756 q 653 624 653 674 q 617 501 653 549 q 538 425 582 453 q 591 392 565 411 q 637 349 617 374 q 669 292 657 324 q 681 221 681 260 q 660 128 681 171 q 599 54 639 85 q 499 6 558 24 q 364 -11 440 -11 q 255 0 301 -11 q 174 28 208 11 q 113 67 139 46 q 67 110 88 89 l 144 190 q 178 158 158 176 q 226 123 199 139 q 288 96 253 107 q 367 85 322 85 q 498 124 454 85 q 542 221 542 163 q 494 335 542 294 q 365 376 447 376 l 268 376 z "},"4":{"ha":757,"x_min":72,"x_max":692,"o":"m 74 218 l 72 322 q 138 398 100 353 q 217 494 175 443 q 302 599 260 546 q 380 697 344 651 q 440 775 415 742 q 472 819 465 808 l 583 819 l 583 315 l 692 315 l 692 218 l 583 218 l 583 0 l 444 0 l 444 218 l 74 218 m 444 654 q 423 625 442 653 q 371 551 404 597 q 290 444 338 506 q 183 315 243 383 l 444 315 l 444 654 z "},"5":{"ha":757,"x_min":67,"x_max":681,"o":"m 97 401 l 153 819 l 631 819 l 631 722 l 264 722 l 224 465 q 308 498 264 486 q 399 510 353 510 q 433 508 408 510 q 488 497 457 506 q 553 473 519 489 q 616 427 588 457 q 663 353 644 397 q 681 244 681 308 q 660 148 681 194 q 599 66 639 101 q 499 10 558 31 q 364 -11 440 -11 q 255 0 301 -11 q 174 28 208 11 q 113 67 139 46 q 67 110 88 89 l 144 190 q 178 158 158 176 q 226 123 199 139 q 288 96 253 107 q 367 85 322 85 q 442 97 410 85 q 497 131 475 110 q 531 178 519 151 q 542 235 542 206 q 532 304 542 271 q 501 363 522 338 q 446 403 479 388 q 365 418 413 418 q 250 399 303 418 q 157 356 197 381 l 97 401 z "},"6":{"ha":757,"x_min":64,"x_max":701,"o":"m 701 256 q 681 153 701 201 q 620 67 660 104 q 522 8 581 31 q 389 -14 464 -14 q 147 90 231 -14 q 64 403 64 193 q 85 558 64 481 q 149 699 106 636 q 258 802 192 763 q 415 842 324 842 q 526 824 478 842 q 608 780 574 807 q 663 722 642 753 q 694 661 685 690 l 589 622 q 572 663 583 642 q 539 703 560 685 q 488 733 518 721 q 413 746 457 746 q 316 718 356 746 q 251 646 276 690 q 215 546 226 601 q 204 435 204 490 q 245 474 221 457 q 297 501 269 490 q 353 517 325 511 q 408 522 382 522 q 535 499 481 522 q 627 438 590 475 q 683 352 664 400 q 701 256 701 304 m 213 244 q 223 186 213 215 q 254 134 233 157 q 306 97 275 111 q 379 82 338 82 l 381 82 q 468 97 433 82 q 524 134 503 111 q 553 186 544 157 q 563 244 563 215 q 553 309 563 276 q 524 368 544 342 q 467 410 503 394 q 379 426 432 426 q 303 410 335 426 q 252 367 272 393 q 222 309 232 342 q 213 244 213 276 z "},"7":{"ha":757,"x_min":97,"x_max":667,"o":"m 667 819 l 667 736 q 541 560 599 654 q 440 369 483 465 q 370 178 397 272 q 333 0 343 83 l 194 0 q 227 168 200 78 q 298 352 254 258 q 401 540 342 446 q 528 722 460 635 l 97 722 l 97 819 l 667 819 z "},"8":{"ha":757,"x_min":61,"x_max":701,"o":"m 385 -11 l 378 -11 q 242 7 301 -11 q 143 56 183 25 q 82 131 103 88 q 61 224 61 174 q 73 294 61 263 q 105 350 85 325 q 151 393 125 375 q 204 425 176 411 q 124 495 160 453 q 89 611 89 538 q 110 703 89 661 q 169 776 131 746 q 260 824 207 807 q 378 842 314 842 l 385 842 q 502 824 449 842 q 594 776 556 807 q 653 703 632 746 q 674 611 674 661 q 638 495 674 538 q 558 425 603 453 q 612 393 586 411 q 658 350 638 375 q 690 294 678 325 q 701 224 701 263 q 681 131 701 174 q 619 56 660 88 q 520 7 579 25 q 385 -11 461 -11 m 386 376 l 376 376 q 247 337 294 376 q 200 224 200 297 q 244 125 200 165 q 375 85 288 85 l 388 85 q 519 125 475 85 q 563 224 563 165 q 515 337 563 297 q 386 376 468 376 m 388 746 l 375 746 q 268 708 308 746 q 228 611 228 669 q 269 503 228 538 q 376 468 311 468 l 386 468 q 493 503 451 468 q 535 611 535 538 q 494 708 535 669 q 388 746 454 746 z "},"9":{"ha":757,"x_min":64,"x_max":701,"o":"m 64 550 q 85 656 64 604 q 145 749 106 708 q 243 816 185 790 q 376 842 301 842 q 618 738 535 842 q 701 425 701 635 q 681 270 701 349 q 617 128 660 192 q 508 26 574 65 q 350 -14 442 -14 q 263 -8 300 -14 q 196 9 225 -1 q 143 34 167 19 q 96 64 119 49 l 151 136 q 229 99 186 117 q 339 82 272 82 q 426 103 386 82 q 497 163 467 125 q 544 252 526 200 q 561 365 561 304 q 520 326 544 343 q 468 299 496 310 q 412 283 440 289 q 357 278 383 278 q 230 302 285 278 q 138 365 175 326 q 83 453 101 404 q 64 550 64 501 m 553 561 q 542 623 553 590 q 511 683 532 656 q 459 728 490 710 q 386 746 428 746 l 385 746 q 298 728 333 746 q 242 683 263 710 q 212 623 221 656 q 203 561 203 590 q 212 496 203 529 q 242 435 221 463 q 298 391 263 408 q 386 374 333 374 q 462 391 431 374 q 513 435 493 408 q 543 496 533 463 q 553 561 553 529 z "},"\u0000":{"ha":0,"x_min":0,"x_max":0,"o":""},"\r":{"ha":196,"x_min":0,"x_max":0,"o":""}," ":{"ha":196,"x_min":0,"x_max":0,"o":""},"m":{"ha":901,"x_min":56,"x_max":846,"o":"m 707 0 l 707 388 q 692 445 707 422 q 638 468 678 468 q 587 461 618 468 q 524 438 556 454 q 526 415 525 426 q 526 393 526 404 l 526 0 l 388 0 l 388 388 q 373 445 388 422 q 318 468 358 468 q 263 460 297 468 q 194 432 229 451 l 194 0 l 56 0 l 56 556 l 194 556 l 194 513 q 276 549 232 533 q 363 564 319 564 q 445 551 410 564 q 501 506 481 538 q 589 547 542 529 q 682 564 636 564 q 801 528 757 564 q 846 393 846 492 l 846 0 l 707 0 z "},"i":{"ha":250,"x_min":56,"x_max":194,"o":"m 56 0 l 56 556 l 194 556 l 194 0 l 56 0 m 56 639 l 56 778 l 194 778 l 194 639 l 56 639 z "},"o":{"ha":631,"x_min":32,"x_max":592,"o":"m 590 268 q 578 170 592 221 q 531 79 564 119 q 444 13 499 39 q 311 -14 390 -14 q 178 13 232 -14 q 92 79 124 39 q 46 170 60 119 q 32 268 32 221 l 32 282 q 46 381 32 331 q 92 471 60 431 q 178 538 124 511 q 311 564 232 564 q 444 538 390 564 q 531 471 499 511 q 576 381 563 431 q 590 282 590 331 l 590 268 m 171 276 l 171 274 q 173 224 171 257 q 188 160 175 192 q 230 106 201 129 q 310 82 258 82 l 311 82 q 392 106 364 82 q 433 160 419 129 q 449 224 447 192 q 451 274 451 257 l 451 276 q 449 326 451 293 q 433 390 447 358 q 391 444 419 421 q 310 468 363 468 q 230 444 258 468 q 188 390 201 421 q 173 326 175 358 q 171 276 171 293 z "},"e":{"ha":621,"x_min":32,"x_max":590,"o":"m 174 324 l 449 324 q 440 372 447 346 q 417 419 432 397 q 376 454 401 440 q 310 468 350 468 q 245 454 271 468 q 204 419 219 440 q 183 372 189 397 q 174 324 176 347 m 175 229 q 189 181 179 207 q 217 133 199 154 q 263 97 235 111 q 329 82 290 82 l 331 82 q 422 103 379 82 q 492 156 464 124 l 563 94 q 452 10 517 35 q 311 -14 388 -14 q 187 11 239 -14 q 100 76 135 36 q 49 167 65 117 q 32 268 32 217 l 32 282 q 49 385 32 335 q 100 476 65 436 q 187 540 135 515 q 311 564 239 564 q 444 538 390 564 q 531 471 499 511 q 576 381 563 431 q 590 282 590 331 l 590 268 q 590 249 590 258 q 589 229 590 239 l 175 229 z "},"c":{"ha":518,"x_min":32,"x_max":497,"o":"m 171 276 l 171 274 q 176 224 171 257 q 196 160 181 192 q 242 106 211 129 q 324 82 272 82 l 325 82 q 402 92 365 82 q 472 118 439 101 l 497 25 q 424 0 469 14 q 311 -14 378 -14 q 178 13 232 -14 q 92 79 124 39 q 46 170 60 119 q 32 268 32 221 l 32 282 q 46 381 32 331 q 92 471 60 431 q 178 538 124 511 q 311 564 232 564 q 425 550 381 564 q 497 525 469 536 l 474 433 q 438 450 458 443 q 397 461 418 457 q 356 467 375 465 q 324 468 336 468 q 242 444 272 468 q 196 390 211 421 q 176 326 181 358 q 171 276 171 293 z "},"t":{"ha":394,"x_min":14,"x_max":361,"o":"m 14 472 l 14 556 l 97 556 l 97 681 l 236 708 l 236 556 l 361 556 l 361 472 l 236 472 l 236 163 q 251 105 236 128 q 306 82 265 82 q 331 83 317 82 q 361 90 344 85 l 361 6 q 313 -8 338 -3 q 261 -14 288 -14 q 142 22 186 -14 q 97 157 97 58 l 97 472 l 14 472 z "},"l":{"ha":250,"x_min":56,"x_max":194,"o":"m 56 0 l 56 833 l 194 833 l 194 0 l 56 0 z "},"b":{"ha":636,"x_min":56,"x_max":601,"o":"m 600 268 q 588 170 601 221 q 545 79 575 119 q 467 13 515 39 q 349 -14 418 -14 q 194 53 249 -14 l 194 0 l 56 0 l 56 833 l 194 833 l 194 493 q 259 545 221 526 q 349 564 297 564 q 466 538 418 564 q 544 471 514 511 q 587 381 574 431 q 600 282 600 331 l 600 268 m 194 385 l 194 161 q 235 106 207 129 q 319 82 263 82 l 321 82 q 396 106 368 82 q 438 160 424 129 q 457 224 453 192 q 461 274 461 257 l 461 276 q 457 326 461 293 q 438 390 453 358 q 396 444 424 421 q 319 468 368 468 q 235 442 263 468 q 194 385 207 417 z "},"d":{"ha":636,"x_min":43,"x_max":589,"o":"m 44 268 l 44 282 q 56 381 43 331 q 99 471 69 431 q 178 538 129 511 q 296 564 226 564 q 450 497 396 564 l 450 833 l 589 833 l 589 0 l 450 0 l 450 57 q 385 5 424 24 q 296 -14 347 -14 q 178 13 226 -14 q 101 79 131 39 q 58 170 71 119 q 44 268 44 221 m 450 165 l 450 389 q 410 444 438 421 q 325 468 382 468 l 324 468 q 249 444 276 468 q 206 390 221 421 q 188 326 192 358 q 183 276 183 293 l 183 274 q 188 224 183 257 q 206 160 192 192 q 249 106 221 129 q 325 82 278 82 q 410 108 382 82 q 450 165 438 133 z "},"p":{"ha":643,"x_min":56,"x_max":601,"o":"m 600 268 q 588 170 601 221 q 545 79 575 119 q 467 13 515 39 q 349 -14 418 -14 q 194 53 249 -14 l 194 -250 l 56 -250 l 56 556 l 194 556 l 194 493 q 259 545 221 526 q 349 564 297 564 q 466 538 418 564 q 544 471 514 511 q 587 381 574 431 q 600 282 600 331 l 600 268 m 194 385 l 194 161 q 235 106 207 129 q 319 82 263 82 l 321 82 q 396 106 368 82 q 438 160 424 129 q 457 224 453 192 q 461 274 461 257 l 461 276 q 457 326 461 293 q 438 390 453 358 q 396 444 424 421 q 319 468 368 468 q 235 442 263 468 q 194 385 207 417 z "},"r":{"ha":414,"x_min":56,"x_max":389,"o":"m 389 564 l 389 465 l 367 465 q 281 453 322 464 q 194 407 239 443 l 194 0 l 56 0 l 56 556 l 194 556 l 194 492 q 238 522 214 508 q 285 545 261 536 q 332 559 310 554 q 371 564 354 564 l 389 564 z "},"h":{"ha":579,"x_min":56,"x_max":526,"o":"m 388 0 l 388 388 q 373 445 388 422 q 318 468 358 468 q 263 460 297 468 q 194 432 229 451 l 194 0 l 56 0 l 56 833 l 194 833 l 194 513 q 276 549 232 533 q 363 564 319 564 q 482 528 438 564 q 526 393 526 492 l 526 0 l 388 0 z "},"q":{"ha":646,"x_min":43,"x_max":589,"o":"m 44 268 l 44 282 q 56 381 43 331 q 99 471 69 431 q 178 538 129 511 q 296 564 226 564 q 450 497 396 564 l 450 556 l 589 556 l 589 -250 l 450 -250 l 450 57 q 385 5 424 24 q 296 -14 347 -14 q 178 13 226 -14 q 101 79 131 39 q 58 170 71 119 q 44 268 44 221 m 450 165 l 450 389 q 410 444 438 421 q 325 468 382 468 l 324 468 q 249 444 276 468 q 206 390 221 421 q 188 326 192 358 q 183 276 183 293 l 183 274 q 188 224 183 257 q 206 160 192 192 q 249 106 221 129 q 325 82 278 82 q 410 108 382 82 q 450 165 438 133 z "},"s":{"ha":503,"x_min":17,"x_max":469,"o":"m 331 147 q 309 183 331 167 q 251 210 288 199 q 88 285 143 244 q 32 393 32 325 q 49 467 32 435 q 96 520 65 499 q 167 553 126 542 q 257 564 208 564 q 378 539 326 564 q 449 490 429 514 l 386 419 q 331 458 367 447 q 268 468 294 468 q 171 401 171 468 q 194 365 171 381 q 250 338 218 349 q 344 305 303 321 q 413 269 385 289 q 455 222 440 249 q 469 156 469 194 q 451 82 469 114 q 401 28 433 50 q 326 -4 369 7 q 231 -15 282 -15 q 97 10 146 -15 q 17 63 49 36 l 68 142 q 105 113 83 125 q 149 94 126 101 q 192 84 171 88 q 225 81 213 81 q 306 97 282 81 q 331 147 331 113 z "},"a":{"ha":596,"x_min":56,"x_max":526,"o":"m 388 124 l 388 260 l 353 260 q 272 249 303 260 q 224 224 240 239 q 201 191 207 208 q 194 161 194 174 q 214 111 194 135 q 278 88 233 88 q 331 96 306 88 q 388 124 356 104 m 388 342 l 388 346 q 352 438 388 408 q 276 468 317 468 q 242 466 265 468 q 194 459 219 464 q 142 447 168 454 q 97 426 115 439 l 78 508 q 129 534 99 524 q 192 551 160 544 q 254 560 225 557 q 301 564 283 564 q 390 553 349 564 q 461 517 431 542 q 509 451 492 492 q 526 351 526 410 l 526 0 l 388 0 l 388 42 q 322 6 356 19 q 239 -8 288 -8 q 108 33 161 -8 q 56 149 56 74 q 137 294 56 247 q 349 342 218 342 l 388 342 z "},"I":{"ha":278,"x_min":69,"x_max":208,"o":"m 69 0 l 69 819 l 208 819 l 208 0 l 69 0 z "},"u":{"ha":579,"x_min":56,"x_max":526,"o":"m 194 556 l 194 168 q 209 110 194 133 q 264 88 224 88 q 319 96 285 88 q 388 124 353 104 l 388 556 l 526 556 l 526 0 l 388 0 l 388 43 q 306 7 350 22 q 219 -8 263 -8 q 100 28 144 -8 q 56 163 56 64 l 56 556 l 194 556 z "},"n":{"ha":579,"x_min":56,"x_max":526,"o":"m 388 0 l 388 388 q 373 445 388 422 q 318 468 358 468 q 263 460 297 468 q 194 432 229 451 l 194 0 l 56 0 l 56 556 l 194 556 l 194 513 q 276 549 232 533 q 363 564 319 564 q 482 528 438 564 q 526 393 526 492 l 526 0 l 388 0 z "},"v":{"ha":585,"x_min":28,"x_max":564,"o":"m 564 556 l 369 0 l 222 0 l 28 556 l 167 556 l 296 158 l 425 556 l 564 556 z "},"w":{"ha":872,"x_min":28,"x_max":851,"o":"m 851 556 l 685 0 l 538 0 l 439 382 l 342 0 l 194 0 l 28 556 l 167 556 l 268 158 l 369 556 l 510 556 l 611 158 l 713 556 l 851 556 z "},"g":{"ha":644,"x_min":43,"x_max":589,"o":"m 44 268 l 44 282 q 56 381 43 331 q 99 471 69 431 q 178 538 129 511 q 296 564 226 564 q 450 497 396 564 l 450 556 l 589 556 l 589 -28 q 567 -131 589 -86 q 509 -207 546 -176 q 424 -253 472 -237 q 319 -268 375 -268 q 261 -264 294 -268 q 192 -248 228 -260 q 124 -213 157 -236 q 64 -153 90 -190 l 140 -96 q 300 -161 206 -161 q 358 -155 331 -161 q 406 -131 385 -149 q 438 -83 426 -114 q 450 -3 450 -53 l 450 57 q 385 5 424 24 q 296 -14 347 -14 q 178 13 226 -14 q 101 79 131 39 q 58 170 71 119 q 44 268 44 221 m 450 165 l 450 389 q 410 444 438 421 q 325 468 382 468 l 324 468 q 249 444 276 468 q 206 390 221 421 q 188 326 192 358 q 183 276 183 293 l 183 274 q 188 224 183 257 q 206 160 192 192 q 249 106 221 129 q 325 82 278 82 q 410 108 382 82 q 450 165 438 133 z "},".":{"ha":276,"x_min":69,"x_max":208,"o":"m 69 0 l 69 139 l 208 139 l 208 0 l 69 0 z "},"f":{"ha":379,"x_min":14,"x_max":389,"o":"m 14 472 l 14 556 l 97 556 l 97 621 q 151 765 97 711 q 294 819 204 819 q 341 817 314 819 q 389 808 368 814 l 389 717 q 351 722 372 719 q 319 724 331 724 q 274 713 290 724 q 249 687 257 703 q 238 651 240 671 q 236 615 236 632 l 236 556 l 361 556 l 361 472 l 236 472 l 236 0 l 97 0 l 97 472 l 14 472 z "},"j":{"ha":250,"x_min":-51,"x_max":194,"o":"m 56 -56 l 56 556 l 194 556 l 194 -56 q 149 -190 194 -126 q 38 -290 104 -254 l -51 -225 q 23 -155 -8 -199 q 56 -56 54 -111 m 56 639 l 56 778 l 194 778 l 194 639 l 56 639 z "},"ﬁ":{"ha":629,"x_min":14,"x_max":574,"o":"m 435 0 l 435 472 l 236 472 l 236 0 l 97 0 l 97 472 l 14 472 l 14 556 l 97 556 l 97 621 q 151 765 97 711 q 294 819 204 819 q 341 817 314 819 q 389 808 368 814 l 389 717 q 351 722 372 719 q 319 724 331 724 q 274 713 290 724 q 249 687 257 703 q 238 651 240 671 q 236 615 236 632 l 236 556 l 574 556 l 574 0 l 435 0 m 435 639 l 435 778 l 574 778 l 574 639 l 435 639 z "},"ﬂ":{"ha":629,"x_min":14,"x_max":574,"o":"m 14 472 l 14 556 l 97 556 l 97 621 q 151 765 97 711 q 294 819 204 819 q 341 817 314 819 q 389 808 368 814 l 389 717 q 351 722 372 719 q 319 724 331 724 q 274 713 290 724 q 249 687 257 703 q 238 651 240 671 q 236 615 236 632 l 236 556 l 361 556 l 361 472 l 236 472 l 236 0 l 97 0 l 97 472 l 14 472 m 435 0 l 435 833 l 574 833 l 574 0 l 435 0 z "},"ﬀ":{"ha":758,"x_min":14,"x_max":768,"o":"m 14 472 l 14 556 l 97 556 l 97 621 q 151 765 97 711 q 294 819 204 819 q 341 817 314 819 q 389 808 368 814 l 389 717 q 351 722 372 719 q 319 724 331 724 q 274 713 290 724 q 249 687 257 703 q 238 651 240 671 q 236 615 236 632 l 236 556 l 476 556 l 476 621 q 530 765 476 711 q 674 819 583 819 q 720 817 693 819 q 768 808 747 814 l 768 717 q 731 722 751 719 q 699 724 710 724 q 653 713 669 724 q 628 687 636 703 q 617 651 619 671 q 615 615 615 632 l 615 556 l 740 556 l 740 472 l 615 472 l 615 0 l 476 0 l 476 472 l 236 472 l 236 0 l 97 0 l 97 472 l 14 472 z "},"T":{"ha":638,"x_min":14,"x_max":625,"o":"m 389 722 l 389 0 l 250 0 l 250 722 l 14 722 l 14 819 l 625 819 l 625 722 l 389 722 z "},"z":{"ha":464,"x_min":14,"x_max":444,"o":"m 14 472 l 14 556 l 444 556 l 444 472 l 167 83 l 444 83 l 444 0 l 14 0 l 14 83 l 292 472 l 14 472 z "},"y":{"ha":588,"x_min":28,"x_max":564,"o":"m 213 -54 l 225 -12 l 28 556 l 167 556 l 296 158 l 425 556 l 564 556 l 358 -33 q 331 -104 347 -68 q 290 -174 314 -140 q 233 -236 267 -207 q 151 -287 199 -265 l 69 -206 q 158 -147 121 -185 q 213 -54 194 -110 z "},"x":{"ha":601,"x_min":14,"x_max":585,"o":"m 571 556 l 376 288 l 585 0 l 431 0 l 299 181 l 168 0 l 14 0 l 222 288 l 28 556 l 182 556 l 299 393 l 417 556 l 571 556 z "},"k":{"ha":588,"x_min":56,"x_max":571,"o":"m 543 556 l 363 301 l 571 0 l 417 0 l 238 260 l 194 246 l 194 0 l 56 0 l 56 833 l 194 833 l 194 328 l 208 332 q 257 369 238 342 l 389 556 l 543 556 z "},"ﬃ":{"ha":1008,"x_min":14,"x_max":953,"o":"m 814 639 l 814 778 l 953 778 l 953 639 l 814 639 m 14 472 l 14 556 l 97 556 l 97 621 q 151 765 97 711 q 294 819 204 819 q 341 817 314 819 q 389 808 368 814 l 389 717 q 351 722 372 719 q 319 724 331 724 q 274 713 290 724 q 249 687 257 703 q 238 651 240 671 q 236 615 236 632 l 236 556 l 476 556 l 476 621 q 530 765 476 711 q 674 819 583 819 q 720 817 693 819 q 768 808 747 814 l 768 717 q 731 722 751 719 q 699 724 710 724 q 653 713 669 724 q 628 687 636 703 q 617 651 619 671 q 615 615 615 632 l 615 556 l 953 556 l 953 0 l 814 0 l 814 472 l 615 472 l 615 0 l 476 0 l 476 472 l 236 472 l 236 0 l 97 0 l 97 472 l 14 472 z "},"ﬄ":{"ha":1008,"x_min":14,"x_max":953,"o":"m 14 472 l 14 556 l 97 556 l 97 621 q 151 765 97 711 q 294 819 204 819 q 341 817 314 819 q 389 808 368 814 l 389 717 q 351 722 372 719 q 319 724 331 724 q 274 713 290 724 q 249 687 257 703 q 238 651 240 671 q 236 615 236 632 l 236 556 l 476 556 l 476 621 q 530 765 476 711 q 674 819 583 819 q 720 817 693 819 q 768 808 747 814 l 768 717 q 731 722 751 719 q 699 724 710 724 q 653 713 669 724 q 628 687 636 703 q 617 651 619 671 q 615 615 615 632 l 615 556 l 740 556 l 740 472 l 615 472 l 615 0 l 476 0 l 476 472 l 236 472 l 236 0 l 97 0 l 97 472 l 14 472 m 814 0 l 814 833 l 953 833 l 953 0 l 814 0 z "},"O":{"ha":828,"x_min":32,"x_max":785,"o":"m 785 414 q 756 233 785 313 q 676 99 726 154 q 556 15 625 44 q 408 -14 488 -14 q 260 15 329 -14 q 141 99 192 44 q 61 234 90 154 q 32 414 32 314 q 61 589 32 510 q 141 724 90 668 q 260 811 192 781 q 408 842 329 842 q 556 811 488 842 q 676 724 625 781 q 756 589 726 668 q 785 414 785 510 m 171 411 q 188 284 171 344 q 237 179 206 224 q 312 108 268 135 q 407 82 356 82 l 408 82 q 504 108 461 82 q 579 179 547 135 q 628 284 611 224 q 646 411 646 344 q 628 543 646 482 q 579 649 611 604 q 503 720 547 694 q 407 746 460 746 q 312 720 356 746 q 237 649 268 694 q 188 543 206 604 q 171 411 171 482 z "},"L":{"ha":617,"x_min":69,"x_max":589,"o":"m 69 0 l 69 819 l 208 819 l 208 97 l 589 97 l 589 0 l 69 0 z "},"F":{"ha":617,"x_min":69,"x_max":589,"o":"m 208 375 l 208 0 l 69 0 l 69 819 l 589 819 l 589 722 l 208 722 l 208 472 l 547 472 l 547 375 l 208 375 z "},"E":{"ha":618,"x_min":69,"x_max":590,"o":"m 69 0 l 69 819 l 589 819 l 589 722 l 208 722 l 208 472 l 547 472 l 547 375 l 208 375 l 208 97 l 590 97 l 590 0 l 69 0 z "},"V":{"ha":744,"x_min":14,"x_max":726,"o":"m 296 0 l 14 819 l 157 819 l 371 181 l 583 819 l 726 819 l 442 0 l 296 0 z "},"A":{"ha":733,"x_min":14,"x_max":726,"o":"m 444 819 l 299 819 l 14 0 l 157 0 l 225 204 l 515 204 l 583 0 l 726 0 l 444 819 m 369 639 l 482 301 l 257 301 l 369 639 z "},"C":{"ha":744,"x_min":32,"x_max":717,"o":"m 171 403 q 195 270 171 329 q 258 169 219 211 q 347 105 297 128 q 449 82 397 82 q 572 96 515 82 q 686 138 629 110 l 706 56 q 642 21 676 35 q 571 -1 607 7 q 500 -11 535 -8 q 436 -14 465 -14 q 283 10 357 -14 q 154 84 210 33 q 65 215 99 135 q 32 406 32 294 q 67 589 32 508 q 160 726 103 669 q 290 812 217 782 q 440 842 364 842 q 549 828 501 842 q 631 797 596 815 q 686 757 665 778 q 717 721 707 736 l 635 651 q 561 720 607 694 q 447 746 515 746 q 346 723 396 746 q 257 656 296 700 q 194 549 218 613 q 171 403 171 485 z "},"D":{"ha":801,"x_min":69,"x_max":754,"o":"m 69 0 l 69 819 l 346 819 q 496 793 422 819 q 626 715 569 767 q 719 585 683 663 q 754 406 754 508 q 723 224 754 300 q 639 97 692 147 q 515 24 586 47 q 364 0 443 0 l 69 0 m 615 403 q 592 545 615 485 q 529 645 568 606 q 441 704 490 685 q 339 724 392 724 l 208 724 l 208 96 l 351 96 q 547 176 479 96 q 615 403 615 256 z "},"S":{"ha":610,"x_min":19,"x_max":578,"o":"m 439 206 q 402 293 439 263 q 304 351 365 324 q 179 412 231 383 q 97 472 128 440 q 51 540 65 503 q 38 624 38 576 q 58 711 38 671 q 117 781 79 751 q 209 826 156 810 q 326 842 263 842 q 462 820 404 842 q 563 756 519 799 l 499 681 q 433 726 479 706 q 338 746 388 746 q 217 714 258 746 q 176 624 176 682 q 189 576 176 596 q 222 540 201 556 q 269 510 242 524 q 325 483 296 497 q 450 423 401 453 q 527 360 499 393 q 567 292 556 328 q 578 214 578 257 q 557 122 578 164 q 498 50 536 81 q 405 3 460 19 q 283 -14 350 -14 q 189 -2 232 -14 q 113 26 146 10 q 56 61 79 43 q 19 92 32 79 l 76 172 q 116 142 93 158 q 166 113 139 126 q 222 90 193 99 q 278 82 250 82 q 402 118 365 82 q 439 206 439 154 z "},"W":{"ha":1089,"x_min":14,"x_max":1076,"o":"m 701 0 l 544 622 l 386 0 l 240 0 l 14 819 l 157 819 l 315 181 l 472 819 l 618 819 l 776 181 l 933 819 l 1076 819 l 847 0 l 701 0 z "},"H":{"ha":724,"x_min":69,"x_max":667,"o":"m 528 0 l 528 375 l 208 375 l 208 0 l 69 0 l 69 819 l 208 819 l 208 472 l 528 472 l 528 819 l 667 819 l 667 0 l 528 0 z "},"P":{"ha":683,"x_min":69,"x_max":640,"o":"m 208 319 l 208 0 l 69 0 l 69 819 l 333 819 q 447 808 392 819 q 546 767 503 796 q 615 687 589 738 q 640 558 640 636 q 616 448 640 493 q 552 374 592 403 q 460 333 513 346 q 351 319 408 319 l 208 319 m 501 556 q 456 685 501 647 q 326 724 411 724 l 208 724 l 208 415 l 339 415 q 417 427 386 415 q 467 458 449 439 q 494 503 486 478 q 501 556 501 529 z "},"R":{"ha":689,"x_min":69,"x_max":668,"o":"m 474 556 q 428 685 474 647 q 299 724 383 724 l 208 724 l 208 415 l 311 415 q 390 427 358 415 q 440 458 421 439 q 466 503 458 478 q 474 556 474 529 m 307 319 l 208 319 l 208 0 l 69 0 l 69 819 l 306 819 q 419 808 364 819 q 518 767 475 796 q 587 687 561 738 q 613 558 613 636 q 566 413 613 465 q 449 338 519 360 l 668 0 l 514 0 l 307 319 z "},"B":{"ha":682,"x_min":69,"x_max":640,"o":"m 613 599 q 581 483 613 529 q 496 417 549 436 q 597 349 554 399 q 640 221 640 300 q 568 58 640 115 q 361 0 496 0 l 69 0 l 69 819 l 333 819 q 540 762 468 819 q 613 599 613 704 m 501 224 q 496 276 501 251 q 474 320 490 301 q 429 351 458 339 q 353 363 400 363 l 208 363 l 208 96 l 354 96 q 470 131 439 96 q 501 224 501 165 m 474 596 q 442 689 474 654 q 326 724 411 724 l 208 724 l 208 457 l 325 457 q 401 469 372 457 q 447 499 431 481 q 468 544 463 518 q 474 596 474 569 z "},"U":{"ha":764,"x_min":69,"x_max":694,"o":"m 383 83 q 508 138 461 85 q 556 310 556 190 l 556 819 l 694 819 l 694 310 q 610 64 694 142 q 383 -14 525 -14 q 152 65 235 -12 q 69 310 69 142 l 69 819 l 208 819 l 208 310 q 254 138 208 190 q 383 83 300 85 z "},"J":{"ha":431,"x_min":29,"x_max":361,"o":"m 92 83 q 143 90 119 83 q 185 112 167 96 q 213 156 203 128 q 222 226 222 183 l 222 819 l 361 819 l 361 226 q 342 110 361 156 q 288 36 322 64 q 206 -3 253 8 q 106 -14 160 -14 q 68 -12 92 -14 q 29 -6 44 -10 l 40 89 q 65 85 51 86 q 92 83 78 83 z "},"'":{"ha":276,"x_min":68,"x_max":207,"o":"m 207 686 l 179 486 l 96 486 l 68 686 l 68 833 l 207 833 l 207 686 z "},"\"":{"ha":493,"x_min":68,"x_max":429,"o":"m 207 686 l 179 486 l 96 486 l 68 686 l 68 833 l 207 833 l 207 686 m 429 686 l 401 486 l 318 486 l 290 686 l 290 833 l 429 833 l 429 686 z "},",":{"ha":283,"x_min":40,"x_max":208,"o":"m 69 0 l 69 139 l 208 139 l 208 25 q 197 -39 208 -7 q 169 -99 186 -71 q 132 -150 153 -128 q 90 -183 111 -172 l 40 -156 q 90 -94 64 -136 q 117 0 117 -53 l 69 0 z "},"N":{"ha":765,"x_min":69,"x_max":708,"o":"m 583 0 l 208 583 l 208 0 l 69 0 l 69 819 l 194 819 l 569 250 l 569 819 l 708 819 l 708 0 l 583 0 z "},"M":{"ha":944,"x_min":69,"x_max":875,"o":"m 736 557 l 524 0 l 419 0 l 208 557 l 208 0 l 69 0 l 69 819 l 236 819 l 472 203 l 708 819 l 875 819 l 875 0 l 736 0 l 736 557 z "},"K":{"ha":714,"x_min":69,"x_max":678,"o":"m 656 819 l 371 413 l 678 0 l 524 0 l 246 371 l 208 358 l 208 0 l 69 0 l 69 819 l 208 819 l 208 450 l 217 453 q 265 490 246 463 l 501 819 l 656 819 z "},"G":{"ha":796,"x_min":32,"x_max":756,"o":"m 756 431 l 756 42 q 611 1 689 15 q 450 -14 533 -14 q 295 10 371 -14 q 161 84 219 33 q 67 215 103 135 q 32 406 32 294 q 65 589 32 508 q 155 726 99 669 q 285 812 211 782 q 440 842 360 842 q 565 826 513 842 q 655 787 618 810 q 713 740 692 764 q 743 700 733 715 l 650 631 q 572 713 622 679 q 447 746 522 746 q 342 723 392 746 q 253 656 292 700 q 193 549 215 613 q 171 403 171 485 q 195 270 171 329 q 258 169 219 211 q 347 105 297 128 q 449 82 397 82 q 537 87 493 82 q 617 103 581 92 l 617 333 l 444 333 l 444 431 l 756 431 z "},"Q":{"ha":826,"x_min":32,"x_max":785,"o":"m 564 160 q 624 271 603 206 q 646 411 646 336 q 628 543 646 482 q 579 649 611 604 q 503 720 547 694 q 407 746 460 746 q 312 720 356 746 q 237 649 268 694 q 188 543 206 604 q 171 411 171 482 q 188 284 171 344 q 237 179 206 224 q 312 108 268 135 q 407 82 356 82 l 408 82 q 485 99 450 82 l 396 197 l 485 239 l 564 160 m 668 -107 l 558 15 q 408 -14 490 -14 q 260 15 329 -14 q 141 99 192 44 q 61 234 90 154 q 32 414 32 314 q 61 589 32 510 q 141 724 90 668 q 260 811 192 781 q 408 842 329 842 q 556 811 488 842 q 676 724 625 781 q 756 589 726 668 q 785 414 785 510 q 749 215 785 300 q 651 74 714 129 l 764 -37 l 668 -107 z "},"X":{"ha":733,"x_min":28,"x_max":700,"o":"m 686 819 l 436 421 l 700 0 l 556 0 l 364 306 l 172 0 l 28 0 l 292 421 l 42 819 l 186 819 l 364 536 l 542 819 l 686 819 z "},"Y":{"ha":726,"x_min":28,"x_max":700,"o":"m 294 325 l 28 819 l 172 819 l 364 444 l 556 819 l 700 819 l 433 325 l 433 0 l 294 0 l 294 325 z "},"Z":{"ha":585,"x_min":14,"x_max":569,"o":"m 569 736 l 181 97 l 569 97 l 569 0 l 14 0 l 14 83 l 403 722 l 14 722 l 14 819 l 569 819 l 569 736 z "},"·":{"ha":278,"x_min":69,"x_max":208,"o":"m 69 347 l 69 486 l 208 486 l 208 347 l 69 347 z "},"ß":{"ha":692,"x_min":56,"x_max":650,"o":"m 511 161 q 492 210 511 181 q 432 251 472 239 q 344 288 378 268 q 290 331 310 308 q 264 376 271 353 q 257 421 257 399 q 283 487 257 463 q 339 532 308 511 q 395 576 369 553 q 421 642 421 600 q 397 700 421 678 q 314 722 372 722 q 229 684 264 722 q 194 574 194 646 l 194 0 l 56 0 l 56 579 q 81 696 56 650 q 146 769 107 742 q 230 807 185 796 q 314 819 275 818 l 322 819 q 422 805 378 819 q 495 767 465 790 q 541 713 525 743 q 557 650 557 682 q 529 561 557 596 q 468 503 501 526 q 407 463 435 479 q 379 429 379 446 q 401 399 379 408 q 456 379 424 390 q 606 297 563 344 q 650 169 650 249 q 632 94 650 128 q 582 35 614 60 q 506 -2 550 11 q 411 -15 463 -15 q 310 3 350 -15 q 239 49 271 22 l 290 128 q 349 91 318 101 q 406 81 379 81 q 487 101 463 81 q 511 161 511 121 z "},"&":{"ha":838,"x_min":39,"x_max":867,"o":"m 388 840 q 502 823 456 840 q 577 778 549 806 q 618 715 606 750 q 631 643 631 679 q 610 554 631 592 q 560 490 589 517 q 497 445 531 463 q 439 419 464 428 l 608 250 q 642 316 629 283 q 664 375 656 349 q 679 432 674 404 l 792 401 q 774 325 786 365 q 744 249 763 289 q 696 165 726 208 l 867 0 l 678 -1 l 606 72 q 488 9 556 33 q 328 -15 419 -15 q 231 -3 282 -15 q 138 36 181 8 q 67 111 96 64 q 39 231 39 158 q 57 317 39 279 q 103 384 75 356 q 163 433 131 413 q 226 467 196 454 q 177 555 190 517 q 164 625 164 593 q 187 726 164 685 q 244 792 210 767 q 317 829 278 818 q 388 840 356 840 m 526 151 l 299 379 q 256 356 278 369 q 217 324 235 343 q 190 281 200 306 q 179 224 179 256 q 229 124 179 158 q 353 90 279 90 q 450 107 407 90 q 526 151 493 124 m 306 635 q 318 569 306 599 q 361 503 331 539 q 402 514 379 506 q 444 538 425 522 q 478 581 464 554 q 492 646 492 607 q 483 695 492 676 q 460 724 474 714 q 430 738 446 735 q 400 742 414 742 q 381 739 396 742 q 349 725 365 736 q 319 692 332 714 q 306 635 306 671 z "},"‚":{"ha":264,"x_min":40,"x_max":208,"o":"m 69 0 l 69 139 l 208 139 l 208 25 q 197 -39 208 -7 q 169 -99 186 -71 q 132 -150 153 -128 q 90 -183 111 -172 l 40 -156 q 90 -94 64 -136 q 117 0 117 -53 l 69 0 z "},"„":{"ha":479,"x_min":40,"x_max":417,"o":"m 69 0 l 69 139 l 208 139 l 208 25 q 197 -39 208 -7 q 169 -99 186 -71 q 132 -150 153 -128 q 90 -183 111 -172 l 40 -156 q 90 -94 64 -136 q 117 0 117 -53 l 69 0 m 278 0 l 278 139 l 417 139 l 417 25 q 406 -39 417 -7 q 378 -99 394 -71 q 340 -150 361 -128 q 299 -183 319 -172 l 249 -156 q 299 -94 272 -136 q 325 0 325 -53 l 278 0 z "},"’":{"ha":258,"x_min":40,"x_max":208,"o":"m 69 750 l 69 889 l 208 889 l 208 775 q 197 712 208 744 q 169 651 186 679 q 132 600 153 622 q 90 567 111 578 l 40 594 q 90 656 64 614 q 117 750 117 697 l 69 750 z "},"‘":{"ha":258,"x_min":57,"x_max":225,"o":"m 196 733 l 196 594 l 57 594 l 57 708 q 68 772 57 740 q 96 833 79 804 q 133 883 113 861 q 175 917 154 906 l 225 889 q 175 828 201 869 q 149 733 149 786 l 196 733 z "},"“":{"ha":463,"x_min":57,"x_max":419,"o":"m 196 733 l 196 594 l 57 594 l 57 708 q 68 772 57 740 q 96 833 79 804 q 133 883 113 861 q 175 917 154 906 l 225 889 q 175 828 201 869 q 149 733 149 786 l 196 733 m 390 733 l 390 594 l 251 594 l 251 708 q 263 772 251 740 q 290 833 274 804 q 328 883 307 861 q 369 917 349 906 l 419 889 q 369 828 396 869 q 343 733 343 786 l 390 733 z "},"”":{"ha":463,"x_min":43,"x_max":406,"o":"m 267 750 l 267 889 l 406 889 l 406 775 q 394 712 406 744 q 367 651 383 679 q 329 600 350 622 q 288 567 308 578 l 238 594 q 288 656 261 614 q 314 750 314 697 l 267 750 m 72 750 l 72 889 l 211 889 l 211 775 q 200 712 211 744 q 172 651 189 679 q 135 600 156 622 q 93 567 114 578 l 43 594 q 93 656 67 614 q 119 750 119 697 l 72 750 z "},"!":{"ha":274,"x_min":69,"x_max":208,"o":"m 76 451 l 69 818 l 208 818 l 201 451 l 181 247 l 97 247 l 76 451 m 69 0 l 69 139 l 208 139 l 208 0 l 69 0 z "},"¡":{"ha":274,"x_min":69,"x_max":208,"o":"m 201 103 l 208 -264 l 69 -264 l 76 103 l 97 307 l 181 307 l 201 103 m 208 554 l 208 415 l 69 415 l 69 554 l 208 554 z "},"´":{"ha":336,"x_min":47,"x_max":332,"o":"m 49 668 q 64 690 47 668 q 101 739 81 713 q 157 810 125 771 l 332 810 l 171 668 l 49 668 z "},"`":{"ha":336,"x_min":17,"x_max":301,"o":"m 300 668 l 178 668 l 17 810 l 192 810 q 247 739 224 771 q 285 690 269 711 q 300 668 301 668 z "},"Á":{"ha":733,"x_min":14,"x_max":726,"o":"m 444 819 l 299 819 l 14 0 l 157 0 l 225 204 l 515 204 l 583 0 l 726 0 l 444 819 m 369 639 l 482 301 l 257 301 l 369 639 m 311 896 q 326 918 310 896 q 364 967 343 940 q 419 1038 388 999 l 594 1038 l 433 896 l 311 896 z "},"á":{"ha":596,"x_min":56,"x_max":526,"o":"m 388 124 l 388 260 l 353 260 q 272 249 303 260 q 224 224 240 239 q 201 191 207 208 q 194 161 194 174 q 214 111 194 135 q 278 88 233 88 q 331 96 306 88 q 388 124 356 104 m 388 342 l 388 346 q 352 438 388 408 q 276 468 317 468 q 242 466 265 468 q 194 459 219 464 q 142 447 168 454 q 97 426 115 439 l 78 508 q 129 534 99 524 q 192 551 160 544 q 254 560 225 557 q 301 564 283 564 q 390 553 349 564 q 461 517 431 542 q 509 451 492 492 q 526 351 526 410 l 526 0 l 388 0 l 388 42 q 322 6 356 19 q 239 -8 288 -8 q 108 33 161 -8 q 56 149 56 74 q 137 294 56 247 q 349 342 218 342 l 388 342 m 232 668 q 247 690 231 668 q 285 739 264 713 q 340 810 308 771 l 515 810 l 354 668 l 232 668 z "},"ˆ":{"ha":435,"x_min":21,"x_max":413,"o":"m 411 668 l 289 668 l 215 729 l 143 668 l 21 668 l 176 810 l 267 810 q 326 758 299 783 q 372 713 353 732 q 402 681 392 693 q 411 668 413 668 z "},"ˇ":{"ha":429,"x_min":22,"x_max":414,"o":"m 24 808 l 146 808 l 219 747 l 292 808 l 414 808 l 258 667 l 168 667 q 109 719 136 693 q 63 764 82 744 q 33 796 43 783 q 24 808 22 808 z "},"˙":{"ha":303,"x_min":86,"x_max":225,"o":"m 86 672 l 86 811 l 225 811 l 225 672 l 86 672 z "},"¨":{"ha":565,"x_min":114,"x_max":447,"o":"m 114 672 l 114 811 l 253 811 l 253 672 l 114 672 m 308 672 l 308 811 l 447 811 l 447 672 l 308 672 z "},"â":{"ha":596,"x_min":56,"x_max":526,"o":"m 388 124 l 388 260 l 353 260 q 272 249 303 260 q 224 224 240 239 q 201 191 207 208 q 194 161 194 174 q 214 111 194 135 q 278 88 233 88 q 331 96 306 88 q 388 124 356 104 m 388 342 l 388 346 q 352 438 388 408 q 276 468 317 468 q 242 466 265 468 q 194 459 219 464 q 142 447 168 454 q 97 426 115 439 l 78 508 q 129 534 99 524 q 192 551 160 544 q 254 560 225 557 q 301 564 283 564 q 390 553 349 564 q 461 517 431 542 q 509 451 492 492 q 526 351 526 410 l 526 0 l 388 0 l 388 42 q 322 6 356 19 q 239 -8 288 -8 q 108 33 161 -8 q 56 149 56 74 q 137 294 56 247 q 349 342 218 342 l 388 342 m 492 668 l 369 668 l 296 729 l 224 668 l 101 668 l 257 810 l 347 810 q 406 758 379 783 q 453 713 433 732 q 483 681 472 693 q 492 668 493 668 z "},"ä":{"ha":596,"x_min":56,"x_max":526,"o":"m 388 124 l 388 260 l 353 260 q 272 249 303 260 q 224 224 240 239 q 201 191 207 208 q 194 161 194 174 q 214 111 194 135 q 278 88 233 88 q 331 96 306 88 q 388 124 356 104 m 388 342 l 388 346 q 352 438 388 408 q 276 468 317 468 q 242 466 265 468 q 194 459 219 464 q 142 447 168 454 q 97 426 115 439 l 78 508 q 129 534 99 524 q 192 551 160 544 q 254 560 225 557 q 301 564 283 564 q 390 553 349 564 q 461 517 431 542 q 509 451 492 492 q 526 351 526 410 l 526 0 l 388 0 l 388 42 q 322 6 356 19 q 239 -8 288 -8 q 108 33 161 -8 q 56 149 56 74 q 137 294 56 247 q 349 342 218 342 l 388 342 m 131 672 l 131 811 l 269 811 l 269 672 l 131 672 m 325 672 l 325 811 l 464 811 l 464 672 l 325 672 z "},"ö":{"ha":631,"x_min":32,"x_max":592,"o":"m 590 268 q 578 170 592 221 q 531 79 564 119 q 444 13 499 39 q 311 -14 390 -14 q 178 13 232 -14 q 92 79 124 39 q 46 170 60 119 q 32 268 32 221 l 32 282 q 46 381 32 331 q 92 471 60 431 q 178 538 124 511 q 311 564 232 564 q 444 538 390 564 q 531 471 499 511 q 576 381 563 431 q 590 282 590 331 l 590 268 m 171 276 l 171 274 q 173 224 171 257 q 188 160 175 192 q 230 106 201 129 q 310 82 258 82 l 311 82 q 392 106 364 82 q 433 160 419 129 q 449 224 447 192 q 451 274 451 257 l 451 276 q 449 326 451 293 q 433 390 447 358 q 391 444 419 421 q 310 468 363 468 q 230 444 258 468 q 188 390 201 421 q 173 326 175 358 q 171 276 171 293 m 149 672 l 149 811 l 288 811 l 288 672 l 149 672 m 343 672 l 343 811 l 482 811 l 482 672 l 343 672 z "},"ü":{"ha":579,"x_min":56,"x_max":526,"o":"m 194 556 l 194 168 q 209 110 194 133 q 264 88 224 88 q 319 96 285 88 q 388 124 353 104 l 388 556 l 526 556 l 526 0 l 388 0 l 388 43 q 306 7 350 22 q 219 -8 263 -8 q 100 28 144 -8 q 56 163 56 64 l 56 556 l 194 556 m 122 672 l 122 811 l 261 811 l 261 672 l 122 672 m 317 672 l 317 811 l 456 811 l 456 672 l 317 672 z "},"Ö":{"ha":828,"x_min":32,"x_max":785,"o":"m 785 414 q 756 233 785 313 q 676 99 726 154 q 556 15 625 44 q 408 -14 488 -14 q 260 15 329 -14 q 141 99 192 44 q 61 234 90 154 q 32 414 32 314 q 61 589 32 510 q 141 724 90 668 q 260 811 192 781 q 408 842 329 842 q 556 811 488 842 q 676 724 625 781 q 756 589 726 668 q 785 414 785 510 m 171 411 q 188 284 171 344 q 237 179 206 224 q 312 108 268 135 q 407 82 356 82 l 408 82 q 504 108 461 82 q 579 179 547 135 q 628 284 611 224 q 646 411 646 344 q 628 543 646 482 q 579 649 611 604 q 503 720 547 694 q 407 746 460 746 q 312 720 356 746 q 237 649 268 694 q 188 543 206 604 q 171 411 171 482 m 247 908 l 247 1047 l 386 1047 l 386 908 l 247 908 m 442 908 l 442 1047 l 581 1047 l 581 908 l 442 908 z "},"Ü":{"ha":764,"x_min":69,"x_max":694,"o":"m 383 83 q 508 138 461 85 q 556 310 556 190 l 556 819 l 694 819 l 694 310 q 610 64 694 142 q 383 -14 525 -14 q 152 65 235 -12 q 69 310 69 142 l 69 819 l 208 819 l 208 310 q 254 138 208 190 q 383 83 300 85 m 215 908 l 215 1047 l 354 1047 l 354 908 l 215 908 m 410 908 l 410 1047 l 549 1047 l 549 908 l 410 908 z "},"˘":{"ha":421,"x_min":24,"x_max":401,"o":"m 401 808 q 397 785 401 808 q 374 733 393 761 q 318 681 356 704 q 214 657 281 657 l 211 657 q 107 681 144 657 q 51 733 69 704 q 28 785 32 761 q 24 808 24 808 l 146 808 q 167 772 146 785 q 211 760 188 760 q 257 772 236 760 q 279 808 278 785 l 401 808 z "},"¸":{"ha":511,"x_min":214,"x_max":458,"o":"m 271 7 l 368 7 l 333 -61 q 396 -76 368 -64 q 440 -110 421 -87 q 458 -174 458 -132 q 439 -244 458 -218 q 390 -284 419 -269 q 328 -303 361 -299 q 268 -307 294 -307 q 246 -306 256 -307 q 229 -306 236 -306 q 214 -304 221 -306 l 214 -224 q 228 -226 219 -225 q 242 -227 235 -226 q 260 -228 250 -228 q 316 -217 288 -228 q 344 -174 344 -207 q 325 -135 344 -146 q 279 -124 306 -124 q 246 -128 263 -124 l 221 -93 q 235 -64 226 -81 q 251 -32 243 -47 q 265 -6 260 -17 q 271 7 271 6 z "},"˝":{"ha":544,"x_min":47,"x_max":543,"o":"m 49 668 q 64 690 47 668 q 101 739 81 713 q 157 810 125 771 l 332 810 l 171 668 l 49 668 m 260 668 q 275 690 258 668 q 313 739 292 713 q 368 810 336 771 l 543 810 l 382 668 l 260 668 z "},"˛":{"ha":479,"x_min":200,"x_max":431,"o":"m 304 7 l 401 7 q 339 -60 364 -28 q 314 -132 314 -92 q 332 -180 314 -161 q 386 -199 350 -199 q 402 -198 394 -199 q 417 -197 410 -197 q 431 -196 424 -197 l 431 -276 q 406 -283 419 -281 q 378 -288 393 -286 q 346 -290 364 -290 q 240 -256 279 -290 q 200 -153 200 -222 q 211 -100 200 -125 q 238 -54 222 -75 q 272 -18 254 -33 q 304 7 290 -3 z "},"˜":{"ha":524,"x_min":19,"x_max":504,"o":"m 504 774 q 495 758 504 774 q 466 722 486 742 q 415 687 446 703 q 339 671 383 671 q 285 677 306 671 q 247 692 264 683 q 211 706 229 700 q 164 713 193 713 q 127 705 143 713 q 100 689 111 697 q 78 664 88 678 q 49 686 63 676 q 28 701 38 694 q 19 707 19 707 q 28 723 19 707 q 58 758 38 739 q 110 794 78 778 q 185 810 142 810 q 234 803 214 810 q 272 789 254 797 q 310 774 290 781 q 358 768 331 768 q 396 776 379 768 q 424 793 413 783 q 446 817 436 803 q 475 794 461 804 q 495 780 486 786 q 504 774 504 774 z "},"˚":{"ha":413,"x_min":60,"x_max":357,"o":"m 60 760 q 72 817 60 790 q 103 863 83 843 q 151 894 124 883 q 208 906 178 906 q 266 894 239 906 q 313 863 293 883 q 345 817 333 843 q 357 760 357 790 q 345 704 357 731 q 313 658 333 678 q 266 626 293 638 q 208 615 239 615 q 151 626 178 615 q 103 658 124 638 q 72 704 83 678 q 60 760 60 731 m 146 758 q 164 715 146 732 q 208 699 182 699 q 253 715 235 699 q 272 758 272 732 q 253 803 272 785 q 208 822 235 822 q 164 803 182 822 q 146 758 146 785 z "},"ă":{"ha":596,"x_min":56,"x_max":526,"o":"m 388 124 l 388 260 l 353 260 q 272 249 303 260 q 224 224 240 239 q 201 191 207 208 q 194 161 194 174 q 214 111 194 135 q 278 88 233 88 q 331 96 306 88 q 388 124 356 104 m 388 342 l 388 346 q 352 438 388 408 q 276 468 317 468 q 242 466 265 468 q 194 459 219 464 q 142 447 168 454 q 97 426 115 439 l 78 508 q 129 534 99 524 q 192 551 160 544 q 254 560 225 557 q 301 564 283 564 q 390 553 349 564 q 461 517 431 542 q 509 451 492 492 q 526 351 526 410 l 526 0 l 388 0 l 388 42 q 322 6 356 19 q 239 -8 288 -8 q 108 33 161 -8 q 56 149 56 74 q 137 294 56 247 q 349 342 218 342 l 388 342 m 486 808 q 482 785 486 808 q 459 733 478 761 q 403 681 440 704 q 299 657 365 657 l 296 657 q 192 681 229 657 q 135 733 154 704 q 113 785 117 761 q 108 808 108 808 l 231 808 q 251 772 231 785 q 296 760 272 760 q 342 772 321 760 q 364 808 363 785 l 486 808 z "},"à":{"ha":596,"x_min":56,"x_max":526,"o":"m 388 124 l 388 260 l 353 260 q 272 249 303 260 q 224 224 240 239 q 201 191 207 208 q 194 161 194 174 q 214 111 194 135 q 278 88 233 88 q 331 96 306 88 q 388 124 356 104 m 388 342 l 388 346 q 352 438 388 408 q 276 468 317 468 q 242 466 265 468 q 194 459 219 464 q 142 447 168 454 q 97 426 115 439 l 78 508 q 129 534 99 524 q 192 551 160 544 q 254 560 225 557 q 301 564 283 564 q 390 553 349 564 q 461 517 431 542 q 509 451 492 492 q 526 351 526 410 l 526 0 l 388 0 l 388 42 q 322 6 356 19 q 239 -8 288 -8 q 108 33 161 -8 q 56 149 56 74 q 137 294 56 247 q 349 342 218 342 l 388 342 m 382 668 l 260 668 l 99 810 l 274 810 q 329 739 306 771 q 367 690 351 711 q 382 668 383 668 z "},"ą":{"ha":596,"x_min":56,"x_max":526,"o":"m 388 124 l 388 260 l 353 260 q 272 249 303 260 q 224 224 240 239 q 201 191 207 208 q 194 161 194 174 q 214 111 194 135 q 278 88 233 88 q 331 96 306 88 q 388 124 356 104 m 388 342 l 388 346 q 352 438 388 408 q 276 468 317 468 q 242 466 265 468 q 194 459 219 464 q 142 447 168 454 q 97 426 115 439 l 78 508 q 129 534 99 524 q 192 551 160 544 q 254 560 225 557 q 301 564 283 564 q 390 553 349 564 q 461 517 431 542 q 509 451 492 492 q 526 351 526 410 l 526 0 l 388 0 l 388 42 q 322 6 356 19 q 239 -8 288 -8 q 108 33 161 -8 q 56 149 56 74 q 137 294 56 247 q 349 342 218 342 l 388 342 m 400 7 l 497 7 q 435 -60 460 -28 q 410 -132 410 -92 q 428 -180 410 -161 q 482 -199 446 -199 q 498 -198 490 -199 q 513 -197 506 -197 q 526 -196 519 -197 l 526 -276 q 501 -283 515 -281 q 474 -288 489 -286 q 442 -290 460 -290 q 335 -256 375 -290 q 296 -153 296 -222 q 307 -100 296 -125 q 334 -54 318 -75 q 368 -18 350 -33 q 400 7 386 -3 z "},"¯":{"ha":471,"x_min":26,"x_max":442,"o":"m 26 665 l 26 754 l 442 754 l 442 665 l 26 665 z "},"ā":{"ha":596,"x_min":56,"x_max":526,"o":"m 388 124 l 388 260 l 353 260 q 272 249 303 260 q 224 224 240 239 q 201 191 207 208 q 194 161 194 174 q 214 111 194 135 q 278 88 233 88 q 331 96 306 88 q 388 124 356 104 m 388 342 l 388 346 q 352 438 388 408 q 276 468 317 468 q 242 466 265 468 q 194 459 219 464 q 142 447 168 454 q 97 426 115 439 l 78 508 q 129 534 99 524 q 192 551 160 544 q 254 560 225 557 q 301 564 283 564 q 390 553 349 564 q 461 517 431 542 q 509 451 492 492 q 526 351 526 410 l 526 0 l 388 0 l 388 42 q 322 6 356 19 q 239 -8 288 -8 q 108 33 161 -8 q 56 149 56 74 q 137 294 56 247 q 349 342 218 342 l 388 342 m 90 665 l 90 754 l 506 754 l 506 665 l 90 665 z "},"å":{"ha":596,"x_min":56,"x_max":526,"o":"m 388 124 l 388 260 l 353 260 q 272 249 303 260 q 224 224 240 239 q 201 191 207 208 q 194 161 194 174 q 214 111 194 135 q 278 88 233 88 q 331 96 306 88 q 388 124 356 104 m 388 342 l 388 346 q 352 438 388 408 q 276 468 317 468 q 242 466 265 468 q 194 459 219 464 q 142 447 168 454 q 97 426 115 439 l 78 508 q 129 534 99 524 q 192 551 160 544 q 254 560 225 557 q 301 564 283 564 q 390 553 349 564 q 461 517 431 542 q 509 451 492 492 q 526 351 526 410 l 526 0 l 388 0 l 388 42 q 322 6 356 19 q 239 -8 288 -8 q 108 33 161 -8 q 56 149 56 74 q 137 294 56 247 q 349 342 218 342 l 388 342 m 149 760 q 160 817 149 790 q 192 863 172 843 q 240 894 213 883 q 297 906 267 906 q 355 894 328 906 q 402 863 382 883 q 434 817 422 843 q 446 760 446 790 q 434 704 446 731 q 402 658 422 678 q 355 626 382 638 q 297 615 328 615 q 240 626 267 615 q 192 658 213 638 q 160 704 172 678 q 149 760 149 731 m 235 758 q 253 715 235 732 q 297 699 271 699 q 342 715 324 699 q 361 758 361 732 q 342 803 361 785 q 297 822 324 822 q 253 803 271 822 q 235 758 235 785 z "},"ã":{"ha":596,"x_min":54,"x_max":539,"o":"m 386 124 l 386 260 l 351 260 q 270 249 301 260 q 222 224 239 239 q 199 191 206 208 q 193 161 193 174 q 213 111 193 135 q 276 88 232 88 q 329 96 304 88 q 386 124 354 104 m 386 342 l 386 346 q 351 438 386 408 q 275 468 315 468 q 241 466 264 468 q 192 459 218 464 q 140 447 167 454 q 96 426 114 439 l 76 508 q 128 534 97 524 q 191 551 158 544 q 253 560 224 557 q 300 564 282 564 q 388 553 347 564 q 460 517 429 542 q 508 451 490 492 q 525 351 525 410 l 525 0 l 386 0 l 386 42 q 320 6 354 19 q 238 -8 286 -8 q 107 33 160 -8 q 54 149 54 74 q 135 294 54 247 q 347 342 217 342 l 386 342 m 539 774 q 530 758 539 774 q 501 722 521 742 q 449 687 481 703 q 374 671 418 671 q 319 677 340 671 q 281 692 299 683 q 246 706 264 700 q 199 713 228 713 q 162 705 178 713 q 135 689 146 697 q 113 664 122 678 q 83 686 97 676 q 63 701 72 694 q 54 707 54 707 q 63 723 54 707 q 92 758 72 739 q 144 794 113 778 q 219 810 176 810 q 269 803 249 810 q 307 789 289 797 q 345 774 325 781 q 393 768 365 768 q 431 776 414 768 q 458 793 447 783 q 481 817 471 803 q 510 794 496 804 q 530 780 521 786 q 539 774 539 774 z "},"æ":{"ha":979,"x_min":56,"x_max":946,"o":"m 388 124 l 388 260 l 353 260 q 272 249 303 260 q 224 224 240 239 q 201 191 207 208 q 194 161 194 174 q 214 111 194 135 q 278 88 233 88 q 331 96 306 88 q 388 124 356 104 m 529 324 l 804 324 q 795 372 803 346 q 772 419 788 397 q 731 454 757 440 q 665 468 706 468 q 601 454 626 468 q 560 419 575 440 q 538 372 544 397 q 529 324 532 347 m 531 229 q 544 181 535 207 q 572 133 554 154 q 618 97 590 111 q 685 82 646 82 l 686 82 q 777 103 735 82 q 847 156 819 124 l 918 94 q 808 10 872 35 q 667 -14 743 -14 q 538 13 592 -14 q 449 83 483 40 q 414 53 432 69 q 371 24 396 38 q 314 1 346 10 q 239 -8 282 -8 q 108 33 161 -8 q 56 149 56 74 q 137 294 56 247 q 349 342 218 342 l 388 342 l 388 346 q 352 438 388 408 q 276 468 317 468 q 242 466 265 468 q 194 459 219 464 q 142 447 168 454 q 97 426 115 439 l 78 508 q 129 534 99 524 q 192 551 160 544 q 254 560 225 557 q 301 564 283 564 q 401 549 356 564 q 479 500 447 535 q 559 547 513 529 q 667 564 606 564 q 800 538 746 564 q 886 471 854 511 q 932 381 918 431 q 946 282 946 331 l 946 268 q 946 249 946 258 q 944 229 946 239 l 531 229 z "},"ǽ":{"ha":979,"x_min":56,"x_max":946,"o":"m 388 124 l 388 260 l 353 260 q 272 249 303 260 q 224 224 240 239 q 201 191 207 208 q 194 161 194 174 q 214 111 194 135 q 278 88 233 88 q 331 96 306 88 q 388 124 356 104 m 529 324 l 804 324 q 795 372 803 346 q 772 419 788 397 q 731 454 757 440 q 665 468 706 468 q 601 454 626 468 q 560 419 575 440 q 538 372 544 397 q 529 324 532 347 m 531 229 q 544 181 535 207 q 572 133 554 154 q 618 97 590 111 q 685 82 646 82 l 686 82 q 777 103 735 82 q 847 156 819 124 l 918 94 q 808 10 872 35 q 667 -14 743 -14 q 538 13 592 -14 q 449 83 483 40 q 414 53 432 69 q 371 24 396 38 q 314 1 346 10 q 239 -8 282 -8 q 108 33 161 -8 q 56 149 56 74 q 137 294 56 247 q 349 342 218 342 l 388 342 l 388 346 q 352 438 388 408 q 276 468 317 468 q 242 466 265 468 q 194 459 219 464 q 142 447 168 454 q 97 426 115 439 l 78 508 q 129 534 99 524 q 192 551 160 544 q 254 560 225 557 q 301 564 283 564 q 401 549 356 564 q 479 500 447 535 q 559 547 513 529 q 667 564 606 564 q 800 538 746 564 q 886 471 854 511 q 932 381 918 431 q 946 282 946 331 l 946 268 q 946 249 946 258 q 944 229 946 239 l 531 229 m 444 668 q 460 690 443 668 q 497 739 476 713 q 553 810 521 771 l 728 810 l 567 668 l 444 668 z "},"ć":{"ha":518,"x_min":32,"x_max":508,"o":"m 171 276 l 171 274 q 176 224 171 257 q 196 160 181 192 q 242 106 211 129 q 324 82 272 82 l 325 82 q 402 92 365 82 q 472 118 439 101 l 497 25 q 424 0 469 14 q 311 -14 378 -14 q 178 13 232 -14 q 92 79 124 39 q 46 170 60 119 q 32 268 32 221 l 32 282 q 46 381 32 331 q 92 471 60 431 q 178 538 124 511 q 311 564 232 564 q 425 550 381 564 q 497 525 469 536 l 474 433 q 438 450 458 443 q 397 461 418 457 q 356 467 375 465 q 324 468 336 468 q 242 444 272 468 q 196 390 211 421 q 176 326 181 358 q 171 276 171 293 m 225 668 q 240 690 224 668 q 278 739 257 713 q 333 810 301 771 l 508 810 l 347 668 l 225 668 z "},"č":{"ha":518,"x_min":32,"x_max":499,"o":"m 171 276 l 171 274 q 176 224 171 257 q 196 160 181 192 q 242 106 211 129 q 324 82 272 82 l 325 82 q 402 92 365 82 q 472 118 439 101 l 497 25 q 424 0 469 14 q 311 -14 378 -14 q 178 13 232 -14 q 92 79 124 39 q 46 170 60 119 q 32 268 32 221 l 32 282 q 46 381 32 331 q 92 471 60 431 q 178 538 124 511 q 311 564 232 564 q 425 550 381 564 q 497 525 469 536 l 474 433 q 438 450 458 443 q 397 461 418 457 q 356 467 375 465 q 324 468 336 468 q 242 444 272 468 q 196 390 211 421 q 176 326 181 358 q 171 276 171 293 m 108 808 l 231 808 l 304 747 l 376 808 l 499 808 l 343 667 l 253 667 q 194 719 221 693 q 147 764 167 744 q 117 796 128 783 q 108 808 107 808 z "},"ç":{"ha":518,"x_min":32,"x_max":497,"o":"m 171 276 l 171 274 q 176 224 171 257 q 196 160 181 192 q 242 106 211 129 q 324 82 272 82 l 325 82 q 402 92 365 82 q 472 118 439 101 l 497 25 q 424 0 469 14 q 311 -14 378 -14 q 178 13 232 -14 q 92 79 124 39 q 46 170 60 119 q 32 268 32 221 l 32 282 q 46 381 32 331 q 92 471 60 431 q 178 538 124 511 q 311 564 232 564 q 425 550 381 564 q 497 525 469 536 l 474 433 q 438 450 458 443 q 397 461 418 457 q 356 467 375 465 q 324 468 336 468 q 242 444 272 468 q 196 390 211 421 q 176 326 181 358 q 171 276 171 293 m 263 7 l 360 7 l 325 -61 q 388 -76 360 -64 q 431 -110 413 -87 q 450 -174 450 -132 q 431 -244 450 -218 q 382 -284 411 -269 q 319 -303 353 -299 q 260 -307 286 -307 q 238 -306 247 -307 q 221 -306 228 -306 q 206 -304 213 -306 l 206 -224 q 219 -226 211 -225 q 234 -227 226 -226 q 251 -228 242 -228 q 308 -217 279 -228 q 336 -174 336 -207 q 317 -135 336 -146 q 271 -124 297 -124 q 238 -128 254 -124 l 213 -93 q 226 -64 218 -81 q 243 -32 235 -47 q 257 -6 251 -17 q 263 7 263 6 z "},"ĉ":{"ha":518,"x_min":32,"x_max":497,"o":"m 171 276 l 171 274 q 176 224 171 257 q 196 160 181 192 q 242 106 211 129 q 324 82 272 82 l 325 82 q 402 92 365 82 q 472 118 439 101 l 497 25 q 424 0 469 14 q 311 -14 378 -14 q 178 13 232 -14 q 92 79 124 39 q 46 170 60 119 q 32 268 32 221 l 32 282 q 46 381 32 331 q 92 471 60 431 q 178 538 124 511 q 311 564 232 564 q 425 550 381 564 q 497 525 469 536 l 474 433 q 438 450 458 443 q 397 461 418 457 q 356 467 375 465 q 324 468 336 468 q 242 444 272 468 q 196 390 211 421 q 176 326 181 358 q 171 276 171 293 m 496 668 l 374 668 l 300 729 l 228 668 l 106 668 l 261 810 l 351 810 q 410 758 383 783 q 457 713 438 732 q 487 681 476 693 q 496 668 497 668 z "},"ċ":{"ha":518,"x_min":32,"x_max":497,"o":"m 171 276 l 171 274 q 176 224 171 257 q 196 160 181 192 q 242 106 211 129 q 324 82 272 82 l 325 82 q 402 92 365 82 q 472 118 439 101 l 497 25 q 424 0 469 14 q 311 -14 378 -14 q 178 13 232 -14 q 92 79 124 39 q 46 170 60 119 q 32 268 32 221 l 32 282 q 46 381 32 331 q 92 471 60 431 q 178 538 124 511 q 311 564 232 564 q 425 550 381 564 q 497 525 469 536 l 474 433 q 438 450 458 443 q 397 461 418 457 q 356 467 375 465 q 324 468 336 468 q 242 444 272 468 q 196 390 211 421 q 176 326 181 358 q 171 276 171 293 m 229 672 l 229 811 l 368 811 l 368 672 l 229 672 z "},"ď":{"ha":793,"x_min":43,"x_max":774,"o":"m 44 268 l 44 282 q 56 381 43 331 q 99 471 69 431 q 178 538 129 511 q 296 564 226 564 q 450 497 396 564 l 450 833 l 589 833 l 589 0 l 450 0 l 450 57 q 385 5 424 24 q 296 -14 347 -14 q 178 13 226 -14 q 101 79 131 39 q 58 170 71 119 q 44 268 44 221 m 450 165 l 450 389 q 410 444 438 421 q 325 468 382 468 l 324 468 q 249 444 276 468 q 206 390 221 421 q 188 326 192 358 q 183 276 183 293 l 183 274 q 188 224 183 257 q 206 160 192 192 q 249 106 221 129 q 325 82 278 82 q 410 108 382 82 q 450 165 438 133 m 635 694 l 635 833 l 774 833 l 774 719 q 763 656 774 689 q 735 595 751 624 q 697 544 718 567 q 656 511 676 522 l 606 539 q 656 600 629 558 q 682 694 682 642 l 635 694 z "},"đ":{"ha":701,"x_min":43,"x_max":689,"o":"m 44 268 l 44 282 q 56 381 43 331 q 99 471 69 431 q 178 538 129 511 q 296 564 226 564 q 450 497 396 564 l 450 646 l 299 646 l 299 724 l 450 724 l 450 833 l 589 833 l 589 724 l 689 724 l 689 646 l 589 646 l 589 0 l 450 0 l 450 57 q 385 5 424 24 q 296 -14 347 -14 q 178 13 226 -14 q 101 79 131 39 q 58 170 71 119 q 44 268 44 221 m 450 165 l 450 389 q 410 444 438 421 q 325 468 382 468 l 324 468 q 249 444 276 468 q 206 390 221 421 q 188 326 192 358 q 183 276 183 293 l 183 274 q 188 224 183 257 q 206 160 192 192 q 249 106 221 129 q 325 82 278 82 q 410 108 382 82 q 450 165 438 133 z "},"é":{"ha":621,"x_min":32,"x_max":590,"o":"m 174 324 l 449 324 q 440 372 447 346 q 417 419 432 397 q 376 454 401 440 q 310 468 350 468 q 245 454 271 468 q 204 419 219 440 q 183 372 189 397 q 174 324 176 347 m 175 229 q 189 181 179 207 q 217 133 199 154 q 263 97 235 111 q 329 82 290 82 l 331 82 q 422 103 379 82 q 492 156 464 124 l 563 94 q 452 10 517 35 q 311 -14 388 -14 q 187 11 239 -14 q 100 76 135 36 q 49 167 65 117 q 32 268 32 217 l 32 282 q 49 385 32 335 q 100 476 65 436 q 187 540 135 515 q 311 564 239 564 q 444 538 390 564 q 531 471 499 511 q 576 381 563 431 q 590 282 590 331 l 590 268 q 590 249 590 258 q 589 229 590 239 l 175 229 m 254 668 q 269 690 253 668 q 307 739 286 713 q 363 810 331 771 l 538 810 l 376 668 l 254 668 z "},"ĕ":{"ha":621,"x_min":32,"x_max":590,"o":"m 174 324 l 449 324 q 440 372 447 346 q 417 419 432 397 q 376 454 401 440 q 310 468 350 468 q 245 454 271 468 q 204 419 219 440 q 183 372 189 397 q 174 324 176 347 m 175 229 q 189 181 179 207 q 217 133 199 154 q 263 97 235 111 q 329 82 290 82 l 331 82 q 422 103 379 82 q 492 156 464 124 l 563 94 q 452 10 517 35 q 311 -14 388 -14 q 187 11 239 -14 q 100 76 135 36 q 49 167 65 117 q 32 268 32 217 l 32 282 q 49 385 32 335 q 100 476 65 436 q 187 540 135 515 q 311 564 239 564 q 444 538 390 564 q 531 471 499 511 q 576 381 563 431 q 590 282 590 331 l 590 268 q 590 249 590 258 q 589 229 590 239 l 175 229 m 499 808 q 494 785 499 808 q 472 733 490 761 q 415 681 453 704 q 311 657 378 657 l 308 657 q 204 681 242 657 q 148 733 167 704 q 125 785 129 761 q 121 808 121 808 l 243 808 q 264 772 243 785 q 308 760 285 760 q 354 772 333 760 q 376 808 375 785 l 499 808 z "},"ě":{"ha":621,"x_min":32,"x_max":590,"o":"m 174 324 l 449 324 q 440 372 447 346 q 417 419 432 397 q 376 454 401 440 q 310 468 350 468 q 245 454 271 468 q 204 419 219 440 q 183 372 189 397 q 174 324 176 347 m 175 229 q 189 181 179 207 q 217 133 199 154 q 263 97 235 111 q 329 82 290 82 l 331 82 q 422 103 379 82 q 492 156 464 124 l 563 94 q 452 10 517 35 q 311 -14 388 -14 q 187 11 239 -14 q 100 76 135 36 q 49 167 65 117 q 32 268 32 217 l 32 282 q 49 385 32 335 q 100 476 65 436 q 187 540 135 515 q 311 564 239 564 q 444 538 390 564 q 531 471 499 511 q 576 381 563 431 q 590 282 590 331 l 590 268 q 590 249 590 258 q 589 229 590 239 l 175 229 m 117 808 l 239 808 l 313 747 l 385 808 l 507 808 l 351 667 l 261 667 q 202 719 229 693 q 156 764 175 744 q 126 796 136 783 q 117 808 115 808 z "},"ê":{"ha":621,"x_min":32,"x_max":590,"o":"m 174 324 l 449 324 q 440 372 447 346 q 417 419 432 397 q 376 454 401 440 q 310 468 350 468 q 245 454 271 468 q 204 419 219 440 q 183 372 189 397 q 174 324 176 347 m 175 229 q 189 181 179 207 q 217 133 199 154 q 263 97 235 111 q 329 82 290 82 l 331 82 q 422 103 379 82 q 492 156 464 124 l 563 94 q 452 10 517 35 q 311 -14 388 -14 q 187 11 239 -14 q 100 76 135 36 q 49 167 65 117 q 32 268 32 217 l 32 282 q 49 385 32 335 q 100 476 65 436 q 187 540 135 515 q 311 564 239 564 q 444 538 390 564 q 531 471 499 511 q 576 381 563 431 q 590 282 590 331 l 590 268 q 590 249 590 258 q 589 229 590 239 l 175 229 m 504 668 l 382 668 l 308 729 l 236 668 l 114 668 l 269 810 l 360 810 q 419 758 392 783 q 465 713 446 732 q 495 681 485 693 q 504 668 506 668 z "},"ë":{"ha":621,"x_min":32,"x_max":590,"o":"m 174 324 l 449 324 q 440 372 447 346 q 417 419 432 397 q 376 454 401 440 q 310 468 350 468 q 245 454 271 468 q 204 419 219 440 q 183 372 189 397 q 174 324 176 347 m 175 229 q 189 181 179 207 q 217 133 199 154 q 263 97 235 111 q 329 82 290 82 l 331 82 q 422 103 379 82 q 492 156 464 124 l 563 94 q 452 10 517 35 q 311 -14 388 -14 q 187 11 239 -14 q 100 76 135 36 q 49 167 65 117 q 32 268 32 217 l 32 282 q 49 385 32 335 q 100 476 65 436 q 187 540 135 515 q 311 564 239 564 q 444 538 390 564 q 531 471 499 511 q 576 381 563 431 q 590 282 590 331 l 590 268 q 590 249 590 258 q 589 229 590 239 l 175 229 m 143 672 l 143 811 l 282 811 l 282 672 l 143 672 m 338 672 l 338 811 l 476 811 l 476 672 l 338 672 z "},"ė":{"ha":621,"x_min":32,"x_max":590,"o":"m 174 324 l 449 324 q 440 372 447 346 q 417 419 432 397 q 376 454 401 440 q 310 468 350 468 q 245 454 271 468 q 204 419 219 440 q 183 372 189 397 q 174 324 176 347 m 175 229 q 189 181 179 207 q 217 133 199 154 q 263 97 235 111 q 329 82 290 82 l 331 82 q 422 103 379 82 q 492 156 464 124 l 563 94 q 452 10 517 35 q 311 -14 388 -14 q 187 11 239 -14 q 100 76 135 36 q 49 167 65 117 q 32 268 32 217 l 32 282 q 49 385 32 335 q 100 476 65 436 q 187 540 135 515 q 311 564 239 564 q 444 538 390 564 q 531 471 499 511 q 576 381 563 431 q 590 282 590 331 l 590 268 q 590 249 590 258 q 589 229 590 239 l 175 229 m 240 672 l 240 811 l 379 811 l 379 672 l 240 672 z "},"è":{"ha":621,"x_min":32,"x_max":590,"o":"m 174 324 l 449 324 q 440 372 447 346 q 417 419 432 397 q 376 454 401 440 q 310 468 350 468 q 245 454 271 468 q 204 419 219 440 q 183 372 189 397 q 174 324 176 347 m 175 229 q 189 181 179 207 q 217 133 199 154 q 263 97 235 111 q 329 82 290 82 l 331 82 q 422 103 379 82 q 492 156 464 124 l 563 94 q 452 10 517 35 q 311 -14 388 -14 q 187 11 239 -14 q 100 76 135 36 q 49 167 65 117 q 32 268 32 217 l 32 282 q 49 385 32 335 q 100 476 65 436 q 187 540 135 515 q 311 564 239 564 q 444 538 390 564 q 531 471 499 511 q 576 381 563 431 q 590 282 590 331 l 590 268 q 590 249 590 258 q 589 229 590 239 l 175 229 m 369 668 l 247 668 l 86 810 l 261 810 q 317 739 293 771 q 355 690 339 711 q 369 668 371 668 z "},"ē":{"ha":621,"x_min":32,"x_max":590,"o":"m 174 324 l 449 324 q 440 372 447 346 q 417 419 432 397 q 376 454 401 440 q 310 468 350 468 q 245 454 271 468 q 204 419 219 440 q 183 372 189 397 q 174 324 176 347 m 175 229 q 189 181 179 207 q 217 133 199 154 q 263 97 235 111 q 329 82 290 82 l 331 82 q 422 103 379 82 q 492 156 464 124 l 563 94 q 452 10 517 35 q 311 -14 388 -14 q 187 11 239 -14 q 100 76 135 36 q 49 167 65 117 q 32 268 32 217 l 32 282 q 49 385 32 335 q 100 476 65 436 q 187 540 135 515 q 311 564 239 564 q 444 538 390 564 q 531 471 499 511 q 576 381 563 431 q 590 282 590 331 l 590 268 q 590 249 590 258 q 589 229 590 239 l 175 229 m 103 665 l 103 754 l 518 754 l 518 665 l 103 665 z "},"ę":{"ha":621,"x_min":32,"x_max":590,"o":"m 174 324 l 449 324 q 440 372 447 346 q 417 419 432 397 q 376 454 401 440 q 310 468 350 468 q 245 454 271 468 q 204 419 219 440 q 183 372 189 397 q 174 324 176 347 m 175 229 q 189 181 179 207 q 217 133 199 154 q 263 97 235 111 q 329 82 290 82 l 331 82 q 422 103 379 82 q 492 156 464 124 l 563 94 q 452 10 517 35 q 311 -14 388 -14 q 187 11 239 -14 q 100 76 135 36 q 49 167 65 117 q 32 268 32 217 l 32 282 q 49 385 32 335 q 100 476 65 436 q 187 540 135 515 q 311 564 239 564 q 444 538 390 564 q 531 471 499 511 q 576 381 563 431 q 590 282 590 331 l 590 268 q 590 249 590 258 q 589 229 590 239 l 175 229 m 371 18 l 468 18 q 406 -49 431 -17 q 381 -121 381 -81 q 399 -169 381 -150 q 453 -187 417 -187 q 469 -187 461 -187 q 483 -186 476 -186 q 497 -185 490 -186 l 497 -265 q 472 -272 486 -269 q 445 -277 460 -275 q 413 -279 431 -279 q 306 -245 346 -279 q 267 -142 267 -211 q 278 -89 267 -114 q 305 -43 289 -64 q 339 -7 321 -22 q 371 18 357 8 z "},"ğ":{"ha":644,"x_min":43,"x_max":589,"o":"m 44 268 l 44 282 q 56 381 43 331 q 99 471 69 431 q 178 538 129 511 q 296 564 226 564 q 450 497 396 564 l 450 556 l 589 556 l 589 -28 q 567 -131 589 -86 q 509 -207 546 -176 q 424 -253 472 -237 q 319 -268 375 -268 q 261 -264 294 -268 q 192 -248 228 -260 q 124 -213 157 -236 q 64 -153 90 -190 l 140 -96 q 300 -161 206 -161 q 358 -155 331 -161 q 406 -131 385 -149 q 438 -83 426 -114 q 450 -3 450 -53 l 450 57 q 385 5 424 24 q 296 -14 347 -14 q 178 13 226 -14 q 101 79 131 39 q 58 170 71 119 q 44 268 44 221 m 450 165 l 450 389 q 410 444 438 421 q 325 468 382 468 l 324 468 q 249 444 276 468 q 206 390 221 421 q 188 326 192 358 q 183 276 183 293 l 183 274 q 188 224 183 257 q 206 160 192 192 q 249 106 221 129 q 325 82 278 82 q 410 108 382 82 q 450 165 438 133 m 511 808 q 507 785 511 808 q 484 733 503 761 q 428 681 465 704 q 324 657 390 657 l 321 657 q 217 681 254 657 q 160 733 179 704 q 138 785 142 761 q 133 808 133 808 l 256 808 q 276 772 256 785 q 321 760 297 760 q 367 772 346 760 q 389 808 388 785 l 511 808 z "},"ĝ":{"ha":644,"x_min":43,"x_max":589,"o":"m 44 268 l 44 282 q 56 381 43 331 q 99 471 69 431 q 178 538 129 511 q 296 564 226 564 q 450 497 396 564 l 450 556 l 589 556 l 589 -28 q 567 -131 589 -86 q 509 -207 546 -176 q 424 -253 472 -237 q 319 -268 375 -268 q 261 -264 294 -268 q 192 -248 228 -260 q 124 -213 157 -236 q 64 -153 90 -190 l 140 -96 q 300 -161 206 -161 q 358 -155 331 -161 q 406 -131 385 -149 q 438 -83 426 -114 q 450 -3 450 -53 l 450 57 q 385 5 424 24 q 296 -14 347 -14 q 178 13 226 -14 q 101 79 131 39 q 58 170 71 119 q 44 268 44 221 m 450 165 l 450 389 q 410 444 438 421 q 325 468 382 468 l 324 468 q 249 444 276 468 q 206 390 221 421 q 188 326 192 358 q 183 276 183 293 l 183 274 q 188 224 183 257 q 206 160 192 192 q 249 106 221 129 q 325 82 278 82 q 410 108 382 82 q 450 165 438 133 m 515 668 l 393 668 l 319 729 l 247 668 l 125 668 l 281 810 l 371 810 q 430 758 403 783 q 476 713 457 732 q 506 681 496 693 q 515 668 517 668 z "},"ģ":{"ha":644,"x_min":43,"x_max":589,"o":"m 44 268 l 44 282 q 56 381 43 331 q 99 471 69 431 q 178 538 129 511 q 296 564 226 564 q 450 497 396 564 l 450 556 l 589 556 l 589 -28 q 567 -131 589 -86 q 509 -207 546 -176 q 424 -253 472 -237 q 319 -268 375 -268 q 261 -264 294 -268 q 192 -248 228 -260 q 124 -213 157 -236 q 64 -153 90 -190 l 140 -96 q 300 -161 206 -161 q 358 -155 331 -161 q 406 -131 385 -149 q 438 -83 426 -114 q 450 -3 450 -53 l 450 57 q 385 5 424 24 q 296 -14 347 -14 q 178 13 226 -14 q 101 79 131 39 q 58 170 71 119 q 44 268 44 221 m 450 165 l 450 389 q 410 444 438 421 q 325 468 382 468 l 324 468 q 249 444 276 468 q 206 390 221 421 q 188 326 192 358 q 183 276 183 293 l 183 274 q 188 224 183 257 q 206 160 192 192 q 249 106 221 129 q 325 82 278 82 q 410 108 382 82 q 450 165 438 133 m 388 729 l 388 629 l 245 629 l 245 711 q 256 757 245 734 q 285 801 268 780 q 324 837 302 821 q 367 861 345 853 l 419 841 q 367 797 394 827 q 340 729 340 767 l 388 729 z "},"ġ":{"ha":644,"x_min":43,"x_max":589,"o":"m 44 268 l 44 282 q 56 381 43 331 q 99 471 69 431 q 178 538 129 511 q 296 564 226 564 q 450 497 396 564 l 450 556 l 589 556 l 589 -28 q 567 -131 589 -86 q 509 -207 546 -176 q 424 -253 472 -237 q 319 -268 375 -268 q 261 -264 294 -268 q 192 -248 228 -260 q 124 -213 157 -236 q 64 -153 90 -190 l 140 -96 q 300 -161 206 -161 q 358 -155 331 -161 q 406 -131 385 -149 q 438 -83 426 -114 q 450 -3 450 -53 l 450 57 q 385 5 424 24 q 296 -14 347 -14 q 178 13 226 -14 q 101 79 131 39 q 58 170 71 119 q 44 268 44 221 m 450 165 l 450 389 q 410 444 438 421 q 325 468 382 468 l 324 468 q 249 444 276 468 q 206 390 221 421 q 188 326 192 358 q 183 276 183 293 l 183 274 q 188 224 183 257 q 206 160 192 192 q 249 106 221 129 q 325 82 278 82 q 410 108 382 82 q 450 165 438 133 m 253 672 l 253 811 l 392 811 l 392 672 l 253 672 z "},"ħ":{"ha":579,"x_min":-37,"x_max":525,"o":"m 386 0 l 386 388 q 372 445 386 422 q 317 468 357 468 q 262 460 296 468 q 193 432 228 451 l 193 0 l 54 0 l 54 833 l 193 833 l 193 513 q 274 549 231 533 q 361 564 318 564 q 481 528 436 564 q 525 393 525 492 l 525 0 l 386 0 m -38 643 l -38 729 l 347 729 l 347 643 l -38 643 z "},"ĥ":{"ha":579,"x_min":-69,"x_max":526,"o":"m 388 0 l 388 388 q 373 445 388 422 q 318 468 358 468 q 263 460 297 468 q 194 432 229 451 l 194 0 l 56 0 l 56 833 l 194 833 l 194 513 q 276 549 232 533 q 363 564 319 564 q 482 528 438 564 q 526 393 526 492 l 526 0 l 388 0 m 321 897 l 199 897 l 125 958 l 53 897 l -69 897 l 86 1039 l 176 1039 q 235 987 208 1013 q 282 942 263 961 q 312 910 301 922 q 321 897 322 897 z "},"ı":{"ha":250,"x_min":56,"x_max":194,"o":"m 56 0 l 56 556 l 194 556 l 194 0 l 56 0 z "},"ȷ":{"ha":250,"x_min":-51,"x_max":194,"o":"m 56 -56 l 56 556 l 194 556 l 194 -56 q 149 -190 194 -126 q 38 -290 104 -254 l -51 -225 q 23 -155 -8 -199 q 56 -56 54 -111 z "},"í":{"ha":250,"x_min":56,"x_max":346,"o":"m 56 0 l 56 556 l 194 556 l 194 0 l 56 0 m 63 668 q 78 690 61 668 q 115 739 94 713 q 171 810 139 771 l 346 810 l 185 668 l 63 668 z "},"ĭ":{"ha":250,"x_min":-65,"x_max":313,"o":"m 54 0 l 54 556 l 193 556 l 193 0 l 54 0 m 313 808 q 308 785 313 808 q 285 733 304 761 q 229 681 267 704 q 125 657 192 657 l 122 657 q 18 681 56 657 q -38 733 -19 704 q -61 785 -57 761 q -65 808 -65 808 l 57 808 q 78 772 57 785 q 122 760 99 760 q 168 772 147 760 q 190 808 189 785 l 313 808 z "},"î":{"ha":250,"x_min":-71,"x_max":321,"o":"m 56 0 l 56 556 l 194 556 l 194 0 l 56 0 m 319 668 l 197 668 l 124 729 l 51 668 l -71 668 l 85 810 l 175 810 q 234 758 207 783 q 281 713 261 732 q 310 681 300 693 q 319 668 321 668 z "},"ï":{"ha":250,"x_min":-42,"x_max":292,"o":"m 56 0 l 56 556 l 194 556 l 194 0 l 56 0 m -42 672 l -42 811 l 97 811 l 97 672 l -42 672 m 153 672 l 153 811 l 292 811 l 292 672 l 153 672 z "},"ì":{"ha":250,"x_min":-90,"x_max":194,"o":"m 56 0 l 56 556 l 194 556 l 194 0 l 56 0 m 193 668 l 71 668 l -90 810 l 85 810 q 140 739 117 771 q 178 690 163 711 q 193 668 194 668 z "},"ī":{"ha":250,"x_min":-82,"x_max":333,"o":"m 56 0 l 56 556 l 194 556 l 194 0 l 56 0 m -82 665 l -82 754 l 333 754 l 333 665 l -82 665 z "},"į":{"ha":250,"x_min":-8,"x_max":222,"o":"m 56 0 l 56 556 l 194 556 l 194 0 l 56 0 m 56 639 l 56 778 l 194 778 l 194 639 l 56 639 m 96 7 l 193 7 q 131 -60 156 -28 q 106 -132 106 -92 q 124 -180 106 -161 q 178 -199 142 -199 q 194 -198 186 -199 q 208 -197 201 -197 q 222 -196 215 -197 l 222 -276 q 197 -283 211 -281 q 170 -288 185 -286 q 138 -290 156 -290 q 31 -256 71 -290 q -8 -153 -8 -222 q 3 -100 -8 -125 q 30 -54 14 -75 q 64 -18 46 -33 q 96 7 82 -3 z "},"ĩ":{"ha":250,"x_min":-118,"x_max":367,"o":"m 54 0 l 54 556 l 193 556 l 193 0 l 54 0 m 367 774 q 358 758 367 774 q 328 722 349 742 q 277 687 308 703 q 201 671 246 671 q 147 677 168 671 q 109 692 126 683 q 74 706 92 700 q 26 713 56 713 q -10 705 6 713 q -37 689 -26 697 q -60 664 -50 678 q -89 686 -75 676 q -109 701 -100 694 q -118 707 -118 707 q -109 723 -118 707 q -80 758 -100 739 q -28 794 -60 778 q 47 810 4 810 q 97 803 76 810 q 135 789 117 797 q 173 774 153 781 q 221 768 193 768 q 258 776 242 768 q 286 793 275 783 q 308 817 299 803 q 338 794 324 804 q 358 780 349 786 q 367 774 367 774 z "},"ĳ":{"ha":500,"x_min":56,"x_max":444,"o":"m 56 0 l 56 556 l 194 556 l 194 0 l 56 0 m 56 639 l 56 778 l 194 778 l 194 639 l 56 639 m 306 -56 l 306 556 l 444 556 l 444 -56 q 399 -190 444 -126 q 288 -290 354 -254 l 199 -225 q 273 -155 242 -199 q 306 -56 304 -111 m 306 639 l 306 778 l 444 778 l 444 639 l 306 639 z "},"ĵ":{"ha":250,"x_min":-71,"x_max":321,"o":"m 56 -56 l 56 556 l 194 556 l 194 -56 q 149 -190 194 -126 q 38 -290 104 -254 l -51 -225 q 23 -155 -8 -199 q 56 -56 54 -111 m 319 668 l 197 668 l 124 729 l 51 668 l -71 668 l 85 810 l 175 810 q 234 758 207 783 q 281 713 261 732 q 310 681 300 693 q 319 668 321 668 z "},"":{"ha":196,"x_min":14,"x_max":182,"o":"m 43 -208 l 43 -69 l 182 -69 l 182 -183 q 171 -247 182 -215 q 143 -308 160 -279 q 106 -358 126 -336 q 64 -392 85 -381 l 14 -364 q 64 -303 38 -344 q 90 -208 90 -261 l 43 -208 z "},"ķ":{"ha":588,"x_min":56,"x_max":571,"o":"m 543 556 l 363 301 l 571 0 l 417 0 l 238 260 l 194 246 l 194 0 l 56 0 l 56 833 l 194 833 l 194 328 l 208 332 q 257 369 238 342 l 389 556 l 543 556 m 239 -208 l 239 -69 l 378 -69 l 378 -183 q 367 -247 378 -215 q 339 -308 356 -279 q 301 -358 322 -336 q 260 -392 281 -381 l 210 -364 q 260 -303 233 -344 q 286 -208 286 -261 l 239 -208 z "},"ĸ":{"ha":588,"x_min":56,"x_max":571,"o":"m 543 556 l 363 301 l 571 0 l 417 0 l 238 260 l 194 246 l 194 0 l 56 0 l 56 556 l 194 556 l 194 328 l 208 332 q 257 369 238 342 l 389 556 l 543 556 z "},"ĺ":{"ha":250,"x_min":56,"x_max":343,"o":"m 56 0 l 56 833 l 194 833 l 194 0 l 56 0 m 60 886 q 75 908 58 886 q 113 957 92 931 q 168 1028 136 989 l 343 1028 l 182 886 l 60 886 z "},"ľ":{"ha":428,"x_min":56,"x_max":393,"o":"m 56 0 l 56 833 l 194 833 l 194 0 l 56 0 m 254 697 l 254 836 l 393 836 l 393 722 q 382 659 393 692 q 354 598 371 626 q 317 547 338 569 q 275 514 296 525 l 225 542 q 275 603 249 561 q 301 697 301 644 l 254 697 z "},"ļ":{"ha":250,"x_min":40,"x_max":208,"o":"m 56 0 l 56 833 l 194 833 l 194 0 l 56 0 m 69 -208 l 69 -69 l 208 -69 l 208 -183 q 197 -247 208 -215 q 169 -308 186 -279 q 132 -358 153 -336 q 90 -392 111 -381 l 40 -364 q 90 -303 64 -344 q 117 -208 117 -261 l 69 -208 z "},"_":{"ha":704,"x_min":-12,"x_max":715,"o":"m -12 -256 l 715 -256 l 715 -175 l -12 -175 l -12 -256 z "},"ŀ":{"ha":446,"x_min":56,"x_max":389,"o":"m 56 0 l 56 833 l 194 833 l 194 0 l 56 0 m 250 363 l 250 501 l 389 501 l 389 363 l 250 363 z "},"ł":{"ha":357,"x_min":14,"x_max":343,"o":"m 108 0 l 108 326 l 14 258 l 14 361 l 108 429 l 108 833 l 247 833 l 247 529 l 343 597 l 343 494 l 247 426 l 247 0 l 108 0 z "},"ń":{"ha":579,"x_min":56,"x_max":526,"o":"m 388 0 l 388 388 q 373 445 388 422 q 318 468 358 468 q 263 460 297 468 q 194 432 229 451 l 194 0 l 56 0 l 56 556 l 194 556 l 194 513 q 276 549 232 533 q 363 564 319 564 q 482 528 438 564 q 526 393 526 492 l 526 0 l 388 0 m 229 668 q 244 690 228 668 q 282 739 261 713 q 338 810 306 771 l 513 810 l 351 668 l 229 668 z "},"ŉ":{"ha":739,"x_min":26,"x_max":686,"o":"m 547 0 l 547 388 q 533 445 547 422 q 478 468 518 468 q 423 460 457 468 q 354 432 389 451 l 354 0 l 215 0 l 215 556 l 354 556 l 354 513 q 435 549 392 533 q 522 564 479 564 q 642 528 597 564 q 686 393 686 492 l 686 0 l 547 0 m 56 629 l 56 768 l 194 768 l 194 654 q 183 590 194 622 q 156 530 172 558 q 118 479 139 501 q 76 446 97 457 l 26 474 q 76 535 50 493 q 103 629 103 576 l 56 629 z "},"ň":{"ha":579,"x_min":56,"x_max":526,"o":"m 388 0 l 388 388 q 373 445 388 422 q 318 468 358 468 q 263 460 297 468 q 194 432 229 451 l 194 0 l 56 0 l 56 556 l 194 556 l 194 513 q 276 549 232 533 q 363 564 319 564 q 482 528 438 564 q 526 393 526 492 l 526 0 l 388 0 m 96 808 l 218 808 l 292 747 l 364 808 l 486 808 l 331 667 l 240 667 q 181 719 208 693 q 135 764 154 744 q 105 796 115 783 q 96 808 94 808 z "},"ņ":{"ha":579,"x_min":56,"x_max":526,"o":"m 388 0 l 388 388 q 373 445 388 422 q 318 468 358 468 q 263 460 297 468 q 194 432 229 451 l 194 0 l 56 0 l 56 556 l 194 556 l 194 513 q 276 549 232 533 q 363 564 319 564 q 482 528 438 564 q 526 393 526 492 l 526 0 l 388 0 m 235 -208 l 235 -69 l 374 -69 l 374 -183 q 363 -247 374 -215 q 335 -308 351 -279 q 297 -358 318 -336 q 256 -392 276 -381 l 206 -364 q 256 -303 229 -344 q 282 -208 282 -261 l 235 -208 z "},"ñ":{"ha":579,"x_min":46,"x_max":531,"o":"m 386 0 l 386 388 q 372 445 386 422 q 317 468 357 468 q 262 460 296 468 q 193 432 228 451 l 193 0 l 54 0 l 54 556 l 193 556 l 193 513 q 274 549 231 533 q 361 564 318 564 q 481 528 436 564 q 525 393 525 492 l 525 0 l 386 0 m 531 774 q 522 758 531 774 q 492 722 513 742 q 441 687 472 703 q 365 671 410 671 q 311 677 332 671 q 273 692 290 683 q 238 706 256 700 q 190 713 219 713 q 153 705 169 713 q 126 689 138 697 q 104 664 114 678 q 75 686 89 676 q 55 701 64 694 q 46 707 46 707 q 55 723 46 707 q 84 758 64 739 q 136 794 104 778 q 211 810 168 810 q 260 803 240 810 q 299 789 281 797 q 337 774 317 781 q 385 768 357 768 q 422 776 406 768 q 450 793 439 783 q 472 817 463 803 q 501 794 488 804 q 522 780 513 786 q 531 774 531 774 z "},"^":{"ha":585,"x_min":21,"x_max":557,"o":"m 318 810 l 557 474 l 435 474 l 289 685 l 143 474 l 21 474 l 260 810 l 318 810 z "},"ó":{"ha":631,"x_min":32,"x_max":592,"o":"m 590 268 q 578 170 592 221 q 531 79 564 119 q 444 13 499 39 q 311 -14 390 -14 q 178 13 232 -14 q 92 79 124 39 q 46 170 60 119 q 32 268 32 221 l 32 282 q 46 381 32 331 q 92 471 60 431 q 178 538 124 511 q 311 564 232 564 q 444 538 390 564 q 531 471 499 511 q 576 381 563 431 q 590 282 590 331 l 590 268 m 171 276 l 171 274 q 173 224 171 257 q 188 160 175 192 q 230 106 201 129 q 310 82 258 82 l 311 82 q 392 106 364 82 q 433 160 419 129 q 449 224 447 192 q 451 274 451 257 l 451 276 q 449 326 451 293 q 433 390 447 358 q 391 444 419 421 q 310 468 363 468 q 230 444 258 468 q 188 390 201 421 q 173 326 175 358 q 171 276 171 293 m 258 668 q 274 690 257 668 q 311 739 290 713 q 367 810 335 771 l 542 810 l 381 668 l 258 668 z "},"ŏ":{"ha":631,"x_min":32,"x_max":592,"o":"m 590 268 q 578 170 592 221 q 531 79 564 119 q 444 13 499 39 q 311 -14 390 -14 q 178 13 232 -14 q 92 79 124 39 q 46 170 60 119 q 32 268 32 221 l 32 282 q 46 381 32 331 q 92 471 60 431 q 178 538 124 511 q 311 564 232 564 q 444 538 390 564 q 531 471 499 511 q 576 381 563 431 q 590 282 590 331 l 590 268 m 171 276 l 171 274 q 173 224 171 257 q 188 160 175 192 q 230 106 201 129 q 310 82 258 82 l 311 82 q 392 106 364 82 q 433 160 419 129 q 449 224 447 192 q 451 274 451 257 l 451 276 q 449 326 451 293 q 433 390 447 358 q 391 444 419 421 q 310 468 363 468 q 230 444 258 468 q 188 390 201 421 q 173 326 175 358 q 171 276 171 293 m 504 808 q 500 785 504 808 q 477 733 496 761 q 421 681 458 704 q 317 657 383 657 l 314 657 q 210 681 247 657 q 153 733 172 704 q 131 785 135 761 q 126 808 126 808 l 249 808 q 269 772 249 785 q 314 760 290 760 q 360 772 339 760 q 382 808 381 785 l 504 808 z "},"ô":{"ha":631,"x_min":32,"x_max":592,"o":"m 590 268 q 578 170 592 221 q 531 79 564 119 q 444 13 499 39 q 311 -14 390 -14 q 178 13 232 -14 q 92 79 124 39 q 46 170 60 119 q 32 268 32 221 l 32 282 q 46 381 32 331 q 92 471 60 431 q 178 538 124 511 q 311 564 232 564 q 444 538 390 564 q 531 471 499 511 q 576 381 563 431 q 590 282 590 331 l 590 268 m 171 276 l 171 274 q 173 224 171 257 q 188 160 175 192 q 230 106 201 129 q 310 82 258 82 l 311 82 q 392 106 364 82 q 433 160 419 129 q 449 224 447 192 q 451 274 451 257 l 451 276 q 449 326 451 293 q 433 390 447 358 q 391 444 419 421 q 310 468 363 468 q 230 444 258 468 q 188 390 201 421 q 173 326 175 358 q 171 276 171 293 m 508 668 l 386 668 l 313 729 l 240 668 l 118 668 l 274 810 l 364 810 q 423 758 396 783 q 469 713 450 732 q 499 681 489 693 q 508 668 510 668 z "},"ò":{"ha":631,"x_min":32,"x_max":592,"o":"m 590 268 q 578 170 592 221 q 531 79 564 119 q 444 13 499 39 q 311 -14 390 -14 q 178 13 232 -14 q 92 79 124 39 q 46 170 60 119 q 32 268 32 221 l 32 282 q 46 381 32 331 q 92 471 60 431 q 178 538 124 511 q 311 564 232 564 q 444 538 390 564 q 531 471 499 511 q 576 381 563 431 q 590 282 590 331 l 590 268 m 171 276 l 171 274 q 173 224 171 257 q 188 160 175 192 q 230 106 201 129 q 310 82 258 82 l 311 82 q 392 106 364 82 q 433 160 419 129 q 449 224 447 192 q 451 274 451 257 l 451 276 q 449 326 451 293 q 433 390 447 358 q 391 444 419 421 q 310 468 363 468 q 230 444 258 468 q 188 390 201 421 q 173 326 175 358 q 171 276 171 293 m 371 668 l 249 668 l 88 810 l 263 810 q 318 739 294 771 q 356 690 340 711 q 371 668 372 668 z "},"ő":{"ha":631,"x_min":32,"x_max":647,"o":"m 590 268 q 578 170 592 221 q 531 79 564 119 q 444 13 499 39 q 311 -14 390 -14 q 178 13 232 -14 q 92 79 124 39 q 46 170 60 119 q 32 268 32 221 l 32 282 q 46 381 32 331 q 92 471 60 431 q 178 538 124 511 q 311 564 232 564 q 444 538 390 564 q 531 471 499 511 q 576 381 563 431 q 590 282 590 331 l 590 268 m 171 276 l 171 274 q 173 224 171 257 q 188 160 175 192 q 230 106 201 129 q 310 82 258 82 l 311 82 q 392 106 364 82 q 433 160 419 129 q 449 224 447 192 q 451 274 451 257 l 451 276 q 449 326 451 293 q 433 390 447 358 q 391 444 419 421 q 310 468 363 468 q 230 444 258 468 q 188 390 201 421 q 173 326 175 358 q 171 276 171 293 m 153 668 q 168 690 151 668 q 206 739 185 713 q 261 810 229 771 l 436 810 l 275 668 l 153 668 m 364 668 q 379 690 363 668 q 417 739 396 713 q 472 810 440 771 l 647 810 l 486 668 l 364 668 z "},"ō":{"ha":631,"x_min":32,"x_max":592,"o":"m 590 268 q 578 170 592 221 q 531 79 564 119 q 444 13 499 39 q 311 -14 390 -14 q 178 13 232 -14 q 92 79 124 39 q 46 170 60 119 q 32 268 32 221 l 32 282 q 46 381 32 331 q 92 471 60 431 q 178 538 124 511 q 311 564 232 564 q 444 538 390 564 q 531 471 499 511 q 576 381 563 431 q 590 282 590 331 l 590 268 m 171 276 l 171 274 q 173 224 171 257 q 188 160 175 192 q 230 106 201 129 q 310 82 258 82 l 311 82 q 392 106 364 82 q 433 160 419 129 q 449 224 447 192 q 451 274 451 257 l 451 276 q 449 326 451 293 q 433 390 447 358 q 391 444 419 421 q 310 468 363 468 q 230 444 258 468 q 188 390 201 421 q 173 326 175 358 q 171 276 171 293 m 107 665 l 107 754 l 522 754 l 522 665 l 107 665 z "},"ø":{"ha":631,"x_min":32,"x_max":596,"o":"m 590 268 q 578 170 592 221 q 531 79 564 119 q 444 13 499 39 q 311 -14 390 -14 q 224 -4 263 -14 q 157 24 186 6 l 138 0 l 32 0 l 94 76 q 47 168 61 117 q 32 268 32 219 l 32 282 q 46 381 32 331 q 92 471 60 431 q 178 538 124 511 q 311 564 232 564 q 399 554 360 564 q 467 526 438 544 l 490 554 l 596 554 l 529 474 q 576 381 563 432 q 590 282 590 331 l 590 268 m 442 367 l 226 108 q 310 82 260 82 l 311 82 q 392 106 364 82 q 433 160 419 129 q 449 224 447 192 q 451 274 451 257 l 451 276 q 450 316 451 292 q 442 367 449 340 m 171 276 l 171 274 q 172 233 171 258 q 182 181 174 208 l 396 440 q 360 460 381 453 q 310 468 339 468 q 230 444 258 468 q 188 390 201 421 q 173 326 175 358 q 171 276 171 293 z "},"ǿ":{"ha":631,"x_min":32,"x_max":596,"o":"m 590 268 q 578 170 592 221 q 531 79 564 119 q 444 13 499 39 q 311 -14 390 -14 q 224 -4 263 -14 q 157 24 186 6 l 138 0 l 32 0 l 94 76 q 47 168 61 117 q 32 268 32 219 l 32 282 q 46 381 32 331 q 92 471 60 431 q 178 538 124 511 q 311 564 232 564 q 399 554 360 564 q 467 526 438 544 l 490 554 l 596 554 l 529 474 q 576 381 563 432 q 590 282 590 331 l 590 268 m 442 367 l 226 108 q 310 82 260 82 l 311 82 q 392 106 364 82 q 433 160 419 129 q 449 224 447 192 q 451 274 451 257 l 451 276 q 450 316 451 292 q 442 367 449 340 m 171 276 l 171 274 q 172 233 171 258 q 182 181 174 208 l 396 440 q 360 460 381 453 q 310 468 339 468 q 230 444 258 468 q 188 390 201 421 q 173 326 175 358 q 171 276 171 293 m 244 668 q 260 690 243 668 q 297 739 276 713 q 353 810 321 771 l 528 810 l 367 668 l 278 668 l 244 668 z "},"õ":{"ha":631,"x_min":32,"x_max":592,"o":"m 590 268 q 578 170 592 221 q 531 79 564 119 q 444 13 499 39 q 311 -14 390 -14 q 178 13 232 -14 q 92 79 124 39 q 46 170 60 119 q 32 268 32 221 l 32 282 q 46 381 32 331 q 92 471 60 431 q 178 538 124 511 q 311 564 232 564 q 444 538 390 564 q 531 471 499 511 q 576 381 563 431 q 590 282 590 331 l 590 268 m 171 276 l 171 274 q 173 224 171 257 q 188 160 175 192 q 230 106 201 129 q 310 82 258 82 l 311 82 q 392 106 364 82 q 433 160 419 129 q 449 224 447 192 q 451 274 451 257 l 451 276 q 449 326 451 293 q 433 390 447 358 q 391 444 419 421 q 310 468 363 468 q 230 444 258 468 q 188 390 201 421 q 173 326 175 358 q 171 276 171 293 m 557 774 q 548 758 557 774 q 519 722 539 742 q 467 687 499 703 q 392 671 436 671 q 338 677 358 671 q 299 692 317 683 q 264 706 282 700 q 217 713 246 713 q 180 705 196 713 q 153 689 164 697 q 131 664 140 678 q 101 686 115 676 q 81 701 90 694 q 72 707 72 707 q 81 723 72 707 q 110 758 90 739 q 163 794 131 778 q 238 810 194 810 q 287 803 267 810 q 325 789 307 797 q 363 774 343 781 q 411 768 383 768 q 449 776 432 768 q 476 793 465 783 q 499 817 489 803 q 528 794 514 804 q 548 780 539 786 q 557 774 557 774 z "},"œ":{"ha":1050,"x_min":32,"x_max":1011,"o":"m 590 268 q 578 170 592 221 q 531 79 564 119 q 444 13 499 39 q 311 -14 390 -14 q 178 13 232 -14 q 92 79 124 39 q 46 170 60 119 q 32 268 32 221 l 32 282 q 46 381 32 331 q 92 471 60 431 q 178 538 124 511 q 311 564 232 564 q 444 538 390 564 q 531 471 499 511 q 576 381 563 431 q 590 282 590 331 l 590 268 m 171 276 l 171 274 q 173 224 171 257 q 188 160 175 192 q 230 106 201 129 q 310 82 258 82 l 311 82 q 392 106 364 82 q 433 160 419 129 q 449 224 447 192 q 451 274 451 257 l 451 276 q 449 326 451 293 q 433 390 447 358 q 391 444 419 421 q 310 468 363 468 q 230 444 258 468 q 188 390 201 421 q 173 326 175 358 q 171 276 171 293 m 594 324 l 869 324 q 860 372 868 346 q 838 419 853 397 q 797 454 822 440 q 731 468 771 468 q 666 454 692 468 q 625 419 640 440 q 603 372 610 397 q 594 324 597 347 m 596 229 q 610 181 600 207 q 638 133 619 154 q 683 97 656 111 q 750 82 711 82 l 751 82 q 842 103 800 82 q 913 156 885 124 l 983 94 q 873 10 938 35 q 732 -14 808 -14 q 608 11 660 -14 q 521 76 556 36 q 469 167 486 117 q 453 268 453 217 l 453 282 q 469 385 453 335 q 521 476 486 436 q 608 540 556 515 q 732 564 660 564 q 865 538 811 564 q 951 471 919 511 q 997 381 983 431 q 1011 282 1011 331 l 1011 268 q 1011 249 1011 258 q 1010 229 1011 239 l 596 229 z "},"ŕ":{"ha":414,"x_min":56,"x_max":458,"o":"m 389 564 l 389 465 l 367 465 q 281 453 322 464 q 194 407 239 443 l 194 0 l 56 0 l 56 556 l 194 556 l 194 492 q 238 522 214 508 q 285 545 261 536 q 332 559 310 554 q 371 564 354 564 l 389 564 m 175 668 q 190 690 174 668 q 228 739 207 713 q 283 810 251 771 l 458 810 l 297 668 l 175 668 z "},"ř":{"ha":414,"x_min":13,"x_max":404,"o":"m 389 564 l 389 465 l 367 465 q 281 453 322 464 q 194 407 239 443 l 194 0 l 56 0 l 56 556 l 194 556 l 194 492 q 238 522 214 508 q 285 545 261 536 q 332 559 310 554 q 371 564 354 564 l 389 564 m 14 808 l 136 808 l 210 747 l 282 808 l 404 808 l 249 667 l 158 667 q 99 719 126 693 q 53 764 72 744 q 23 796 33 783 q 14 808 13 808 z "},"ŗ":{"ha":414,"x_min":28,"x_max":389,"o":"m 389 564 l 389 465 l 367 465 q 281 453 322 464 q 194 407 239 443 l 194 0 l 56 0 l 56 556 l 194 556 l 194 492 q 238 522 214 508 q 285 545 261 536 q 332 559 310 554 q 371 564 354 564 l 389 564 m 57 -208 l 57 -69 l 196 -69 l 196 -183 q 185 -247 196 -215 q 157 -308 174 -279 q 119 -358 140 -336 q 78 -392 99 -381 l 28 -364 q 78 -303 51 -344 q 104 -208 104 -261 l 57 -208 z "},"ś":{"ha":503,"x_min":17,"x_max":469,"o":"m 331 147 q 309 183 331 167 q 251 210 288 199 q 88 285 143 244 q 32 393 32 325 q 49 467 32 435 q 96 520 65 499 q 167 553 126 542 q 257 564 208 564 q 378 539 326 564 q 449 490 429 514 l 386 419 q 331 458 367 447 q 268 468 294 468 q 171 401 171 468 q 194 365 171 381 q 250 338 218 349 q 344 305 303 321 q 413 269 385 289 q 455 222 440 249 q 469 156 469 194 q 451 82 469 114 q 401 28 433 50 q 326 -4 369 7 q 231 -15 282 -15 q 97 10 146 -15 q 17 63 49 36 l 68 142 q 105 113 83 125 q 149 94 126 101 q 192 84 171 88 q 225 81 213 81 q 306 97 282 81 q 331 147 331 113 m 175 668 q 190 690 174 668 q 228 739 207 713 q 283 810 251 771 l 458 810 l 297 668 l 175 668 z "},"š":{"ha":503,"x_min":17,"x_max":469,"o":"m 331 147 q 309 183 331 167 q 251 210 288 199 q 88 285 143 244 q 32 393 32 325 q 49 467 32 435 q 96 520 65 499 q 167 553 126 542 q 257 564 208 564 q 378 539 326 564 q 449 490 429 514 l 386 419 q 331 458 367 447 q 268 468 294 468 q 171 401 171 468 q 194 365 171 381 q 250 338 218 349 q 344 305 303 321 q 413 269 385 289 q 455 222 440 249 q 469 156 469 194 q 451 82 469 114 q 401 28 433 50 q 326 -4 369 7 q 231 -15 282 -15 q 97 10 146 -15 q 17 63 49 36 l 68 142 q 105 113 83 125 q 149 94 126 101 q 192 84 171 88 q 225 81 213 81 q 306 97 282 81 q 331 147 331 113 m 57 808 l 179 808 l 253 747 l 325 808 l 447 808 l 292 667 l 201 667 q 142 719 169 693 q 96 764 115 744 q 66 796 76 783 q 57 808 56 808 z "},"ş":{"ha":503,"x_min":17,"x_max":469,"o":"m 331 147 q 309 183 331 167 q 251 210 288 199 q 88 285 143 244 q 32 393 32 325 q 49 467 32 435 q 96 520 65 499 q 167 553 126 542 q 257 564 208 564 q 378 539 326 564 q 449 490 429 514 l 386 419 q 331 458 367 447 q 268 468 294 468 q 171 401 171 468 q 194 365 171 381 q 250 338 218 349 q 344 305 303 321 q 413 269 385 289 q 455 222 440 249 q 469 156 469 194 q 451 82 469 114 q 401 28 433 50 q 326 -4 369 7 q 231 -15 282 -15 q 97 10 146 -15 q 17 63 49 36 l 68 142 q 105 113 83 125 q 149 94 126 101 q 192 84 171 88 q 225 81 213 81 q 306 97 282 81 q 331 147 331 113 m 186 7 l 283 7 l 249 -61 q 311 -76 283 -64 q 355 -110 336 -87 q 374 -174 374 -132 q 354 -244 374 -218 q 306 -284 335 -269 q 243 -303 276 -299 q 183 -307 210 -307 q 161 -306 171 -307 q 144 -306 151 -306 q 129 -304 136 -306 l 129 -224 q 143 -226 135 -225 q 158 -227 150 -226 q 175 -228 165 -228 q 231 -217 203 -228 q 260 -174 260 -207 q 240 -135 260 -146 q 194 -124 221 -124 q 161 -128 178 -124 l 136 -93 q 150 -64 142 -81 q 167 -32 158 -47 q 181 -6 175 -17 q 186 7 186 6 z "},"ŝ":{"ha":503,"x_min":17,"x_max":469,"o":"m 331 147 q 309 183 331 167 q 251 210 288 199 q 88 285 143 244 q 32 393 32 325 q 49 467 32 435 q 96 520 65 499 q 167 553 126 542 q 257 564 208 564 q 378 539 326 564 q 449 490 429 514 l 386 419 q 331 458 367 447 q 268 468 294 468 q 171 401 171 468 q 194 365 171 381 q 250 338 218 349 q 344 305 303 321 q 413 269 385 289 q 455 222 440 249 q 469 156 469 194 q 451 82 469 114 q 401 28 433 50 q 326 -4 369 7 q 231 -15 282 -15 q 97 10 146 -15 q 17 63 49 36 l 68 142 q 105 113 83 125 q 149 94 126 101 q 192 84 171 88 q 225 81 213 81 q 306 97 282 81 q 331 147 331 113 m 444 668 l 322 668 l 249 729 l 176 668 l 54 668 l 210 810 l 300 810 q 359 758 332 783 q 406 713 386 732 q 435 681 425 693 q 444 668 446 668 z "},"ș":{"ha":503,"x_min":17,"x_max":469,"o":"m 331 147 q 309 183 331 167 q 251 210 288 199 q 88 285 143 244 q 32 393 32 325 q 49 467 32 435 q 96 520 65 499 q 167 553 126 542 q 257 564 208 564 q 378 539 326 564 q 449 490 429 514 l 386 419 q 331 458 367 447 q 268 468 294 468 q 171 401 171 468 q 194 365 171 381 q 250 338 218 349 q 344 305 303 321 q 413 269 385 289 q 455 222 440 249 q 469 156 469 194 q 451 82 469 114 q 401 28 433 50 q 326 -4 369 7 q 231 -15 282 -15 q 97 10 146 -15 q 17 63 49 36 l 68 142 q 105 113 83 125 q 149 94 126 101 q 192 84 171 88 q 225 81 213 81 q 306 97 282 81 q 331 147 331 113 m 178 -208 l 178 -69 l 317 -69 l 317 -183 q 306 -247 317 -215 q 278 -308 294 -279 q 240 -358 261 -336 q 199 -392 219 -381 l 149 -364 q 199 -303 172 -344 q 225 -208 225 -261 l 178 -208 z "},"Ă":{"ha":733,"x_min":14,"x_max":726,"o":"m 444 819 l 299 819 l 14 0 l 157 0 l 225 204 l 515 204 l 583 0 l 726 0 l 444 819 m 369 639 l 482 301 l 257 301 l 369 639 m 556 1038 q 551 1014 556 1038 q 528 962 547 990 q 472 910 510 933 q 368 886 435 886 l 365 886 q 261 910 299 886 q 205 962 224 933 q 182 1014 186 990 q 178 1038 178 1038 l 300 1038 q 321 1001 300 1014 q 365 989 342 989 q 411 1001 390 989 q 433 1038 432 1014 l 556 1038 z "},"Â":{"ha":733,"x_min":14,"x_max":726,"o":"m 444 819 l 299 819 l 14 0 l 157 0 l 225 204 l 515 204 l 583 0 l 726 0 l 444 819 m 369 639 l 482 301 l 257 301 l 369 639 m 560 886 l 438 886 l 364 947 l 292 886 l 169 886 l 325 1028 l 415 1028 q 474 976 447 1001 q 521 931 501 950 q 551 899 540 911 q 560 886 561 886 z "},"À":{"ha":733,"x_min":14,"x_max":726,"o":"m 444 819 l 299 819 l 14 0 l 157 0 l 225 204 l 515 204 l 583 0 l 726 0 l 444 819 m 369 639 l 482 301 l 257 301 l 369 639 m 447 904 l 325 904 l 164 1046 l 339 1046 q 394 975 371 1007 q 433 926 417 947 q 447 904 449 904 z "},"Ä":{"ha":733,"x_min":14,"x_max":726,"o":"m 444 819 l 299 819 l 14 0 l 157 0 l 225 204 l 515 204 l 583 0 l 726 0 l 444 819 m 369 639 l 482 301 l 257 301 l 369 639 m 200 901 l 200 1040 l 339 1040 l 339 901 l 200 901 m 394 901 l 394 1040 l 533 1040 l 533 901 l 394 901 z "},"Ā":{"ha":733,"x_min":14,"x_max":726,"o":"m 444 819 l 299 819 l 14 0 l 157 0 l 225 204 l 515 204 l 583 0 l 726 0 l 444 819 m 369 639 l 482 301 l 257 301 l 369 639 m 158 929 l 158 1018 l 574 1018 l 574 929 l 158 929 z "},"Ą":{"ha":733,"x_min":14,"x_max":726,"o":"m 444 819 l 299 819 l 14 0 l 157 0 l 225 204 l 515 204 l 583 0 l 726 0 l 444 819 m 369 639 l 482 301 l 257 301 l 369 639 m 600 7 l 697 7 q 635 -60 660 -28 q 610 -132 610 -92 q 628 -180 610 -161 q 682 -199 646 -199 q 698 -198 690 -199 q 713 -197 706 -197 q 726 -196 719 -197 l 726 -276 q 701 -283 715 -281 q 674 -288 689 -286 q 642 -290 660 -290 q 535 -256 575 -290 q 496 -153 496 -222 q 507 -100 496 -125 q 534 -54 518 -75 q 568 -18 550 -33 q 600 7 586 -3 z "},"Å":{"ha":733,"x_min":14,"x_max":726,"o":"m 444 819 l 299 819 l 14 0 l 157 0 l 225 204 l 515 204 l 583 0 l 726 0 l 444 819 m 369 639 l 482 301 l 257 301 l 369 639 m 218 992 q 230 1049 218 1022 q 262 1095 242 1075 q 309 1126 282 1115 q 367 1138 336 1138 q 424 1126 397 1138 q 472 1095 451 1115 q 503 1049 492 1075 q 515 992 515 1022 q 503 936 515 963 q 472 890 492 910 q 424 858 451 869 q 367 847 397 847 q 309 858 336 847 q 262 890 282 869 q 230 936 242 910 q 218 992 218 963 m 304 990 q 322 947 304 964 q 367 931 340 931 q 412 947 393 931 q 431 990 431 964 q 412 1035 431 1017 q 367 1054 393 1054 q 322 1035 340 1054 q 304 990 304 1017 z "},"Ã":{"ha":733,"x_min":14,"x_max":726,"o":"m 444 819 l 299 819 l 14 0 l 157 0 l 225 204 l 515 204 l 583 0 l 726 0 l 444 819 m 369 639 l 482 301 l 257 301 l 369 639 m 608 1000 q 599 984 608 1000 q 570 949 590 968 q 519 913 550 929 q 443 897 488 897 q 389 903 410 897 q 351 918 368 910 q 315 933 333 926 q 268 939 297 939 q 231 931 247 939 q 204 915 215 924 q 182 890 192 904 q 153 913 167 903 q 133 927 142 921 q 124 933 124 933 q 133 949 124 933 q 162 985 142 965 q 214 1020 182 1004 q 289 1036 246 1036 q 338 1030 318 1036 q 376 1015 358 1024 q 415 1001 394 1007 q 463 994 435 994 q 500 1002 483 994 q 528 1019 517 1010 q 550 1043 540 1029 q 579 1021 565 1031 q 599 1006 590 1013 q 608 1000 608 1000 z "},"Æ":{"ha":1153,"x_min":0,"x_max":1115,"o":"m 1115 0 l 594 0 l 594 204 l 275 204 l 157 0 l 0 0 l 488 819 l 1114 819 l 1114 722 l 733 722 l 733 472 l 1072 472 l 1072 375 l 733 375 l 733 97 l 1115 97 l 1115 0 m 576 724 l 332 301 l 594 301 l 594 724 l 576 724 z "},"Ǽ":{"ha":1153,"x_min":0,"x_max":1115,"o":"m 1115 0 l 594 0 l 594 204 l 275 204 l 157 0 l 0 0 l 488 819 l 1114 819 l 1114 722 l 733 722 l 733 472 l 1072 472 l 1072 375 l 733 375 l 733 97 l 1115 97 l 1115 0 m 576 724 l 332 301 l 594 301 l 594 724 l 576 724 m 646 906 q 661 928 644 906 q 699 976 678 950 q 754 1047 722 1008 l 929 1047 l 768 906 l 646 906 z "},"Ć":{"ha":744,"x_min":32,"x_max":717,"o":"m 171 403 q 195 270 171 329 q 258 169 219 211 q 347 105 297 128 q 449 82 397 82 q 572 96 515 82 q 686 138 629 110 l 706 56 q 642 21 676 35 q 571 -1 607 7 q 500 -11 535 -8 q 436 -14 465 -14 q 283 10 357 -14 q 154 84 210 33 q 65 215 99 135 q 32 406 32 294 q 67 589 32 508 q 160 726 103 669 q 290 812 217 782 q 440 842 364 842 q 549 828 501 842 q 631 797 596 815 q 686 757 665 778 q 717 721 707 736 l 635 651 q 561 720 607 694 q 447 746 515 746 q 346 723 396 746 q 257 656 296 700 q 194 549 218 613 q 171 403 171 485 m 368 932 q 383 954 367 932 q 421 1003 400 976 q 476 1074 444 1035 l 651 1074 l 490 932 l 368 932 z "},"Č":{"ha":744,"x_min":32,"x_max":717,"o":"m 171 403 q 195 270 171 329 q 258 169 219 211 q 347 105 297 128 q 449 82 397 82 q 572 96 515 82 q 686 138 629 110 l 706 56 q 642 21 676 35 q 571 -1 607 7 q 500 -11 535 -8 q 436 -14 465 -14 q 283 10 357 -14 q 154 84 210 33 q 65 215 99 135 q 32 406 32 294 q 67 589 32 508 q 160 726 103 669 q 290 812 217 782 q 440 842 364 842 q 549 828 501 842 q 631 797 596 815 q 686 757 665 778 q 717 721 707 736 l 635 651 q 561 720 607 694 q 447 746 515 746 q 346 723 396 746 q 257 656 296 700 q 194 549 218 613 q 171 403 171 485 m 253 1072 l 375 1072 l 449 1011 l 521 1072 l 643 1072 l 488 931 l 397 931 q 338 983 365 957 q 292 1028 311 1008 q 262 1060 272 1047 q 253 1072 251 1072 z "},"Ç":{"ha":744,"x_min":32,"x_max":717,"o":"m 171 403 q 195 270 171 329 q 258 169 219 211 q 347 105 297 128 q 449 82 397 82 q 572 96 515 82 q 686 138 629 110 l 706 56 q 642 21 676 35 q 571 -1 607 7 q 500 -11 535 -8 q 436 -14 465 -14 q 283 10 357 -14 q 154 84 210 33 q 65 215 99 135 q 32 406 32 294 q 67 589 32 508 q 160 726 103 669 q 290 812 217 782 q 440 842 364 842 q 549 828 501 842 q 631 797 596 815 q 686 757 665 778 q 717 721 707 736 l 635 651 q 561 720 607 694 q 447 746 515 746 q 346 723 396 746 q 257 656 296 700 q 194 549 218 613 q 171 403 171 485 m 389 7 l 486 7 l 451 -61 q 514 -76 486 -64 q 558 -110 539 -87 q 576 -174 576 -132 q 557 -244 576 -218 q 508 -284 538 -269 q 446 -303 479 -299 q 386 -307 413 -307 q 364 -306 374 -307 q 347 -306 354 -306 q 332 -304 339 -306 l 332 -224 q 346 -226 338 -225 q 360 -227 353 -226 q 378 -228 368 -228 q 434 -217 406 -228 q 463 -174 463 -207 q 443 -135 463 -146 q 397 -124 424 -124 q 364 -128 381 -124 l 339 -93 q 353 -64 344 -81 q 369 -32 361 -47 q 383 -6 378 -17 q 389 7 389 6 z "},"Ĉ":{"ha":744,"x_min":32,"x_max":717,"o":"m 171 403 q 195 270 171 329 q 258 169 219 211 q 347 105 297 128 q 449 82 397 82 q 572 96 515 82 q 686 138 629 110 l 706 56 q 642 21 676 35 q 571 -1 607 7 q 500 -11 535 -8 q 436 -14 465 -14 q 283 10 357 -14 q 154 84 210 33 q 65 215 99 135 q 32 406 32 294 q 67 589 32 508 q 160 726 103 669 q 290 812 217 782 q 440 842 364 842 q 549 828 501 842 q 631 797 596 815 q 686 757 665 778 q 717 721 707 736 l 635 651 q 561 720 607 694 q 447 746 515 746 q 346 723 396 746 q 257 656 296 700 q 194 549 218 613 q 171 403 171 485 m 613 932 l 490 932 l 417 993 l 344 932 l 222 932 l 378 1074 l 468 1074 q 527 1022 500 1047 q 574 976 554 996 q 603 944 593 957 q 613 932 614 932 z "},"Ċ":{"ha":744,"x_min":32,"x_max":717,"o":"m 171 403 q 195 270 171 329 q 258 169 219 211 q 347 105 297 128 q 449 82 397 82 q 572 96 515 82 q 686 138 629 110 l 706 56 q 642 21 676 35 q 571 -1 607 7 q 500 -11 535 -8 q 436 -14 465 -14 q 283 10 357 -14 q 154 84 210 33 q 65 215 99 135 q 32 406 32 294 q 67 589 32 508 q 160 726 103 669 q 290 812 217 782 q 440 842 364 842 q 549 828 501 842 q 631 797 596 815 q 686 757 665 778 q 717 721 707 736 l 635 651 q 561 720 607 694 q 447 746 515 746 q 346 723 396 746 q 257 656 296 700 q 194 549 218 613 q 171 403 171 485 m 367 936 l 367 1075 l 506 1075 l 506 936 l 367 936 z "},"Ď":{"ha":801,"x_min":69,"x_max":754,"o":"m 69 0 l 69 819 l 346 819 q 496 793 422 819 q 626 715 569 767 q 719 585 683 663 q 754 406 754 508 q 723 224 754 300 q 639 97 692 147 q 515 24 586 47 q 364 0 443 0 l 69 0 m 615 403 q 592 545 615 485 q 529 645 568 606 q 441 704 490 685 q 339 724 392 724 l 208 724 l 208 96 l 351 96 q 547 176 479 96 q 615 403 615 256 m 154 1054 l 276 1054 l 350 993 l 422 1054 l 544 1054 l 389 913 l 299 913 q 240 965 267 939 q 193 1010 213 990 q 163 1042 174 1029 q 154 1054 153 1054 z "},"É":{"ha":618,"x_min":69,"x_max":590,"o":"m 69 0 l 69 819 l 589 819 l 589 722 l 208 722 l 208 472 l 547 472 l 547 375 l 208 375 l 208 97 l 590 97 l 590 0 l 69 0 m 260 901 q 275 924 258 901 q 313 972 292 946 q 368 1043 336 1004 l 543 1043 l 382 901 l 260 901 z "},"Ĕ":{"ha":618,"x_min":69,"x_max":590,"o":"m 69 0 l 69 819 l 589 819 l 589 722 l 208 722 l 208 472 l 547 472 l 547 375 l 208 375 l 208 97 l 590 97 l 590 0 l 69 0 m 522 1054 q 518 1031 522 1054 q 495 978 514 1007 q 439 926 476 950 q 335 903 401 903 l 332 903 q 228 926 265 903 q 172 978 190 950 q 149 1031 153 1007 q 144 1054 144 1054 l 267 1054 q 288 1018 267 1031 q 332 1006 308 1006 q 378 1018 357 1006 q 400 1054 399 1031 l 522 1054 z "},"Ě":{"ha":618,"x_min":69,"x_max":590,"o":"m 69 0 l 69 819 l 589 819 l 589 722 l 208 722 l 208 472 l 547 472 l 547 375 l 208 375 l 208 97 l 590 97 l 590 0 l 69 0 m 131 1050 l 253 1050 l 326 989 l 399 1050 l 521 1050 l 365 908 l 275 908 q 216 960 243 935 q 169 1006 189 986 q 140 1038 150 1025 q 131 1050 129 1050 z "},"Ê":{"ha":618,"x_min":69,"x_max":590,"o":"m 69 0 l 69 819 l 589 819 l 589 722 l 208 722 l 208 472 l 547 472 l 547 375 l 208 375 l 208 97 l 590 97 l 590 0 l 69 0 m 526 914 l 404 914 l 331 975 l 258 914 l 136 914 l 292 1056 l 382 1056 q 441 1003 414 1029 q 488 958 468 978 q 517 926 507 939 q 526 914 528 914 z "},"Ë":{"ha":618,"x_min":69,"x_max":590,"o":"m 69 0 l 69 819 l 589 819 l 589 722 l 208 722 l 208 472 l 547 472 l 547 375 l 208 375 l 208 97 l 590 97 l 590 0 l 69 0 m 172 917 l 172 1056 l 311 1056 l 311 917 l 172 917 m 367 917 l 367 1056 l 506 1056 l 506 917 l 367 917 z "},"Ė":{"ha":618,"x_min":69,"x_max":590,"o":"m 69 0 l 69 819 l 589 819 l 589 722 l 208 722 l 208 472 l 547 472 l 547 375 l 208 375 l 208 97 l 590 97 l 590 0 l 69 0 m 261 910 l 261 1049 l 400 1049 l 400 910 l 261 910 z "},"È":{"ha":618,"x_min":69,"x_max":590,"o":"m 69 0 l 69 819 l 589 819 l 589 722 l 208 722 l 208 472 l 547 472 l 547 375 l 208 375 l 208 97 l 590 97 l 590 0 l 69 0 m 399 906 l 276 906 l 115 1047 l 290 1047 q 346 976 322 1008 q 384 927 368 949 q 399 906 400 906 z "},"Ē":{"ha":618,"x_min":69,"x_max":590,"o":"m 69 0 l 69 819 l 589 819 l 589 722 l 208 722 l 208 472 l 547 472 l 547 375 l 208 375 l 208 97 l 590 97 l 590 0 l 69 0 m 129 914 l 129 1003 l 544 1003 l 544 914 l 129 914 z "},"Ę":{"ha":618,"x_min":69,"x_max":590,"o":"m 69 0 l 69 819 l 589 819 l 589 722 l 208 722 l 208 472 l 547 472 l 547 375 l 208 375 l 208 97 l 590 97 l 590 0 l 69 0 m 464 7 l 561 7 q 499 -60 524 -28 q 474 -132 474 -92 q 492 -180 474 -161 q 546 -199 510 -199 q 562 -198 554 -199 q 576 -197 569 -197 q 590 -196 583 -197 l 590 -276 q 565 -283 579 -281 q 538 -288 553 -286 q 506 -290 524 -290 q 399 -256 439 -290 q 360 -153 360 -222 q 371 -100 360 -125 q 398 -54 382 -75 q 432 -18 414 -33 q 464 7 450 -3 z "},"Ğ":{"ha":796,"x_min":32,"x_max":756,"o":"m 756 431 l 756 42 q 611 1 689 15 q 450 -14 533 -14 q 295 10 371 -14 q 161 84 219 33 q 67 215 103 135 q 32 406 32 294 q 65 589 32 508 q 155 726 99 669 q 285 812 211 782 q 440 842 360 842 q 565 826 513 842 q 655 787 618 810 q 713 740 692 764 q 743 700 733 715 l 650 631 q 572 713 622 679 q 447 746 522 746 q 342 723 392 746 q 253 656 292 700 q 193 549 215 613 q 171 403 171 485 q 195 270 171 329 q 258 169 219 211 q 347 105 297 128 q 449 82 397 82 q 537 87 493 82 q 617 103 581 92 l 617 333 l 444 333 l 444 431 l 756 431 m 586 1072 q 582 1049 586 1072 q 559 997 578 1025 q 503 944 540 968 q 399 921 465 921 l 396 921 q 292 944 329 921 q 235 997 254 968 q 213 1049 217 1025 q 208 1072 208 1072 l 331 1072 q 351 1036 331 1049 q 396 1024 372 1024 q 442 1036 421 1024 q 464 1072 463 1049 l 586 1072 z "},"Ĝ":{"ha":796,"x_min":32,"x_max":756,"o":"m 756 431 l 756 42 q 611 1 689 15 q 450 -14 533 -14 q 295 10 371 -14 q 161 84 219 33 q 67 215 103 135 q 32 406 32 294 q 65 589 32 508 q 155 726 99 669 q 285 812 211 782 q 440 842 360 842 q 565 826 513 842 q 655 787 618 810 q 713 740 692 764 q 743 700 733 715 l 650 631 q 572 713 622 679 q 447 746 522 746 q 342 723 392 746 q 253 656 292 700 q 193 549 215 613 q 171 403 171 485 q 195 270 171 329 q 258 169 219 211 q 347 105 297 128 q 449 82 397 82 q 537 87 493 82 q 617 103 581 92 l 617 333 l 444 333 l 444 431 l 756 431 m 592 932 l 469 932 l 396 993 l 324 932 l 201 932 l 357 1074 l 447 1074 q 506 1022 479 1047 q 553 976 533 996 q 583 944 572 957 q 592 932 593 932 z "},"Ģ":{"ha":796,"x_min":32,"x_max":756,"o":"m 756 431 l 756 42 q 611 1 689 15 q 450 -14 533 -14 q 295 10 371 -14 q 161 84 219 33 q 67 215 103 135 q 32 406 32 294 q 65 589 32 508 q 155 726 99 669 q 285 812 211 782 q 440 842 360 842 q 565 826 513 842 q 655 787 618 810 q 713 740 692 764 q 743 700 733 715 l 650 631 q 572 713 622 679 q 447 746 522 746 q 342 723 392 746 q 253 656 292 700 q 193 549 215 613 q 171 403 171 485 q 195 270 171 329 q 258 169 219 211 q 347 105 297 128 q 449 82 397 82 q 537 87 493 82 q 617 103 581 92 l 617 333 l 444 333 l 444 431 l 756 431 m 343 -208 l 343 -69 l 482 -69 l 482 -183 q 471 -247 482 -215 q 443 -308 460 -279 q 406 -358 426 -336 q 364 -392 385 -381 l 314 -364 q 364 -303 338 -344 q 390 -208 390 -261 l 343 -208 z "},"Ġ":{"ha":796,"x_min":32,"x_max":756,"o":"m 756 431 l 756 42 q 611 1 689 15 q 450 -14 533 -14 q 295 10 371 -14 q 161 84 219 33 q 67 215 103 135 q 32 406 32 294 q 65 589 32 508 q 155 726 99 669 q 285 812 211 782 q 440 842 360 842 q 565 826 513 842 q 655 787 618 810 q 713 740 692 764 q 743 700 733 715 l 650 631 q 572 713 622 679 q 447 746 522 746 q 342 723 392 746 q 253 656 292 700 q 193 549 215 613 q 171 403 171 485 q 195 270 171 329 q 258 169 219 211 q 347 105 297 128 q 449 82 397 82 q 537 87 493 82 q 617 103 581 92 l 617 333 l 444 333 l 444 431 l 756 431 m 328 936 l 328 1075 l 467 1075 l 467 936 l 328 936 z "},"Đ":{"ha":801,"x_min":-33,"x_max":754,"o":"m 69 0 l 69 819 l 346 819 q 496 793 422 819 q 626 715 569 767 q 719 585 683 663 q 754 406 754 508 q 723 224 754 300 q 639 97 692 147 q 515 24 586 47 q 364 0 443 0 l 69 0 m 615 403 q 592 545 615 485 q 529 645 568 606 q 441 704 490 685 q 339 724 392 724 l 208 724 l 208 96 l 351 96 q 547 176 479 96 q 615 403 615 256 m -33 374 l -33 463 l 382 463 l 382 374 l -33 374 z "},"Ħ":{"ha":724,"x_min":0,"x_max":722,"o":"m 528 0 l 528 375 l 208 375 l 208 0 l 69 0 l 69 819 l 208 819 l 208 472 l 528 472 l 528 819 l 667 819 l 667 0 l 528 0 m 0 576 l 0 668 l 722 668 l 722 576 l 0 576 z "},"Ĥ":{"ha":724,"x_min":69,"x_max":667,"o":"m 528 0 l 528 375 l 208 375 l 208 0 l 69 0 l 69 819 l 208 819 l 208 472 l 528 472 l 528 819 l 667 819 l 667 0 l 528 0 m 556 932 l 433 932 l 360 993 l 288 932 l 165 932 l 321 1074 l 411 1074 q 470 1022 443 1047 q 517 976 497 996 q 547 944 536 957 q 556 932 557 932 z "},"Í":{"ha":278,"x_min":69,"x_max":354,"o":"m 69 0 l 69 819 l 208 819 l 208 0 l 69 0 m 71 906 q 86 928 69 906 q 124 976 103 950 q 179 1047 147 1008 l 354 1047 l 193 906 l 71 906 z "},"Ĭ":{"ha":278,"x_min":-51,"x_max":326,"o":"m 68 0 l 68 819 l 207 819 l 207 0 l 68 0 m 326 1072 q 322 1049 326 1072 q 299 997 318 1025 q 243 944 281 968 q 139 921 206 921 l 136 921 q 32 944 69 921 q -24 997 -6 968 q -47 1049 -43 1025 q -51 1072 -51 1072 l 71 1072 q 92 1036 71 1049 q 136 1024 113 1024 q 182 1036 161 1024 q 204 1072 203 1049 l 326 1072 z "},"Î":{"ha":278,"x_min":-61,"x_max":331,"o":"m 69 0 l 69 819 l 208 819 l 208 0 l 69 0 m 329 893 l 207 893 l 133 954 l 61 893 l -61 893 l 94 1035 l 185 1035 q 244 983 217 1008 q 290 938 271 957 q 320 906 310 918 q 329 893 331 893 z "},"Ï":{"ha":278,"x_min":-19,"x_max":314,"o":"m 69 0 l 69 819 l 208 819 l 208 0 l 69 0 m -19 910 l -19 1049 l 119 1049 l 119 910 l -19 910 m 175 910 l 175 1049 l 314 1049 l 314 910 l 175 910 z "},"İ":{"ha":278,"x_min":69,"x_max":208,"o":"m 69 0 l 69 819 l 208 819 l 208 0 l 69 0 m 69 901 l 69 1040 l 208 1040 l 208 901 l 69 901 z "},"Ì":{"ha":278,"x_min":-81,"x_max":208,"o":"m 69 0 l 69 819 l 208 819 l 208 0 l 69 0 m 203 890 l 81 890 l -81 1032 l 94 1032 q 150 961 126 993 q 188 912 172 933 q 203 890 204 890 z "},"Ī":{"ha":278,"x_min":-68,"x_max":347,"o":"m 69 0 l 69 819 l 208 819 l 208 0 l 69 0 m -68 929 l -68 1018 l 347 1018 l 347 929 l -68 929 z "},"Į":{"ha":278,"x_min":-22,"x_max":208,"o":"m 69 0 l 69 819 l 208 819 l 208 0 l 69 0 m 82 7 l 179 7 q 117 -60 142 -28 q 92 -132 92 -92 q 110 -180 92 -161 q 164 -199 128 -199 q 180 -198 172 -199 q 194 -197 188 -197 q 208 -196 201 -197 l 208 -276 q 183 -283 197 -281 q 156 -288 171 -286 q 124 -290 142 -290 q 17 -256 57 -290 q -22 -153 -22 -222 q -11 -100 -22 -125 q 16 -54 0 -75 q 50 -18 32 -33 q 82 7 68 -3 z "},"Ĩ":{"ha":278,"x_min":-104,"x_max":381,"o":"m 68 0 l 68 819 l 207 819 l 207 0 l 68 0 m 381 1038 q 372 1022 381 1038 q 342 986 363 1006 q 291 951 322 967 q 215 935 260 935 q 161 941 182 935 q 123 956 140 947 q 88 970 106 964 q 40 976 69 976 q 3 969 19 976 q -24 953 -12 961 q -46 928 -36 942 q -75 950 -61 940 q -95 965 -86 958 q -104 971 -104 971 q -95 987 -104 971 q -66 1022 -86 1003 q -14 1058 -46 1042 q 61 1074 18 1074 q 110 1067 90 1074 q 149 1053 131 1061 q 187 1038 167 1044 q 235 1032 207 1032 q 272 1040 256 1032 q 300 1057 289 1047 q 322 1081 313 1067 q 351 1058 338 1068 q 372 1044 363 1050 q 381 1038 381 1038 z "},"Ĳ":{"ha":708,"x_min":69,"x_max":639,"o":"m 69 0 l 69 819 l 208 819 l 208 0 l 69 0 m 369 83 q 421 90 397 83 q 463 112 444 96 q 490 156 481 128 q 500 226 500 183 l 500 819 l 639 819 l 639 226 q 619 110 639 156 q 565 36 600 64 q 484 -3 531 8 q 383 -14 438 -14 q 346 -12 369 -14 q 307 -6 322 -10 l 318 89 q 342 85 329 86 q 369 83 356 83 z "},"Ĵ":{"ha":431,"x_min":29,"x_max":488,"o":"m 92 83 q 143 90 119 83 q 185 112 167 96 q 213 156 203 128 q 222 226 222 183 l 222 819 l 361 819 l 361 226 q 342 110 361 156 q 288 36 322 64 q 206 -3 253 8 q 106 -14 160 -14 q 68 -12 92 -14 q 29 -6 44 -10 l 40 89 q 65 85 51 86 q 92 83 78 83 m 486 906 l 364 906 l 290 967 l 218 906 l 96 906 l 251 1047 l 342 1047 q 401 995 374 1021 q 447 950 428 969 q 477 918 467 931 q 486 906 488 906 z "},"Ķ":{"ha":714,"x_min":69,"x_max":678,"o":"m 656 819 l 371 413 l 678 0 l 524 0 l 246 371 l 208 358 l 208 0 l 69 0 l 69 819 l 208 819 l 208 450 l 217 453 q 265 490 246 463 l 501 819 l 656 819 m 301 -208 l 301 -69 l 440 -69 l 440 -183 q 429 -247 440 -215 q 401 -308 418 -279 q 364 -358 385 -336 q 322 -392 343 -381 l 272 -364 q 322 -303 296 -344 q 349 -208 349 -261 l 301 -208 z "},"Ĺ":{"ha":617,"x_min":69,"x_max":589,"o":"m 69 0 l 69 819 l 208 819 l 208 97 l 589 97 l 589 0 l 69 0 m 168 932 q 183 954 167 932 q 221 1003 200 976 q 276 1074 244 1035 l 451 1074 l 290 932 l 168 932 z "},"Ľ":{"ha":617,"x_min":69,"x_max":589,"o":"m 69 0 l 69 819 l 208 819 l 208 97 l 589 97 l 589 0 l 69 0 m 433 681 l 433 819 l 572 819 l 572 706 q 561 642 572 675 q 533 581 550 610 q 496 531 517 553 q 454 497 475 508 l 404 525 q 454 586 428 544 q 481 681 481 628 l 433 681 z "},"Ļ":{"ha":617,"x_min":69,"x_max":589,"o":"m 69 0 l 69 819 l 208 819 l 208 97 l 589 97 l 589 0 l 69 0 m 253 -208 l 253 -69 l 392 -69 l 392 -183 q 381 -247 392 -215 q 353 -308 369 -279 q 315 -358 336 -336 q 274 -392 294 -381 l 224 -364 q 274 -303 247 -344 q 300 -208 300 -261 l 253 -208 z "},"Ń":{"ha":765,"x_min":69,"x_max":708,"o":"m 583 0 l 208 583 l 208 0 l 69 0 l 69 819 l 194 819 l 569 250 l 569 819 l 708 819 l 708 0 l 583 0 m 243 932 q 258 954 242 932 q 296 1003 275 976 q 351 1074 319 1035 l 526 1074 l 365 932 l 243 932 z "},"Ň":{"ha":765,"x_min":69,"x_max":708,"o":"m 583 0 l 208 583 l 208 0 l 69 0 l 69 819 l 194 819 l 569 250 l 569 819 l 708 819 l 708 0 l 583 0 m 189 1072 l 311 1072 l 385 1011 l 457 1072 l 579 1072 l 424 931 l 333 931 q 274 983 301 957 q 228 1028 247 1008 q 198 1060 208 1047 q 189 1072 188 1072 z "},"Ņ":{"ha":765,"x_min":69,"x_max":708,"o":"m 583 0 l 208 583 l 208 0 l 69 0 l 69 819 l 194 819 l 569 250 l 569 819 l 708 819 l 708 0 l 583 0 m 328 -208 l 328 -69 l 467 -69 l 467 -183 q 456 -247 467 -215 q 428 -308 444 -279 q 390 -358 411 -336 q 349 -392 369 -381 l 299 -364 q 349 -303 322 -344 q 375 -208 375 -261 l 328 -208 z "},"Ñ":{"ha":765,"x_min":69,"x_max":708,"o":"m 583 0 l 208 583 l 208 0 l 69 0 l 69 819 l 194 819 l 569 250 l 569 819 l 708 819 l 708 0 l 583 0 m 625 1038 q 616 1022 625 1038 q 587 986 607 1006 q 535 951 567 967 q 460 935 504 935 q 406 941 426 935 q 367 956 385 947 q 332 970 350 964 q 285 976 314 976 q 248 969 264 976 q 221 953 232 961 q 199 928 208 942 q 169 950 183 940 q 149 965 158 958 q 140 971 140 971 q 149 987 140 971 q 178 1022 158 1003 q 231 1058 199 1042 q 306 1074 263 1074 q 355 1067 335 1074 q 393 1053 375 1061 q 431 1038 411 1044 q 479 1032 451 1032 q 517 1040 500 1032 q 544 1057 533 1047 q 567 1081 557 1067 q 596 1058 582 1068 q 616 1044 607 1050 q 625 1038 625 1038 z "},"$":{"ha":610,"x_min":19,"x_max":578,"o":"m 265 -112 l 265 -12 q 177 1 217 -11 q 106 29 138 14 q 53 62 75 44 q 19 92 32 79 l 76 172 q 113 143 92 158 q 160 115 135 128 q 212 94 185 103 q 265 82 239 85 l 265 368 q 159 423 203 396 q 88 479 115 450 q 49 544 61 508 q 38 624 38 579 q 99 765 38 707 q 265 838 161 822 l 265 926 l 358 926 l 358 840 q 563 756 483 832 l 499 681 q 442 722 482 703 q 358 744 403 740 l 358 465 q 466 413 424 440 q 533 355 508 386 q 568 289 558 324 q 578 214 578 254 q 519 69 578 128 q 358 -7 461 10 l 358 -112 l 265 -112 m 176 624 q 201 556 176 583 q 265 507 226 529 l 265 736 q 176 624 176 711 m 439 206 q 417 275 439 247 q 358 324 394 303 l 358 93 q 420 138 401 108 q 439 206 439 168 z "},"?":{"ha":660,"x_min":46,"x_max":614,"o":"m 614 624 q 597 530 614 569 q 553 460 579 490 q 496 407 526 431 q 439 360 465 383 q 395 309 413 336 q 378 246 378 282 l 260 246 l 260 257 q 293 372 260 325 q 367 457 326 418 q 442 534 408 496 q 475 624 475 572 q 435 714 475 682 q 328 746 394 746 q 253 733 283 746 q 201 703 222 721 q 169 663 181 685 q 151 622 158 642 l 46 661 q 77 722 56 690 q 133 780 99 753 q 215 824 167 807 q 325 842 263 842 q 540 781 465 842 q 614 624 614 719 m 250 0 l 250 139 l 389 139 l 389 0 l 250 0 z "},"¿":{"ha":660,"x_min":57,"x_max":625,"o":"m 57 -68 q 74 26 57 -14 q 118 95 92 65 q 175 149 144 125 q 232 196 206 172 q 276 247 258 219 q 293 310 293 274 l 411 310 l 411 299 q 378 184 411 231 q 303 99 344 138 q 229 22 263 60 q 196 -68 196 -17 q 236 -158 196 -126 q 343 -190 276 -190 q 418 -178 388 -190 q 469 -147 449 -165 q 501 -108 490 -129 q 519 -67 513 -86 l 625 -106 q 594 -166 615 -135 q 538 -224 572 -197 q 456 -269 504 -251 q 346 -286 408 -286 q 131 -225 206 -286 q 57 -68 57 -164 m 421 556 l 421 417 l 282 417 l 282 556 l 421 556 z "},"Ó":{"ha":828,"x_min":32,"x_max":785,"o":"m 785 414 q 756 233 785 313 q 676 99 726 154 q 556 15 625 44 q 408 -14 488 -14 q 260 15 329 -14 q 141 99 192 44 q 61 234 90 154 q 32 414 32 314 q 61 589 32 510 q 141 724 90 668 q 260 811 192 781 q 408 842 329 842 q 556 811 488 842 q 676 724 625 781 q 756 589 726 668 q 785 414 785 510 m 171 411 q 188 284 171 344 q 237 179 206 224 q 312 108 268 135 q 407 82 356 82 l 408 82 q 504 108 461 82 q 579 179 547 135 q 628 284 611 224 q 646 411 646 344 q 628 543 646 482 q 579 649 611 604 q 503 720 547 694 q 407 746 460 746 q 312 720 356 746 q 237 649 268 694 q 188 543 206 604 q 171 411 171 482 m 342 932 q 357 954 340 932 q 394 1003 374 976 q 450 1074 418 1035 l 625 1074 l 464 932 l 342 932 z "},"Ŏ":{"ha":828,"x_min":32,"x_max":785,"o":"m 785 414 q 756 233 785 313 q 676 99 726 154 q 556 15 625 44 q 408 -14 488 -14 q 260 15 329 -14 q 141 99 192 44 q 61 234 90 154 q 32 414 32 314 q 61 589 32 510 q 141 724 90 668 q 260 811 192 781 q 408 842 329 842 q 556 811 488 842 q 676 724 625 781 q 756 589 726 668 q 785 414 785 510 m 171 411 q 188 284 171 344 q 237 179 206 224 q 312 108 268 135 q 407 82 356 82 l 408 82 q 504 108 461 82 q 579 179 547 135 q 628 284 611 224 q 646 411 646 344 q 628 543 646 482 q 579 649 611 604 q 503 720 547 694 q 407 746 460 746 q 312 720 356 746 q 237 649 268 694 q 188 543 206 604 q 171 411 171 482 m 603 1072 q 599 1049 603 1072 q 576 997 594 1025 q 519 944 557 968 q 415 921 482 921 l 413 921 q 308 944 346 921 q 252 997 271 968 q 229 1049 233 1025 q 225 1072 225 1072 l 347 1072 q 368 1036 347 1049 q 413 1024 389 1024 q 458 1036 438 1024 q 481 1072 479 1049 l 603 1072 z "},"Ô":{"ha":828,"x_min":32,"x_max":785,"o":"m 785 414 q 756 233 785 313 q 676 99 726 154 q 556 15 625 44 q 408 -14 488 -14 q 260 15 329 -14 q 141 99 192 44 q 61 234 90 154 q 32 414 32 314 q 61 589 32 510 q 141 724 90 668 q 260 811 192 781 q 408 842 329 842 q 556 811 488 842 q 676 724 625 781 q 756 589 726 668 q 785 414 785 510 m 171 411 q 188 284 171 344 q 237 179 206 224 q 312 108 268 135 q 407 82 356 82 l 408 82 q 504 108 461 82 q 579 179 547 135 q 628 284 611 224 q 646 411 646 344 q 628 543 646 482 q 579 649 611 604 q 503 720 547 694 q 407 746 460 746 q 312 720 356 746 q 237 649 268 694 q 188 543 206 604 q 171 411 171 482 m 607 932 l 485 932 l 411 993 l 339 932 l 217 932 l 372 1074 l 463 1074 q 522 1022 494 1047 q 568 976 549 996 q 598 944 588 957 q 607 932 608 932 z "},"Ò":{"ha":828,"x_min":32,"x_max":785,"o":"m 785 414 q 756 233 785 313 q 676 99 726 154 q 556 15 625 44 q 408 -14 488 -14 q 260 15 329 -14 q 141 99 192 44 q 61 234 90 154 q 32 414 32 314 q 61 589 32 510 q 141 724 90 668 q 260 811 192 781 q 408 842 329 842 q 556 811 488 842 q 676 724 625 781 q 756 589 726 668 q 785 414 785 510 m 171 411 q 188 284 171 344 q 237 179 206 224 q 312 108 268 135 q 407 82 356 82 l 408 82 q 504 108 461 82 q 579 179 547 135 q 628 284 611 224 q 646 411 646 344 q 628 543 646 482 q 579 649 611 604 q 503 720 547 694 q 407 746 460 746 q 312 720 356 746 q 237 649 268 694 q 188 543 206 604 q 171 411 171 482 m 486 932 l 364 932 l 203 1074 l 378 1074 q 433 1003 410 1035 q 472 953 456 975 q 486 932 488 932 z "},"Ő":{"ha":828,"x_min":32,"x_max":785,"o":"m 785 414 q 756 233 785 313 q 676 99 726 154 q 556 15 625 44 q 408 -14 488 -14 q 260 15 329 -14 q 141 99 192 44 q 61 234 90 154 q 32 414 32 314 q 61 589 32 510 q 141 724 90 668 q 260 811 192 781 q 408 842 329 842 q 556 811 488 842 q 676 724 625 781 q 756 589 726 668 q 785 414 785 510 m 171 411 q 188 284 171 344 q 237 179 206 224 q 312 108 268 135 q 407 82 356 82 l 408 82 q 504 108 461 82 q 579 179 547 135 q 628 284 611 224 q 646 411 646 344 q 628 543 646 482 q 579 649 611 604 q 503 720 547 694 q 407 746 460 746 q 312 720 356 746 q 237 649 268 694 q 188 543 206 604 q 171 411 171 482 m 218 932 q 233 954 217 932 q 271 1003 250 976 q 326 1074 294 1035 l 501 1074 l 340 932 l 218 932 m 429 932 q 444 954 428 932 q 482 1003 461 976 q 538 1074 506 1035 l 713 1074 l 551 932 l 429 932 z "},"Ō":{"ha":828,"x_min":32,"x_max":785,"o":"m 785 414 q 756 233 785 313 q 676 99 726 154 q 556 15 625 44 q 408 -14 488 -14 q 260 15 329 -14 q 141 99 192 44 q 61 234 90 154 q 32 414 32 314 q 61 589 32 510 q 141 724 90 668 q 260 811 192 781 q 408 842 329 842 q 556 811 488 842 q 676 724 625 781 q 756 589 726 668 q 785 414 785 510 m 171 411 q 188 284 171 344 q 237 179 206 224 q 312 108 268 135 q 407 82 356 82 l 408 82 q 504 108 461 82 q 579 179 547 135 q 628 284 611 224 q 646 411 646 344 q 628 543 646 482 q 579 649 611 604 q 503 720 547 694 q 407 746 460 746 q 312 720 356 746 q 237 649 268 694 q 188 543 206 604 q 171 411 171 482 m 206 929 l 206 1018 l 621 1018 l 621 929 l 206 929 z "},"ẃ":{"ha":872,"x_min":28,"x_max":851,"o":"m 851 556 l 685 0 l 538 0 l 439 382 l 342 0 l 194 0 l 28 556 l 167 556 l 268 158 l 369 556 l 510 556 l 611 158 l 713 556 l 851 556 m 369 668 q 385 690 368 668 q 422 739 401 713 q 478 810 446 771 l 653 810 l 492 668 l 369 668 z "},"ŵ":{"ha":872,"x_min":28,"x_max":851,"o":"m 851 556 l 685 0 l 538 0 l 439 382 l 342 0 l 194 0 l 28 556 l 167 556 l 268 158 l 369 556 l 510 556 l 611 158 l 713 556 l 851 556 m 629 668 l 507 668 l 433 729 l 361 668 l 239 668 l 394 810 l 485 810 q 544 758 517 783 q 590 713 571 732 q 620 681 610 693 q 629 668 631 668 z "},"ẅ":{"ha":872,"x_min":28,"x_max":851,"o":"m 851 556 l 685 0 l 538 0 l 439 382 l 342 0 l 194 0 l 28 556 l 167 556 l 268 158 l 369 556 l 510 556 l 611 158 l 713 556 l 851 556 m 269 672 l 269 811 l 408 811 l 408 672 l 269 672 m 464 672 l 464 811 l 603 811 l 603 672 l 464 672 z "},"ẁ":{"ha":872,"x_min":28,"x_max":851,"o":"m 851 556 l 685 0 l 538 0 l 439 382 l 342 0 l 194 0 l 28 556 l 167 556 l 268 158 l 369 556 l 510 556 l 611 158 l 713 556 l 851 556 m 515 668 l 393 668 l 232 810 l 407 810 q 463 739 439 771 q 501 690 485 711 q 515 668 517 668 z "},"ý":{"ha":588,"x_min":28,"x_max":564,"o":"m 213 -54 l 225 -12 l 28 556 l 167 556 l 296 158 l 425 556 l 564 556 l 358 -33 q 331 -104 347 -68 q 290 -174 314 -140 q 233 -236 267 -207 q 151 -287 199 -265 l 69 -206 q 158 -147 121 -185 q 213 -54 194 -110 m 154 668 q 169 690 153 668 q 207 739 186 713 q 263 810 231 771 l 438 810 l 276 668 l 154 668 z "},"ŷ":{"ha":588,"x_min":28,"x_max":564,"o":"m 213 -54 l 225 -12 l 28 556 l 167 556 l 296 158 l 425 556 l 564 556 l 358 -33 q 331 -104 347 -68 q 290 -174 314 -140 q 233 -236 267 -207 q 151 -287 199 -265 l 69 -206 q 158 -147 121 -185 q 213 -54 194 -110 m 488 668 l 365 668 l 292 729 l 219 668 l 97 668 l 253 810 l 343 810 q 402 758 375 783 q 449 713 429 732 q 478 681 468 693 q 488 668 489 668 z "},"ÿ":{"ha":588,"x_min":28,"x_max":564,"o":"m 213 -54 l 225 -12 l 28 556 l 167 556 l 296 158 l 425 556 l 564 556 l 358 -33 q 331 -104 347 -68 q 290 -174 314 -140 q 233 -236 267 -207 q 151 -287 199 -265 l 69 -206 q 158 -147 121 -185 q 213 -54 194 -110 m 126 672 l 126 811 l 265 811 l 265 672 l 126 672 m 321 672 l 321 811 l 460 811 l 460 672 l 321 672 z "},"ỳ":{"ha":588,"x_min":28,"x_max":564,"o":"m 213 -54 l 225 -12 l 28 556 l 167 556 l 296 158 l 425 556 l 564 556 l 358 -33 q 331 -104 347 -68 q 290 -174 314 -140 q 233 -236 267 -207 q 151 -287 199 -265 l 69 -206 q 158 -147 121 -185 q 213 -54 194 -110 m 433 668 l 311 668 l 150 810 l 325 810 q 381 739 357 771 q 419 690 403 711 q 433 668 435 668 z "},"ź":{"ha":464,"x_min":14,"x_max":444,"o":"m 14 472 l 14 556 l 444 556 l 444 472 l 167 83 l 444 83 l 444 0 l 14 0 l 14 83 l 292 472 l 14 472 m 92 668 q 107 690 90 668 q 144 739 124 713 q 200 810 168 771 l 375 810 l 214 668 l 92 668 z "},"ž":{"ha":464,"x_min":14,"x_max":444,"o":"m 14 472 l 14 556 l 444 556 l 444 472 l 167 83 l 444 83 l 444 0 l 14 0 l 14 83 l 292 472 l 14 472 m 38 808 l 160 808 l 233 747 l 306 808 l 428 808 l 272 667 l 182 667 q 123 719 150 693 q 76 764 96 744 q 47 796 57 783 q 38 808 36 808 z "},"ż":{"ha":464,"x_min":14,"x_max":444,"o":"m 14 472 l 14 556 l 444 556 l 444 472 l 167 83 l 444 83 l 444 0 l 14 0 l 14 83 l 292 472 l 14 472 m 163 672 l 163 811 l 301 811 l 301 672 l 163 672 z "},"ť":{"ha":653,"x_min":14,"x_max":603,"o":"m 14 472 l 14 556 l 97 556 l 97 681 l 236 708 l 236 556 l 361 556 l 361 472 l 236 472 l 236 163 q 251 105 236 128 q 306 82 265 82 q 331 83 317 82 q 361 90 344 85 l 361 6 q 313 -8 338 -3 q 261 -14 288 -14 q 142 22 186 -14 q 97 157 97 58 l 97 472 l 14 472 m 464 750 l 464 889 l 603 889 l 603 775 q 592 712 603 744 q 564 651 581 679 q 526 600 547 622 q 485 567 506 578 l 435 594 q 485 656 458 614 q 511 750 511 697 l 464 750 z "},"ţ":{"ha":394,"x_min":14,"x_max":361,"o":"m 14 472 l 14 556 l 97 556 l 97 681 l 236 708 l 236 556 l 361 556 l 361 472 l 236 472 l 236 163 q 251 105 236 128 q 306 82 265 82 q 331 83 317 82 q 361 90 344 85 l 361 6 q 313 -8 338 -3 q 261 -14 288 -14 q 142 22 186 -14 q 97 157 97 58 l 97 472 l 14 472 m 142 -208 l 142 -69 l 281 -69 l 281 -183 q 269 -247 281 -215 q 242 -308 258 -279 q 204 -358 225 -336 q 163 -392 183 -381 l 113 -364 q 163 -303 136 -344 q 189 -208 189 -261 l 142 -208 z "},"Ŕ":{"ha":689,"x_min":69,"x_max":668,"o":"m 474 556 q 428 685 474 647 q 299 724 383 724 l 208 724 l 208 415 l 311 415 q 390 427 358 415 q 440 458 421 439 q 466 503 458 478 q 474 556 474 529 m 307 319 l 208 319 l 208 0 l 69 0 l 69 819 l 306 819 q 419 808 364 819 q 518 767 475 796 q 587 687 561 738 q 613 558 613 636 q 566 413 613 465 q 449 338 519 360 l 668 0 l 514 0 l 307 319 m 264 919 q 279 942 263 919 q 317 990 296 964 q 372 1061 340 1022 l 547 1061 l 386 919 l 264 919 z "},"Ř":{"ha":689,"x_min":69,"x_max":668,"o":"m 474 556 q 428 685 474 647 q 299 724 383 724 l 208 724 l 208 415 l 311 415 q 390 427 358 415 q 440 458 421 439 q 466 503 458 478 q 474 556 474 529 m 307 319 l 208 319 l 208 0 l 69 0 l 69 819 l 306 819 q 419 808 364 819 q 518 767 475 796 q 587 687 561 738 q 613 558 613 636 q 566 413 613 465 q 449 338 519 360 l 668 0 l 514 0 l 307 319 m 150 1072 l 272 1072 l 346 1011 l 418 1072 l 540 1072 l 385 931 l 294 931 q 235 983 263 957 q 189 1028 208 1008 q 159 1060 169 1047 q 150 1072 149 1072 z "},"Ŗ":{"ha":689,"x_min":69,"x_max":668,"o":"m 474 556 q 428 685 474 647 q 299 724 383 724 l 208 724 l 208 415 l 311 415 q 390 427 358 415 q 440 458 421 439 q 466 503 458 478 q 474 556 474 529 m 307 319 l 208 319 l 208 0 l 69 0 l 69 819 l 306 819 q 419 808 364 819 q 518 767 475 796 q 587 687 561 738 q 613 558 613 636 q 566 413 613 465 q 449 338 519 360 l 668 0 l 514 0 l 307 319 m 289 -208 l 289 -69 l 428 -69 l 428 -183 q 417 -247 428 -215 q 389 -308 406 -279 q 351 -358 372 -336 q 310 -392 331 -381 l 260 -364 q 310 -303 283 -344 q 336 -208 336 -261 l 289 -208 z "},"/":{"ha":543,"x_min":8,"x_max":538,"o":"m 8 -221 l 149 -221 l 538 871 l 397 871 l 8 -221 z "},"\\":{"ha":546,"x_min":8,"x_max":538,"o":"m 149 871 l 8 871 l 397 -221 l 538 -221 l 149 871 z "},"Ŀ":{"ha":617,"x_min":69,"x_max":589,"o":"m 408 369 l 533 369 l 533 497 l 408 497 l 408 369 m 69 0 l 589 0 l 589 97 l 208 97 l 208 819 l 69 819 l 69 0 z "},"Ø":{"ha":828,"x_min":32,"x_max":785,"o":"m 785 414 q 756 233 785 313 q 676 99 726 154 q 556 15 625 44 q 408 -14 488 -14 q 192 54 285 -14 l 150 0 l 38 0 l 126 115 q 57 244 82 169 q 32 414 32 319 q 61 589 32 510 q 141 724 90 668 q 260 811 192 781 q 408 842 329 842 q 527 823 471 842 q 629 768 583 804 l 671 821 l 783 821 l 693 704 q 760 575 736 649 q 785 414 785 501 m 610 596 l 264 147 q 329 99 293 117 q 407 82 365 82 l 408 82 q 504 108 461 82 q 579 179 547 135 q 628 284 611 224 q 646 411 646 344 q 610 596 646 515 m 171 411 q 211 225 171 306 l 558 675 q 490 727 528 708 q 407 746 451 746 q 312 720 356 746 q 237 649 268 694 q 188 543 206 604 q 171 411 171 482 z "},"Ǿ":{"ha":828,"x_min":32,"x_max":785,"o":"m 785 414 q 756 233 785 313 q 676 99 726 154 q 556 15 625 44 q 408 -14 488 -14 q 192 54 285 -14 l 150 0 l 38 0 l 126 115 q 57 244 82 169 q 32 414 32 319 q 61 589 32 510 q 141 724 90 668 q 260 811 192 781 q 408 842 329 842 q 527 823 471 842 q 629 768 583 804 l 671 821 l 783 821 l 693 704 q 760 575 736 649 q 785 414 785 501 m 610 596 l 264 147 q 329 99 293 117 q 407 82 365 82 l 408 82 q 504 108 461 82 q 579 179 547 135 q 628 284 611 224 q 646 411 646 344 q 610 596 646 515 m 171 411 q 211 225 171 306 l 558 675 q 490 727 528 708 q 407 746 451 746 q 312 720 356 746 q 237 649 268 694 q 188 543 206 604 q 171 411 171 482 m 357 932 q 372 954 356 932 q 410 1003 389 976 q 465 1074 433 1035 l 640 1074 l 479 932 l 390 932 l 357 932 z "},"Õ":{"ha":828,"x_min":32,"x_max":785,"o":"m 785 414 q 756 233 785 313 q 676 99 726 154 q 556 15 625 44 q 408 -14 488 -14 q 260 15 329 -14 q 141 99 192 44 q 61 234 90 154 q 32 414 32 314 q 61 589 32 510 q 141 724 90 668 q 260 811 192 781 q 408 842 329 842 q 556 811 488 842 q 676 724 625 781 q 756 589 726 668 q 785 414 785 510 m 171 411 q 188 284 171 344 q 237 179 206 224 q 312 108 268 135 q 407 82 356 82 l 408 82 q 504 108 461 82 q 579 179 547 135 q 628 284 611 224 q 646 411 646 344 q 628 543 646 482 q 579 649 611 604 q 503 720 547 694 q 407 746 460 746 q 312 720 356 746 q 237 649 268 694 q 188 543 206 604 q 171 411 171 482 m 656 1038 q 647 1022 656 1038 q 617 986 638 1006 q 566 951 597 967 q 490 935 535 935 q 436 941 457 935 q 398 956 415 947 q 363 970 381 964 q 315 976 344 976 q 278 969 294 976 q 251 953 263 961 q 229 928 239 942 q 200 950 214 940 q 180 965 189 958 q 171 971 171 971 q 180 987 171 971 q 209 1022 189 1003 q 261 1058 229 1042 q 336 1074 293 1074 q 385 1067 365 1074 q 424 1053 406 1061 q 462 1038 442 1044 q 510 1032 482 1032 q 547 1040 531 1032 q 575 1057 564 1047 q 597 1081 588 1067 q 626 1058 613 1068 q 647 1044 638 1050 q 656 1038 656 1038 z "},"Œ":{"ha":1133,"x_min":42,"x_max":1085,"o":"m 564 724 l 457 724 q 356 704 406 724 q 267 645 306 685 q 204 545 228 606 q 181 403 181 485 q 249 176 181 256 q 444 96 317 96 l 564 96 l 564 724 m 432 0 q 281 24 353 0 q 157 97 210 47 q 73 224 104 147 q 42 406 42 300 q 77 585 42 508 q 169 715 113 663 q 300 793 226 767 q 450 819 374 819 l 1083 819 l 1083 722 l 703 722 l 703 472 l 1042 472 l 1042 375 l 703 375 l 703 97 l 1085 97 l 1085 0 l 432 0 z "},"Ś":{"ha":610,"x_min":19,"x_max":578,"o":"m 439 206 q 402 293 439 263 q 304 351 365 324 q 179 412 231 383 q 97 472 128 440 q 51 540 65 503 q 38 624 38 576 q 58 711 38 671 q 117 781 79 751 q 209 826 156 810 q 326 842 263 842 q 462 820 404 842 q 563 756 519 799 l 499 681 q 433 726 479 706 q 338 746 388 746 q 217 714 258 746 q 176 624 176 682 q 189 576 176 596 q 222 540 201 556 q 269 510 242 524 q 325 483 296 497 q 450 423 401 453 q 527 360 499 393 q 567 292 556 328 q 578 214 578 257 q 557 122 578 164 q 498 50 536 81 q 405 3 460 19 q 283 -14 350 -14 q 189 -2 232 -14 q 113 26 146 10 q 56 61 79 43 q 19 92 32 79 l 76 172 q 116 142 93 158 q 166 113 139 126 q 222 90 193 99 q 278 82 250 82 q 402 118 365 82 q 439 206 439 154 m 251 932 q 267 954 250 932 q 304 1003 283 976 q 360 1074 328 1035 l 535 1074 l 374 932 l 251 932 z "},"Š":{"ha":610,"x_min":19,"x_max":578,"o":"m 439 206 q 402 293 439 263 q 304 351 365 324 q 179 412 231 383 q 97 472 128 440 q 51 540 65 503 q 38 624 38 576 q 58 711 38 671 q 117 781 79 751 q 209 826 156 810 q 326 842 263 842 q 462 820 404 842 q 563 756 519 799 l 499 681 q 433 726 479 706 q 338 746 388 746 q 217 714 258 746 q 176 624 176 682 q 189 576 176 596 q 222 540 201 556 q 269 510 242 524 q 325 483 296 497 q 450 423 401 453 q 527 360 499 393 q 567 292 556 328 q 578 214 578 257 q 557 122 578 164 q 498 50 536 81 q 405 3 460 19 q 283 -14 350 -14 q 189 -2 232 -14 q 113 26 146 10 q 56 61 79 43 q 19 92 32 79 l 76 172 q 116 142 93 158 q 166 113 139 126 q 222 90 193 99 q 278 82 250 82 q 402 118 365 82 q 439 206 439 154 m 111 1072 l 233 1072 l 307 1011 l 379 1072 l 501 1072 l 346 931 l 256 931 q 197 983 224 957 q 150 1028 169 1008 q 120 1060 131 1047 q 111 1072 110 1072 z "},"Ş":{"ha":610,"x_min":19,"x_max":578,"o":"m 439 206 q 402 293 439 263 q 304 351 365 324 q 179 412 231 383 q 97 472 128 440 q 51 540 65 503 q 38 624 38 576 q 58 711 38 671 q 117 781 79 751 q 209 826 156 810 q 326 842 263 842 q 462 820 404 842 q 563 756 519 799 l 499 681 q 433 726 479 706 q 338 746 388 746 q 217 714 258 746 q 176 624 176 682 q 189 576 176 596 q 222 540 201 556 q 269 510 242 524 q 325 483 296 497 q 450 423 401 453 q 527 360 499 393 q 567 292 556 328 q 578 214 578 257 q 557 122 578 164 q 498 50 536 81 q 405 3 460 19 q 283 -14 350 -14 q 189 -2 232 -14 q 113 26 146 10 q 56 61 79 43 q 19 92 32 79 l 76 172 q 116 142 93 158 q 166 113 139 126 q 222 90 193 99 q 278 82 250 82 q 402 118 365 82 q 439 206 439 154 m 240 7 l 338 7 l 303 -61 q 365 -76 338 -64 q 409 -110 390 -87 q 428 -174 428 -132 q 408 -244 428 -218 q 360 -284 389 -269 q 297 -303 331 -299 q 238 -307 264 -307 q 215 -306 225 -307 q 199 -306 206 -306 q 183 -304 190 -306 l 183 -224 q 197 -226 189 -225 q 212 -227 204 -226 q 229 -228 219 -228 q 285 -217 257 -228 q 314 -174 314 -207 q 294 -135 314 -146 q 249 -124 275 -124 q 215 -128 232 -124 l 190 -93 q 204 -64 196 -81 q 221 -32 213 -47 q 235 -6 229 -17 q 240 7 240 6 z "},"Ŝ":{"ha":610,"x_min":19,"x_max":578,"o":"m 439 206 q 402 293 439 263 q 304 351 365 324 q 179 412 231 383 q 97 472 128 440 q 51 540 65 503 q 38 624 38 576 q 58 711 38 671 q 117 781 79 751 q 209 826 156 810 q 326 842 263 842 q 462 820 404 842 q 563 756 519 799 l 499 681 q 433 726 479 706 q 338 746 388 746 q 217 714 258 746 q 176 624 176 682 q 189 576 176 596 q 222 540 201 556 q 269 510 242 524 q 325 483 296 497 q 450 423 401 453 q 527 360 499 393 q 567 292 556 328 q 578 214 578 257 q 557 122 578 164 q 498 50 536 81 q 405 3 460 19 q 283 -14 350 -14 q 189 -2 232 -14 q 113 26 146 10 q 56 61 79 43 q 19 92 32 79 l 76 172 q 116 142 93 158 q 166 113 139 126 q 222 90 193 99 q 278 82 250 82 q 402 118 365 82 q 439 206 439 154 m 499 932 l 376 932 l 303 993 l 231 932 l 108 932 l 264 1074 l 354 1074 q 413 1022 386 1047 q 460 976 440 996 q 490 944 479 957 q 499 932 500 932 z "},"Ș":{"ha":610,"x_min":19,"x_max":578,"o":"m 439 206 q 402 293 439 263 q 304 351 365 324 q 179 412 231 383 q 97 472 128 440 q 51 540 65 503 q 38 624 38 576 q 58 711 38 671 q 117 781 79 751 q 209 826 156 810 q 326 842 263 842 q 462 820 404 842 q 563 756 519 799 l 499 681 q 433 726 479 706 q 338 746 388 746 q 217 714 258 746 q 176 624 176 682 q 189 576 176 596 q 222 540 201 556 q 269 510 242 524 q 325 483 296 497 q 450 423 401 453 q 527 360 499 393 q 567 292 556 328 q 578 214 578 257 q 557 122 578 164 q 498 50 536 81 q 405 3 460 19 q 283 -14 350 -14 q 189 -2 232 -14 q 113 26 146 10 q 56 61 79 43 q 19 92 32 79 l 76 172 q 116 142 93 158 q 166 113 139 126 q 222 90 193 99 q 278 82 250 82 q 402 118 365 82 q 439 206 439 154 m 231 -208 l 231 -69 l 369 -69 l 369 -183 q 358 -247 369 -215 q 331 -308 347 -279 q 293 -358 314 -336 q 251 -392 272 -381 l 201 -364 q 251 -303 225 -344 q 278 -208 278 -261 l 231 -208 z "},"Ŧ":{"ha":638,"x_min":14,"x_max":625,"o":"m 389 722 l 389 0 l 250 0 l 250 722 l 14 722 l 14 819 l 625 819 l 625 722 l 389 722 m 111 344 l 111 433 l 526 433 l 526 344 l 111 344 z "},"Ť":{"ha":638,"x_min":14,"x_max":625,"o":"m 389 722 l 389 0 l 250 0 l 250 722 l 14 722 l 14 819 l 625 819 l 625 722 l 389 722 m 125 1072 l 247 1072 l 321 1011 l 393 1072 l 515 1072 l 360 931 l 269 931 q 210 983 238 957 q 164 1028 183 1008 q 134 1060 144 1047 q 125 1072 124 1072 z "},"Ţ":{"ha":638,"x_min":14,"x_max":625,"o":"m 389 722 l 389 0 l 250 0 l 250 722 l 14 722 l 14 819 l 625 819 l 625 722 l 389 722 m 264 -208 l 264 -69 l 403 -69 l 403 -183 q 392 -247 403 -215 q 364 -308 381 -279 q 326 -358 347 -336 q 285 -392 306 -381 l 235 -364 q 285 -303 258 -344 q 311 -208 311 -261 l 264 -208 z "},"Ú":{"ha":764,"x_min":69,"x_max":694,"o":"m 383 83 q 508 138 461 85 q 556 310 556 190 l 556 819 l 694 819 l 694 310 q 610 64 694 142 q 383 -14 525 -14 q 152 65 235 -12 q 69 310 69 142 l 69 819 l 208 819 l 208 310 q 254 138 208 190 q 383 83 300 85 m 326 913 q 342 935 325 913 q 379 983 358 957 q 435 1054 403 1015 l 610 1054 l 449 913 l 326 913 z "},"Ŭ":{"ha":764,"x_min":69,"x_max":694,"o":"m 383 83 q 508 138 461 85 q 556 310 556 190 l 556 819 l 694 819 l 694 310 q 610 64 694 142 q 383 -14 525 -14 q 152 65 235 -12 q 69 310 69 142 l 69 819 l 208 819 l 208 310 q 254 138 208 190 q 383 83 300 85 m 571 1019 q 567 996 571 1019 q 544 944 563 972 q 488 892 525 915 q 383 868 450 868 l 381 868 q 276 892 314 868 q 220 944 239 915 q 197 996 201 972 q 193 1019 193 1019 l 315 1019 q 336 983 315 996 q 381 971 357 971 q 426 983 406 971 q 449 1019 447 996 l 571 1019 z "},"Û":{"ha":764,"x_min":69,"x_max":694,"o":"m 383 83 q 508 138 461 85 q 556 310 556 190 l 556 819 l 694 819 l 694 310 q 610 64 694 142 q 383 -14 525 -14 q 152 65 235 -12 q 69 310 69 142 l 69 819 l 208 819 l 208 310 q 254 138 208 190 q 383 83 300 85 m 575 894 l 453 894 l 379 956 l 307 894 l 185 894 l 340 1036 l 431 1036 q 490 984 463 1010 q 536 939 517 958 q 566 907 556 919 q 575 894 576 894 z "},"Ù":{"ha":764,"x_min":69,"x_max":694,"o":"m 383 83 q 508 138 461 85 q 556 310 556 190 l 556 819 l 694 819 l 694 310 q 610 64 694 142 q 383 -14 525 -14 q 152 65 235 -12 q 69 310 69 142 l 69 819 l 208 819 l 208 310 q 254 138 208 190 q 383 83 300 85 m 447 903 l 325 903 l 164 1044 l 339 1044 q 394 974 371 1006 q 433 924 417 946 q 447 903 449 903 z "},"Ű":{"ha":764,"x_min":69,"x_max":701,"o":"m 383 83 q 508 138 461 85 q 556 310 556 190 l 556 819 l 694 819 l 694 310 q 610 64 694 142 q 383 -14 525 -14 q 152 65 235 -12 q 69 310 69 142 l 69 819 l 208 819 l 208 310 q 254 138 208 190 q 383 83 300 85 m 207 892 q 222 914 206 892 q 260 963 239 936 q 315 1033 283 994 l 490 1033 l 329 892 l 207 892 m 418 892 q 433 914 417 892 q 471 963 450 936 q 526 1033 494 994 l 701 1033 l 540 892 l 418 892 z "},"Ū":{"ha":764,"x_min":69,"x_max":694,"o":"m 383 83 q 508 138 461 85 q 556 310 556 190 l 556 819 l 694 819 l 694 310 q 610 64 694 142 q 383 -14 525 -14 q 152 65 235 -12 q 69 310 69 142 l 69 819 l 208 819 l 208 310 q 254 138 208 190 q 383 83 300 85 m 174 929 l 174 1018 l 589 1018 l 589 929 l 174 929 z "},"Ų":{"ha":764,"x_min":69,"x_max":694,"o":"m 383 83 q 508 138 461 85 q 556 310 556 190 l 556 819 l 694 819 l 694 310 q 610 64 694 142 q 383 -14 525 -14 q 152 65 235 -12 q 69 310 69 142 l 69 819 l 208 819 l 208 310 q 254 138 208 190 q 383 83 300 85 m 414 7 l 511 7 q 449 -60 474 -28 q 424 -132 424 -92 q 442 -180 424 -161 q 496 -199 460 -199 q 512 -198 504 -199 q 526 -197 519 -197 q 540 -196 533 -197 l 540 -276 q 515 -283 529 -281 q 488 -288 503 -286 q 456 -290 474 -290 q 349 -256 389 -290 q 310 -153 310 -222 q 321 -100 310 -125 q 348 -54 332 -75 q 382 -18 364 -33 q 414 7 400 -3 z "},"Ů":{"ha":764,"x_min":69,"x_max":694,"o":"m 383 83 q 508 138 461 85 q 556 310 556 190 l 556 819 l 694 819 l 694 310 q 610 64 694 142 q 383 -14 525 -14 q 152 65 235 -12 q 69 310 69 142 l 69 819 l 208 819 l 208 310 q 254 138 208 190 q 383 83 300 85 m 233 1024 q 245 1081 233 1054 q 277 1127 257 1107 q 324 1158 297 1147 q 382 1169 351 1169 q 440 1158 413 1169 q 487 1127 467 1147 q 519 1081 507 1107 q 531 1024 531 1054 q 519 968 531 994 q 487 922 507 942 q 440 890 467 901 q 382 879 413 879 q 324 890 351 879 q 277 922 297 901 q 245 968 257 942 q 233 1024 233 994 m 319 1022 q 338 979 319 996 q 382 963 356 963 q 427 979 408 963 q 446 1022 446 996 q 427 1067 446 1049 q 382 1086 408 1086 q 338 1067 356 1086 q 319 1022 319 1049 z "},"Ũ":{"ha":764,"x_min":69,"x_max":694,"o":"m 383 83 q 508 138 461 85 q 556 310 556 190 l 556 819 l 694 819 l 694 310 q 610 64 694 142 q 383 -14 525 -14 q 152 65 235 -12 q 69 310 69 142 l 69 819 l 208 819 l 208 310 q 254 138 208 190 q 383 83 300 85 m 624 1038 q 615 1022 624 1038 q 585 986 606 1006 q 534 951 565 967 q 458 935 503 935 q 404 941 425 935 q 366 956 383 947 q 331 970 349 964 q 283 976 313 976 q 247 969 263 976 q 219 953 231 961 q 197 928 207 942 q 168 950 182 940 q 148 965 157 958 q 139 971 139 971 q 148 987 139 971 q 177 1022 157 1003 q 229 1058 197 1042 q 304 1074 261 1074 q 353 1067 333 1074 q 392 1053 374 1061 q 430 1038 410 1044 q 478 1032 450 1032 q 515 1040 499 1032 q 543 1057 532 1047 q 565 1081 556 1067 q 594 1058 581 1068 q 615 1044 606 1050 q 624 1038 624 1038 z "},"Ẃ":{"ha":1089,"x_min":14,"x_max":1076,"o":"m 701 0 l 544 622 l 386 0 l 240 0 l 14 819 l 157 819 l 315 181 l 472 819 l 618 819 l 776 181 l 933 819 l 1076 819 l 847 0 l 701 0 m 404 932 q 419 954 403 932 q 457 1003 436 976 q 513 1074 481 1035 l 688 1074 l 526 932 l 404 932 z "},"Ŵ":{"ha":1089,"x_min":14,"x_max":1076,"o":"m 701 0 l 544 622 l 386 0 l 240 0 l 14 819 l 157 819 l 315 181 l 472 819 l 618 819 l 776 181 l 933 819 l 1076 819 l 847 0 l 701 0 m 738 932 l 615 932 l 542 993 l 469 932 l 347 932 l 503 1074 l 593 1074 q 652 1022 625 1047 q 699 976 679 996 q 728 944 718 957 q 738 932 739 932 z "},"Ẅ":{"ha":1089,"x_min":14,"x_max":1076,"o":"m 701 0 l 544 622 l 386 0 l 240 0 l 14 819 l 157 819 l 315 181 l 472 819 l 618 819 l 776 181 l 933 819 l 1076 819 l 847 0 l 701 0 m 378 936 l 378 1075 l 517 1075 l 517 936 l 378 936 m 572 936 l 572 1075 l 711 1075 l 711 936 l 572 936 z "},"Ẁ":{"ha":1089,"x_min":14,"x_max":1076,"o":"m 701 0 l 544 622 l 386 0 l 240 0 l 14 819 l 157 819 l 315 181 l 472 819 l 618 819 l 776 181 l 933 819 l 1076 819 l 847 0 l 701 0 m 683 932 l 561 932 l 400 1074 l 575 1074 q 631 1003 607 1035 q 669 953 653 975 q 683 932 685 932 z "},"Ý":{"ha":726,"x_min":28,"x_max":700,"o":"m 294 325 l 28 819 l 172 819 l 364 444 l 556 819 l 700 819 l 433 325 l 433 0 l 294 0 l 294 325 m 224 932 q 239 954 222 932 q 276 1003 256 976 q 332 1074 300 1035 l 507 1074 l 346 932 l 224 932 z "},"Ŷ":{"ha":726,"x_min":28,"x_max":700,"o":"m 294 325 l 28 819 l 172 819 l 364 444 l 556 819 l 700 819 l 433 325 l 433 0 l 294 0 l 294 325 m 557 932 l 435 932 l 361 993 l 289 932 l 167 932 l 322 1074 l 413 1074 q 472 1022 444 1047 q 518 976 499 996 q 548 944 538 957 q 557 932 558 932 z "},"Ÿ":{"ha":726,"x_min":28,"x_max":700,"o":"m 294 325 l 28 819 l 172 819 l 364 444 l 556 819 l 700 819 l 433 325 l 433 0 l 294 0 l 294 325 m 196 936 l 196 1075 l 335 1075 l 335 936 l 196 936 m 390 936 l 390 1075 l 529 1075 l 529 936 l 390 936 z "},"Ỳ":{"ha":726,"x_min":28,"x_max":700,"o":"m 294 325 l 28 819 l 172 819 l 364 444 l 556 819 l 700 819 l 433 325 l 433 0 l 294 0 l 294 325 m 503 932 l 381 932 l 219 1074 l 394 1074 q 450 1003 426 1035 q 488 953 472 975 q 503 932 504 932 z "},"Ź":{"ha":585,"x_min":14,"x_max":569,"o":"m 569 736 l 181 97 l 569 97 l 569 0 l 14 0 l 14 83 l 403 722 l 14 722 l 14 819 l 569 819 l 569 736 m 153 932 q 168 954 151 932 q 206 1003 185 976 q 261 1074 229 1035 l 436 1074 l 275 932 l 153 932 z "},"Ž":{"ha":585,"x_min":14,"x_max":569,"o":"m 569 736 l 181 97 l 569 97 l 569 0 l 14 0 l 14 83 l 403 722 l 14 722 l 14 819 l 569 819 l 569 736 m 99 1072 l 221 1072 l 294 1011 l 367 1072 l 489 1072 l 333 931 l 243 931 q 184 983 211 957 q 138 1028 157 1008 q 108 1060 118 1047 q 99 1072 97 1072 z "},"Ż":{"ha":585,"x_min":14,"x_max":569,"o":"m 569 736 l 181 97 l 569 97 l 569 0 l 14 0 l 14 83 l 403 722 l 14 722 l 14 819 l 569 819 l 569 736 m 222 936 l 222 1075 l 361 1075 l 361 936 l 222 936 z "},":":{"ha":264,"x_min":69,"x_max":208,"o":"m 69 0 l 69 139 l 208 139 l 208 0 l 69 0 m 69 417 l 69 556 l 208 556 l 208 417 l 69 417 z "},";":{"ha":264,"x_min":40,"x_max":208,"o":"m 69 0 l 69 139 l 208 139 l 208 25 q 197 -39 208 -7 q 169 -99 186 -71 q 132 -150 153 -128 q 90 -183 111 -172 l 40 -156 q 90 -94 64 -136 q 117 0 117 -53 l 69 0 m 69 417 l 69 556 l 208 556 l 208 417 l 69 417 z "},"ú":{"ha":579,"x_min":56,"x_max":526,"o":"m 194 556 l 194 168 q 209 110 194 133 q 264 88 224 88 q 319 96 285 88 q 388 124 353 104 l 388 556 l 526 556 l 526 0 l 388 0 l 388 43 q 306 7 350 22 q 219 -8 263 -8 q 100 28 144 -8 q 56 163 56 64 l 56 556 l 194 556 m 215 668 q 231 690 214 668 q 268 739 247 713 q 324 810 292 771 l 499 810 l 338 668 l 215 668 z "},"ŭ":{"ha":579,"x_min":56,"x_max":526,"o":"m 194 556 l 194 168 q 209 110 194 133 q 264 88 224 88 q 319 96 285 88 q 388 124 353 104 l 388 556 l 526 556 l 526 0 l 388 0 l 388 43 q 306 7 350 22 q 219 -8 263 -8 q 100 28 144 -8 q 56 163 56 64 l 56 556 l 194 556 m 478 808 q 474 785 478 808 q 451 733 469 761 q 394 681 432 704 q 290 657 357 657 l 288 657 q 183 681 221 657 q 127 733 146 704 q 104 785 108 761 q 100 808 100 808 l 222 808 q 243 772 222 785 q 288 760 264 760 q 333 772 313 760 q 356 808 354 785 l 478 808 z "},"û":{"ha":579,"x_min":56,"x_max":526,"o":"m 194 556 l 194 168 q 209 110 194 133 q 264 88 224 88 q 319 96 285 88 q 388 124 353 104 l 388 556 l 526 556 l 526 0 l 388 0 l 388 43 q 306 7 350 22 q 219 -8 263 -8 q 100 28 144 -8 q 56 163 56 64 l 56 556 l 194 556 m 483 668 l 361 668 l 288 729 l 215 668 l 93 668 l 249 810 l 339 810 q 398 758 371 783 q 444 713 425 732 q 474 681 464 693 q 483 668 485 668 z "},"ű":{"ha":579,"x_min":56,"x_max":610,"o":"m 194 556 l 194 168 q 209 110 194 133 q 264 88 224 88 q 319 96 285 88 q 388 124 353 104 l 388 556 l 526 556 l 526 0 l 388 0 l 388 43 q 306 7 350 22 q 219 -8 263 -8 q 100 28 144 -8 q 56 163 56 64 l 56 556 l 194 556 m 115 668 q 131 690 114 668 q 168 739 147 713 q 224 810 192 771 l 399 810 l 238 668 l 115 668 m 326 668 q 342 690 325 668 q 379 739 358 713 q 435 810 403 771 l 610 810 l 449 668 l 326 668 z "},"ù":{"ha":579,"x_min":56,"x_max":526,"o":"m 194 556 l 194 168 q 209 110 194 133 q 264 88 224 88 q 319 96 285 88 q 388 124 353 104 l 388 556 l 526 556 l 526 0 l 388 0 l 388 43 q 306 7 350 22 q 219 -8 263 -8 q 100 28 144 -8 q 56 163 56 64 l 56 556 l 194 556 m 367 668 l 244 668 l 83 810 l 258 810 q 314 739 290 771 q 352 690 336 711 q 367 668 368 668 z "},"ū":{"ha":579,"x_min":56,"x_max":526,"o":"m 194 556 l 194 168 q 209 110 194 133 q 264 88 224 88 q 319 96 285 88 q 388 124 353 104 l 388 556 l 526 556 l 526 0 l 388 0 l 388 43 q 306 7 350 22 q 219 -8 263 -8 q 100 28 144 -8 q 56 163 56 64 l 56 556 l 194 556 m 82 665 l 82 754 l 497 754 l 497 665 l 82 665 z "},"ų":{"ha":579,"x_min":56,"x_max":526,"o":"m 194 556 l 194 168 q 209 110 194 133 q 264 88 224 88 q 319 96 285 88 q 388 124 353 104 l 388 556 l 526 556 l 526 0 l 388 0 l 388 43 q 306 7 350 22 q 219 -8 263 -8 q 100 28 144 -8 q 56 163 56 64 l 56 556 l 194 556 m 400 7 l 497 7 q 435 -60 460 -28 q 410 -132 410 -92 q 428 -180 410 -161 q 482 -199 446 -199 q 498 -198 490 -199 q 513 -197 506 -197 q 526 -196 519 -197 l 526 -276 q 501 -283 515 -281 q 474 -288 489 -286 q 442 -290 460 -290 q 335 -256 375 -290 q 296 -153 296 -222 q 307 -100 296 -125 q 334 -54 318 -75 q 368 -18 350 -33 q 400 7 386 -3 z "},"ů":{"ha":579,"x_min":56,"x_max":526,"o":"m 194 556 l 194 168 q 209 110 194 133 q 264 88 224 88 q 319 96 285 88 q 388 124 353 104 l 388 556 l 526 556 l 526 0 l 388 0 l 388 43 q 306 7 350 22 q 219 -8 263 -8 q 100 28 144 -8 q 56 163 56 64 l 56 556 l 194 556 m 140 760 q 152 817 140 790 q 184 863 164 843 q 231 894 204 883 q 289 906 258 906 q 347 894 319 906 q 394 863 374 883 q 426 817 414 843 q 438 760 438 790 q 426 704 438 731 q 394 658 414 678 q 347 626 374 638 q 289 615 319 615 q 231 626 258 615 q 184 658 204 638 q 152 704 164 678 q 140 760 140 731 m 226 758 q 244 715 226 732 q 289 699 263 699 q 334 715 315 699 q 353 758 353 732 q 334 803 353 785 q 289 822 315 822 q 244 803 263 822 q 226 758 226 785 z "},"ũ":{"ha":579,"x_min":46,"x_max":531,"o":"m 193 556 l 193 168 q 208 110 193 133 q 263 88 222 88 q 317 96 283 88 q 386 124 351 104 l 386 556 l 525 556 l 525 0 l 386 0 l 386 43 q 305 7 349 22 q 218 -8 261 -8 q 99 28 143 -8 q 54 163 54 64 l 54 556 l 193 556 m 531 774 q 522 758 531 774 q 492 722 513 742 q 441 687 472 703 q 365 671 410 671 q 311 677 332 671 q 273 692 290 683 q 238 706 256 700 q 190 713 219 713 q 153 705 169 713 q 126 689 138 697 q 104 664 114 678 q 75 686 89 676 q 55 701 64 694 q 46 707 46 707 q 55 723 46 707 q 84 758 64 739 q 136 794 104 778 q 211 810 168 810 q 260 803 240 810 q 299 789 281 797 q 337 774 317 781 q 385 768 357 768 q 422 776 406 768 q 450 793 439 783 q 472 817 463 803 q 501 794 488 804 q 522 780 513 786 q 531 774 531 774 z "},"ﬆ":{"ha":876,"x_min":17,"x_max":836,"o":"m 489 472 l 489 556 l 572 556 l 572 683 q 560 742 572 715 q 528 790 549 769 q 481 822 508 810 q 422 833 454 833 q 364 822 392 833 q 316 790 336 810 q 284 742 296 769 q 272 683 272 715 q 297 601 272 639 q 358 546 321 564 q 414 519 390 535 q 449 490 438 504 l 386 419 q 331 458 367 447 q 268 468 294 468 q 171 401 171 468 q 194 365 171 381 q 250 338 218 349 q 344 305 303 321 q 413 269 385 289 q 455 222 440 249 q 469 156 469 194 q 451 82 469 114 q 401 28 433 50 q 326 -4 369 7 q 231 -15 282 -15 q 97 10 146 -15 q 17 63 49 36 l 68 142 q 105 113 83 125 q 149 94 126 101 q 192 84 171 88 q 225 81 213 81 q 306 97 282 81 q 331 147 331 113 q 309 183 331 167 q 251 210 288 199 q 88 285 143 244 q 32 393 32 325 q 94 519 32 475 q 253 564 157 563 q 210 697 210 619 q 229 793 210 750 q 282 867 249 836 q 361 916 315 899 q 458 933 407 933 q 557 918 511 933 q 637 875 603 903 q 691 806 671 847 q 711 713 711 765 l 711 556 l 836 556 l 836 472 l 711 472 l 711 163 q 726 105 711 128 q 781 82 740 82 q 806 83 792 82 q 836 90 819 85 l 836 6 q 787 -8 811 -3 q 736 -14 763 -14 q 617 22 661 -14 q 572 157 572 58 l 572 472 l 489 472 z "},"ŧ":{"ha":394,"x_min":14,"x_max":365,"o":"m 14 472 l 14 556 l 97 556 l 97 681 l 236 708 l 236 556 l 361 556 l 361 472 l 236 472 l 236 163 q 251 105 236 128 q 306 82 265 82 q 331 83 317 82 q 361 90 344 85 l 361 6 q 313 -8 338 -3 q 261 -14 288 -14 q 142 22 186 -14 q 97 157 97 58 l 97 472 l 14 472 m 15 227 l 15 317 l 365 317 l 365 227 l 15 227 z "},"Ł":{"ha":653,"x_min":19,"x_max":625,"o":"m 19 243 l 374 460 l 374 553 l 19 336 l 19 243 m 106 0 l 625 0 l 625 97 l 244 97 l 244 819 l 106 819 l 106 0 z "},"Þ":{"ha":683,"x_min":69,"x_max":640,"o":"m 69 0 l 69 819 l 208 819 l 208 667 l 333 667 q 447 655 392 667 q 546 614 503 643 q 615 534 589 585 q 640 406 640 483 q 616 295 640 340 q 552 222 592 250 q 460 180 513 193 q 351 167 408 167 l 208 167 l 208 0 l 69 0 m 501 403 q 456 533 501 494 q 326 571 411 571 l 208 571 l 208 263 l 339 263 q 417 274 386 263 q 467 306 449 286 q 494 351 486 325 q 501 403 501 376 z "},"þ":{"ha":636,"x_min":56,"x_max":601,"o":"m 600 268 q 588 170 601 221 q 545 79 575 119 q 467 13 515 39 q 349 -14 418 -14 q 194 53 249 -14 l 194 -236 l 56 -236 l 56 833 l 194 833 l 194 493 q 259 545 221 526 q 349 564 297 564 q 466 538 418 564 q 544 471 514 511 q 587 381 574 431 q 600 282 600 331 l 600 268 m 194 385 l 194 161 q 235 106 207 129 q 319 82 263 82 l 321 82 q 396 106 368 82 q 438 160 424 129 q 457 224 453 192 q 461 274 461 257 l 461 276 q 457 326 461 293 q 438 390 453 358 q 396 444 424 421 q 319 468 368 468 q 235 442 263 468 q 194 385 207 417 z "},"Ð":{"ha":801,"x_min":-33,"x_max":754,"o":"m 69 0 l 69 819 l 346 819 q 496 793 422 819 q 626 715 569 767 q 719 585 683 663 q 754 406 754 508 q 723 224 754 300 q 639 97 692 147 q 515 24 586 47 q 364 0 443 0 l 69 0 m 615 403 q 592 545 615 485 q 529 645 568 606 q 441 704 490 685 q 339 724 392 724 l 208 724 l 208 96 l 351 96 q 547 176 479 96 q 615 403 615 256 m -33 374 l -33 463 l 382 463 l 382 374 l -33 374 z "},"ð":{"ha":625,"x_min":32,"x_max":592,"o":"m 171 276 l 171 274 q 173 224 171 257 q 188 160 175 192 q 230 106 201 129 q 310 82 258 82 l 311 82 q 392 106 364 82 q 433 160 419 129 q 449 224 447 192 q 451 274 451 257 l 451 276 q 449 326 451 293 q 433 390 447 358 q 391 444 419 421 q 310 468 363 468 q 230 444 258 468 q 188 390 201 421 q 173 326 175 358 q 171 276 171 293 m 213 608 l 190 671 l 294 717 q 227 767 263 744 q 157 808 192 790 l 197 857 q 382 756 297 824 l 506 810 l 528 747 l 436 707 q 549 538 507 635 q 590 324 590 442 q 578 217 592 276 q 531 107 564 158 q 444 21 499 56 q 311 -14 390 -14 q 178 13 232 -14 q 92 79 124 39 q 46 170 60 119 q 32 268 32 221 l 32 282 q 47 381 32 331 q 93 471 61 431 q 175 538 125 511 q 297 564 225 564 q 361 554 324 564 q 424 521 399 544 q 392 599 413 563 q 346 667 372 635 l 213 608 z "},"ſ":{"ha":379,"x_min":14,"x_max":389,"o":"m 14 472 l 14 556 l 97 556 l 97 621 q 151 765 97 711 q 294 819 204 819 q 341 817 314 819 q 389 808 368 814 l 389 717 q 351 722 372 719 q 319 724 331 724 q 274 713 290 724 q 249 687 257 703 q 238 651 240 671 q 236 615 236 632 l 236 0 l 97 0 l 97 472 l 14 472 z "},"ﬅ":{"ha":749,"x_min":14,"x_max":713,"o":"m 588 750 l 588 556 l 713 556 l 713 472 l 588 472 l 588 163 q 602 105 588 128 q 657 82 617 82 q 682 83 668 82 q 713 90 696 85 l 713 6 q 664 -8 689 -3 q 613 -14 639 -14 q 493 22 538 -14 q 449 157 449 58 l 449 472 l 365 472 l 365 556 l 449 556 l 449 708 q 406 724 428 719 q 364 728 385 728 q 274 699 313 728 q 236 615 236 671 l 236 0 l 97 0 l 97 472 l 14 472 l 14 556 l 97 556 l 97 621 q 120 708 97 671 q 178 771 143 746 q 256 808 214 796 q 336 819 297 819 q 412 815 379 819 q 474 802 444 811 q 530 780 503 793 q 588 750 557 767 z "},"ŋ":{"ha":579,"x_min":56,"x_max":526,"o":"m 388 -56 l 388 388 q 373 445 388 422 q 318 468 358 468 q 263 460 297 468 q 194 432 229 451 l 194 0 l 56 0 l 56 556 l 194 556 l 194 513 q 276 549 232 533 q 363 564 319 564 q 482 528 438 564 q 526 393 526 492 l 526 -56 q 481 -190 526 -126 q 369 -290 436 -254 l 281 -225 q 355 -155 324 -199 q 388 -56 386 -111 z "},"Ŋ":{"ha":765,"x_min":69,"x_max":708,"o":"m 439 -167 q 490 -160 467 -167 q 532 -138 514 -154 q 560 -94 550 -122 q 569 -24 569 -67 l 569 21 l 208 583 l 208 0 l 69 0 l 69 819 l 194 819 l 569 250 l 569 819 l 708 819 l 708 -24 q 689 -140 708 -94 q 635 -214 669 -186 q 553 -253 600 -242 q 453 -264 507 -264 q 415 -262 439 -264 q 376 -256 392 -260 l 388 -161 q 412 -165 399 -164 q 439 -167 425 -167 z "},"⁰":{"ha":439,"x_min":60,"x_max":381,"o":"m 381 615 q 340 458 381 514 q 221 401 300 401 q 100 458 140 401 q 60 615 60 514 q 100 769 60 711 q 221 828 140 828 q 340 769 300 828 q 381 615 381 711 m 129 614 q 134 550 129 581 q 149 497 139 519 q 177 462 160 475 q 219 449 194 449 l 221 449 q 265 462 247 449 q 292 497 282 475 q 307 550 303 519 q 311 614 311 581 q 292 732 311 683 q 219 781 272 781 q 149 732 168 781 q 129 614 129 683 z "},"¹":{"ha":418,"x_min":83,"x_max":324,"o":"m 174 463 l 174 758 q 131 734 156 744 q 83 717 107 724 l 83 764 q 188 819 140 781 l 242 819 l 242 463 l 324 463 l 324 414 l 83 414 l 83 463 l 174 463 z "},"²":{"ha":449,"x_min":79,"x_max":375,"o":"m 371 731 q 338 638 371 675 q 266 571 306 600 q 193 517 226 542 q 160 464 160 492 l 375 464 l 375 415 l 79 415 l 79 421 q 95 494 79 464 q 135 549 111 525 q 189 594 160 574 q 242 634 218 614 q 283 677 267 654 q 300 731 300 700 q 280 777 300 761 q 225 793 260 793 q 162 772 181 793 q 136 731 143 750 l 82 750 q 98 781 88 765 q 126 810 108 797 q 167 833 143 824 q 224 842 192 842 q 333 810 294 842 q 371 731 371 779 z "},"³":{"ha":439,"x_min":67,"x_max":381,"o":"m 169 604 l 169 650 l 218 650 q 273 672 251 650 q 294 731 294 693 q 274 776 294 760 q 219 793 254 793 q 156 771 175 793 q 129 729 136 749 l 75 749 q 92 781 81 764 q 120 810 103 797 q 162 833 138 824 q 218 842 186 842 q 325 812 285 842 q 365 731 365 782 q 348 667 365 692 q 307 628 331 643 q 358 589 335 614 q 381 524 381 564 q 339 439 381 472 q 218 406 297 406 q 121 425 154 406 q 67 467 88 444 l 106 508 q 148 474 121 493 q 219 454 175 454 q 286 474 264 454 q 308 524 308 494 q 284 583 308 561 q 218 604 260 604 l 169 604 z "},"⁴":{"ha":431,"x_min":72,"x_max":378,"o":"m 72 522 l 72 574 q 123 634 92 596 q 185 710 154 672 q 240 780 215 749 q 269 819 264 811 l 324 819 l 324 571 l 378 571 l 378 522 l 324 522 l 324 415 l 256 415 l 256 522 l 72 522 m 256 738 q 219 687 253 735 q 126 571 186 639 l 256 571 l 256 738 z "},"⁵":{"ha":432,"x_min":67,"x_max":371,"o":"m 82 613 l 110 819 l 346 819 l 346 771 l 164 771 l 144 644 q 183 660 161 653 q 228 667 204 667 q 251 665 228 667 q 300 652 274 664 q 349 613 326 640 q 371 535 371 586 q 331 447 371 485 q 214 408 290 408 q 119 428 151 408 q 67 468 88 447 l 106 508 q 145 474 119 493 q 215 456 171 456 q 280 478 258 456 q 301 531 301 501 q 281 594 301 567 q 214 621 261 621 q 157 612 183 621 q 111 590 131 603 l 82 613 z "},"⁶":{"ha":439,"x_min":64,"x_max":390,"o":"m 390 540 q 349 444 390 486 q 229 403 307 403 q 106 456 149 403 q 64 617 64 508 q 74 697 64 657 q 107 769 85 736 q 163 822 129 801 q 243 842 196 842 q 299 833 275 842 q 342 810 324 824 q 370 780 360 796 q 386 749 381 764 l 332 729 q 306 770 325 749 q 242 792 288 792 q 192 778 213 792 q 159 741 172 764 q 140 690 146 718 q 135 633 135 661 q 183 667 153 657 q 240 678 213 678 q 306 666 278 678 q 352 635 333 654 q 381 590 371 615 q 390 540 390 565 m 139 535 q 160 478 139 506 q 225 451 182 451 q 298 478 278 451 q 318 535 318 504 q 298 598 318 568 q 225 628 278 628 q 159 598 179 628 q 139 535 139 568 z "},"⁷":{"ha":436,"x_min":97,"x_max":378,"o":"m 378 819 l 378 778 q 316 691 344 738 q 267 597 288 644 q 232 502 246 549 q 214 415 218 456 l 146 415 q 162 499 149 454 q 197 589 175 543 q 247 681 218 635 q 310 771 276 728 l 97 771 l 97 819 l 378 819 z "},"⁸":{"ha":443,"x_min":61,"x_max":390,"o":"m 226 403 l 224 403 q 103 437 144 403 q 61 524 61 471 q 83 588 61 564 q 135 626 106 613 q 93 663 111 642 q 75 722 75 685 q 116 808 75 775 q 224 842 157 842 l 226 842 q 334 808 293 842 q 375 722 375 775 q 358 663 375 685 q 317 626 340 642 q 367 588 344 613 q 390 524 390 564 q 348 437 390 471 q 226 403 306 403 m 228 601 l 222 601 q 156 581 181 601 q 132 524 132 561 q 155 472 132 493 q 222 451 178 451 l 228 451 q 295 472 272 451 q 318 524 318 493 q 294 581 318 561 q 228 601 269 601 m 228 792 l 222 792 q 167 772 188 792 q 146 722 146 753 q 167 667 146 685 q 222 649 189 649 l 228 649 q 283 667 261 649 q 304 722 304 685 q 283 772 304 753 q 228 792 263 792 z "},"⁹":{"ha":460,"x_min":64,"x_max":392,"o":"m 64 692 q 74 747 64 719 q 105 794 85 774 q 155 828 125 815 q 224 842 185 842 q 349 788 306 842 q 392 626 392 735 q 381 547 392 588 q 349 474 371 507 q 292 422 326 442 q 211 401 258 401 q 131 413 158 401 q 79 442 104 425 l 108 478 q 149 459 126 468 q 204 450 171 450 q 286 492 253 450 q 319 596 319 533 q 272 562 301 572 q 214 551 242 551 q 149 564 176 551 q 102 596 121 576 q 74 641 83 615 q 64 692 64 667 m 315 697 q 310 729 315 713 q 294 760 304 746 q 267 783 283 774 q 229 792 250 792 l 228 792 q 183 783 201 792 q 155 760 165 774 q 140 729 144 746 q 135 697 135 713 q 140 663 135 681 q 155 632 144 646 q 184 609 165 618 q 229 600 203 600 q 269 609 253 600 q 295 633 285 618 q 310 664 306 647 q 315 697 315 681 z "},"₀":{"ha":439,"x_min":60,"x_max":381,"o":"m 381 199 q 340 41 381 97 q 221 -15 300 -15 q 100 41 140 -15 q 60 199 60 97 q 100 353 60 294 q 221 411 140 411 q 340 353 300 411 q 381 199 381 294 m 129 197 q 134 133 129 164 q 149 81 139 103 q 177 45 160 58 q 219 32 194 32 l 221 32 q 265 45 247 32 q 292 81 282 58 q 307 133 303 103 q 311 197 311 164 q 292 315 311 267 q 219 364 272 364 q 149 315 168 364 q 129 197 129 267 z "},"₁":{"ha":418,"x_min":83,"x_max":324,"o":"m 174 49 l 174 344 q 131 320 156 331 q 83 303 107 310 l 83 350 q 188 406 140 367 l 242 406 l 242 49 l 324 49 l 324 0 l 83 0 l 83 49 l 174 49 z "},"₂":{"ha":449,"x_min":79,"x_max":375,"o":"m 371 315 q 338 222 371 260 q 266 156 306 185 q 193 101 226 126 q 160 49 160 76 l 375 49 l 375 0 l 79 0 l 79 6 q 95 79 79 49 q 135 134 111 110 q 189 178 160 158 q 242 219 218 199 q 283 262 267 239 q 300 315 300 285 q 280 362 300 346 q 225 378 260 378 q 162 356 181 378 q 136 315 143 335 l 82 335 q 98 366 88 350 q 126 395 108 382 q 167 417 143 408 q 224 426 192 426 q 333 395 294 426 q 371 315 371 364 z "},"₃":{"ha":439,"x_min":67,"x_max":381,"o":"m 169 190 l 169 236 l 218 236 q 273 258 251 236 q 294 317 294 279 q 274 363 294 346 q 219 379 254 379 q 156 357 175 379 q 129 315 136 335 l 75 335 q 92 367 81 350 q 120 397 103 383 q 162 419 138 410 q 218 428 186 428 q 325 398 285 428 q 365 317 365 368 q 348 253 365 278 q 307 214 331 229 q 358 175 335 200 q 381 110 381 150 q 339 25 381 58 q 218 -8 297 -8 q 121 11 154 -8 q 67 53 88 31 l 106 94 q 148 60 121 79 q 219 40 175 40 q 286 60 264 40 q 308 110 308 81 q 284 169 308 147 q 218 190 260 190 l 169 190 z "},"₄":{"ha":431,"x_min":72,"x_max":378,"o":"m 72 107 l 72 158 q 123 219 92 181 q 185 295 154 257 q 240 365 215 333 q 269 404 264 396 l 324 404 l 324 156 l 378 156 l 378 107 l 324 107 l 324 0 l 256 0 l 256 107 l 72 107 m 256 322 q 219 272 253 319 q 126 156 186 224 l 256 156 l 256 322 z "},"₅":{"ha":432,"x_min":67,"x_max":371,"o":"m 82 199 l 110 406 l 346 406 l 346 357 l 164 357 l 144 231 q 183 246 161 239 q 228 253 204 253 q 251 251 228 253 q 300 238 274 250 q 349 199 326 226 q 371 121 371 172 q 331 33 371 71 q 214 -6 290 -6 q 119 14 151 -6 q 67 54 88 33 l 106 94 q 145 60 119 79 q 215 42 171 42 q 280 65 258 42 q 301 117 301 88 q 281 180 301 153 q 214 207 261 207 q 157 198 183 207 q 111 176 131 189 l 82 199 z "},"₆":{"ha":439,"x_min":64,"x_max":390,"o":"m 390 133 q 349 38 390 79 q 229 -4 307 -4 q 106 49 149 -4 q 64 210 64 101 q 74 290 64 250 q 107 362 85 329 q 163 415 129 394 q 243 435 196 435 q 299 426 275 435 q 342 403 324 417 q 370 373 360 389 q 386 342 381 357 l 332 322 q 306 363 325 342 q 242 385 288 385 q 192 371 213 385 q 159 334 172 357 q 140 283 146 311 q 135 226 135 254 q 183 260 153 250 q 240 271 213 271 q 306 259 278 271 q 352 228 333 247 q 381 183 371 208 q 390 133 390 158 m 139 128 q 160 72 139 99 q 225 44 182 44 q 298 71 278 44 q 318 128 318 97 q 298 191 318 161 q 225 221 278 221 q 159 191 179 221 q 139 128 139 161 z "},"₇":{"ha":436,"x_min":97,"x_max":378,"o":"m 378 403 l 378 361 q 316 274 344 321 q 267 180 288 228 q 232 85 246 132 q 214 -1 218 39 l 146 -1 q 162 82 149 38 q 197 172 175 126 q 247 265 218 218 q 310 354 276 311 l 97 354 l 97 403 l 378 403 z "},"₈":{"ha":443,"x_min":61,"x_max":390,"o":"m 226 -14 l 224 -14 q 103 20 144 -14 q 61 107 61 54 q 83 172 61 147 q 135 210 106 196 q 93 247 111 225 q 75 306 75 268 q 116 392 75 358 q 224 425 157 425 l 226 425 q 334 392 293 425 q 375 306 375 358 q 358 247 375 268 q 317 210 340 225 q 367 172 344 196 q 390 107 390 147 q 348 20 390 54 q 226 -14 306 -14 m 228 185 l 222 185 q 156 165 181 185 q 132 107 132 144 q 155 56 132 76 q 222 35 178 35 l 228 35 q 295 56 272 35 q 318 107 318 76 q 294 165 318 144 q 228 185 269 185 m 228 375 l 222 375 q 167 356 188 375 q 146 306 146 336 q 167 250 146 268 q 222 232 189 232 l 228 232 q 283 250 261 232 q 304 306 304 268 q 283 356 304 336 q 228 375 263 375 z "},"₉":{"ha":460,"x_min":64,"x_max":392,"o":"m 64 281 q 74 335 64 308 q 105 383 85 363 q 155 417 125 404 q 224 431 185 431 q 349 377 306 431 q 392 215 392 324 q 381 136 392 176 q 349 63 371 96 q 292 10 326 31 q 211 -10 258 -10 q 131 2 158 -10 q 79 31 104 14 l 108 67 q 149 48 126 57 q 204 39 171 39 q 286 81 253 39 q 319 185 319 122 q 272 151 301 161 q 214 140 242 140 q 149 153 176 140 q 102 185 121 165 q 74 230 83 204 q 64 281 64 256 m 315 286 q 310 318 315 301 q 294 349 304 335 q 267 372 283 363 q 229 381 250 381 l 228 381 q 183 372 201 381 q 155 349 165 363 q 140 318 144 335 q 135 286 135 301 q 140 252 135 269 q 155 221 144 235 q 184 198 165 207 q 229 189 203 189 q 269 198 253 189 q 295 222 285 207 q 310 253 306 236 q 315 286 315 269 z "},"…":{"ha":829,"x_min":69,"x_max":761,"o":"m 69 0 l 69 139 l 208 139 l 208 0 l 69 0 m 346 0 l 346 139 l 485 139 l 485 0 l 346 0 m 622 0 l 622 139 l 761 139 l 761 0 l 622 0 z "},"~":{"ha":719,"x_min":25,"x_max":688,"o":"m 688 350 q 672 330 688 350 q 627 285 656 310 q 560 239 599 260 q 478 218 522 218 q 408 231 444 218 q 337 258 372 243 q 268 284 301 272 q 206 296 235 296 q 163 284 185 296 q 124 257 142 272 q 83 218 103 240 q 54 240 68 231 q 34 255 43 249 q 25 261 25 261 q 40 281 25 261 q 81 326 54 301 q 146 372 108 351 q 226 393 183 393 q 291 381 256 393 q 363 355 326 369 q 434 328 399 340 q 497 315 469 315 q 542 327 518 315 q 585 354 565 339 q 629 393 607 371 q 658 371 644 381 q 678 356 669 363 q 688 350 688 350 z "},"¢":{"ha":518,"x_min":32,"x_max":497,"o":"m 286 -175 l 286 -12 q 165 19 214 -8 q 87 85 117 46 q 44 174 57 125 q 32 268 32 222 l 32 282 q 44 376 32 328 q 87 464 57 424 q 165 531 117 504 q 286 563 214 558 l 286 703 l 361 703 l 361 561 q 442 545 410 556 q 497 525 475 535 l 474 433 q 420 455 451 447 q 361 465 389 463 l 361 83 q 472 118 422 92 l 497 25 q 441 5 475 15 q 361 -11 407 -6 l 361 -175 l 286 -175 m 171 276 l 171 274 q 174 231 171 258 q 190 174 178 203 q 224 119 201 144 q 286 86 247 94 l 286 464 q 224 430 247 454 q 190 376 201 406 q 174 319 178 347 q 171 276 171 292 z "},"£":{"ha":646,"x_min":24,"x_max":622,"o":"m 617 97 l 617 0 l 97 0 l 97 347 l 24 347 l 24 444 l 97 444 l 97 596 q 118 688 97 643 q 177 766 139 732 q 269 821 215 800 q 386 842 322 842 q 522 820 464 842 q 622 756 579 799 l 558 681 q 493 726 539 706 q 397 746 447 746 q 328 733 358 746 q 278 700 299 721 q 247 652 257 679 q 236 596 236 625 l 236 444 l 464 444 l 464 347 l 236 347 l 236 97 l 617 97 z "},"¥":{"ha":726,"x_min":28,"x_max":700,"o":"m 294 367 l 294 0 l 433 0 l 433 367 l 700 819 l 556 819 l 364 486 l 172 819 l 28 819 l 294 367 m 163 221 l 564 221 l 564 310 l 163 310 l 163 221 m 163 82 l 564 82 l 564 171 l 163 171 l 163 82 z "},"€":{"ha":643,"x_min":24,"x_max":596,"o":"m 24 296 l 24 385 l 101 385 l 101 435 l 24 435 l 24 524 l 108 524 q 208 756 129 671 q 422 842 286 842 q 596 790 524 842 l 596 672 q 556 702 579 689 q 509 725 533 715 q 462 740 485 735 q 421 746 439 746 q 299 684 340 746 q 246 524 258 622 l 522 524 l 494 435 l 240 435 l 240 385 l 482 385 l 454 296 l 247 296 q 300 142 260 203 q 421 82 340 82 l 422 82 q 518 103 476 82 q 596 160 560 125 l 596 33 q 422 -14 522 -14 q 209 67 288 -14 q 110 296 131 149 l 24 296 z "},"#":{"ha":815,"x_min":38,"x_max":781,"o":"m 38 226 l 163 226 l 121 0 l 249 0 l 290 226 l 468 226 l 426 0 l 554 0 l 596 226 l 744 226 l 744 310 l 611 310 l 644 483 l 781 483 l 781 567 l 660 567 l 707 819 l 579 819 l 532 567 l 354 567 l 401 819 l 274 819 l 226 567 l 92 567 l 92 483 l 211 483 l 178 310 l 38 310 l 38 226 m 339 483 l 517 483 l 483 310 l 306 310 l 339 483 z "},"(":{"ha":432,"x_min":72,"x_max":413,"o":"m 413 -221 l 314 -221 q 133 44 193 -94 q 72 326 72 183 q 132 606 72 468 q 314 871 192 743 l 413 871 q 235 333 236 603 q 413 -221 233 60 z "},")":{"ha":435,"x_min":44,"x_max":385,"o":"m 143 -221 l 44 -221 q 222 333 224 60 q 44 871 221 603 l 143 871 q 325 606 265 743 q 385 326 385 468 q 324 44 385 183 q 143 -221 264 -94 z "},"":{"ha":744,"x_min":31,"x_max":703,"o":"m 308 643 q 402 629 364 643 q 463 594 440 615 q 497 544 486 572 q 507 486 507 515 q 493 421 507 449 q 459 372 479 393 q 415 338 439 351 q 371 315 392 324 l 478 214 q 499 260 490 238 q 514 301 508 283 q 524 343 519 324 l 625 311 q 614 254 622 283 q 594 197 607 226 q 558 135 581 167 l 703 0 l 528 0 l 475 51 q 383 6 435 24 q 264 -11 332 -11 q 187 -2 228 -11 q 111 29 146 7 q 53 89 76 51 q 31 182 31 126 q 44 246 31 218 q 77 296 57 274 q 122 334 97 318 q 169 360 146 350 q 136 422 144 396 q 128 472 128 449 q 147 552 128 519 q 192 605 165 585 q 251 634 219 625 q 308 643 282 643 m 400 124 l 236 279 q 185 242 208 267 q 161 176 161 217 q 196 111 161 133 q 282 89 231 89 q 349 97 321 89 q 400 124 376 106 m 257 479 q 265 436 257 456 q 293 393 274 417 q 320 401 306 396 q 348 418 335 407 q 369 447 361 429 q 378 489 378 464 q 357 538 378 526 q 318 549 336 549 q 305 547 315 549 q 284 538 294 544 q 265 517 274 531 q 257 479 257 503 z "},"*":{"ha":399,"x_min":14,"x_max":385,"o":"m 249 819 l 240 697 l 354 751 l 385 657 l 256 624 l 351 531 l 271 479 l 200 588 l 129 479 l 49 531 l 143 624 l 14 657 l 44 751 l 158 697 l 150 819 l 249 819 z "},"+":{"ha":651,"x_min":56,"x_max":589,"o":"m 56 246 l 589 246 l 589 347 l 56 347 l 56 246 m 374 31 l 374 564 l 272 564 l 272 31 l 374 31 z "},"-":{"ha":467,"x_min":56,"x_max":408,"o":"m 56 246 l 408 246 l 408 347 l 56 347 l 56 246 z "},"±":{"ha":631,"x_min":56,"x_max":589,"o":"m 56 399 l 589 399 l 589 500 l 56 500 l 56 399 m 374 183 l 374 717 l 272 717 l 272 183 l 374 183 m 56 0 l 589 0 l 589 101 l 56 101 l 56 0 z "},"@":{"ha":982,"x_min":36,"x_max":946,"o":"m 254 325 l 256 338 q 276 425 260 381 q 319 506 292 469 q 388 566 347 543 q 483 589 429 589 q 594 528 561 589 l 601 582 l 708 582 l 654 158 q 671 106 650 124 q 722 89 692 89 q 785 108 760 89 q 824 160 810 128 q 843 233 838 192 q 849 317 849 274 q 826 476 849 404 q 760 601 804 549 q 650 681 715 653 q 497 710 585 710 q 344 681 410 710 q 235 601 279 653 q 168 476 190 549 q 146 317 146 404 q 172 157 146 229 q 247 33 199 85 q 362 -48 294 -19 q 511 -76 429 -76 q 654 -67 594 -76 q 768 -32 714 -57 l 768 -86 q 726 -105 753 -94 q 662 -124 699 -115 q 582 -140 625 -133 q 490 -146 539 -146 q 303 -111 388 -146 q 160 -15 219 -76 q 69 133 101 47 q 36 322 36 219 q 69 511 36 425 q 160 660 101 597 q 303 757 219 722 q 490 792 388 792 q 677 757 593 792 q 821 660 761 722 q 913 511 881 597 q 946 322 946 425 q 934 213 946 267 q 895 118 922 160 q 824 51 868 76 q 717 26 781 26 q 610 51 647 26 q 554 135 572 76 q 494 88 531 104 q 418 72 457 72 q 330 96 364 72 q 277 156 296 119 q 253 237 258 192 q 254 325 249 282 m 451 158 q 519 181 494 158 q 557 232 544 203 l 583 433 q 557 483 576 461 q 494 504 538 504 q 433 483 457 504 q 394 434 408 463 q 372 376 379 406 q 363 332 365 347 l 363 329 q 360 285 361 314 q 368 228 360 257 q 395 179 376 200 q 451 158 414 158 z "},"%":{"ha":1064,"x_min":78,"x_max":992,"o":"m 865 819 l 324 0 l 207 0 l 749 819 l 865 819 m 990 224 q 983 138 992 181 q 954 62 975 96 q 899 7 933 28 q 813 -14 864 -14 q 727 7 761 -14 q 672 62 693 28 q 642 138 651 96 q 633 224 633 181 l 633 236 q 642 322 633 279 q 672 398 651 364 q 727 453 693 432 q 813 474 761 474 q 898 453 864 474 q 953 398 932 432 q 982 322 974 364 q 990 236 990 279 l 990 224 m 743 232 l 743 231 q 744 188 743 215 q 752 135 746 161 q 772 90 758 110 q 811 71 786 71 l 813 71 q 853 90 839 71 q 873 135 867 110 q 881 188 879 161 q 882 231 882 215 l 882 232 q 881 274 882 247 q 873 327 879 301 q 852 372 867 353 q 811 390 838 390 q 772 372 786 390 q 752 327 758 353 q 744 274 746 301 q 743 232 743 247 m 435 583 q 428 498 436 540 q 399 422 419 456 q 343 367 378 388 q 257 346 308 346 q 172 367 206 346 q 117 422 138 388 q 87 498 96 456 q 78 583 78 540 l 78 596 q 87 681 78 639 q 117 758 96 724 q 172 813 138 792 q 257 833 206 833 q 342 813 308 833 q 397 758 376 792 q 426 681 418 724 q 435 596 435 639 l 435 583 m 188 592 l 188 590 q 189 548 188 575 q 197 495 190 521 q 217 450 203 469 q 256 431 231 431 l 257 431 q 297 450 283 431 q 317 495 311 469 q 325 548 324 521 q 326 590 326 575 l 326 592 q 325 634 326 607 q 317 687 324 661 q 297 731 311 713 q 256 750 282 750 q 217 731 231 750 q 197 687 203 713 q 189 634 190 661 q 188 592 188 607 z "},"[":{"ha":435,"x_min":69,"x_max":396,"o":"m 69 -222 l 396 -222 l 396 -125 l 208 -125 l 208 774 l 394 774 l 394 871 l 69 871 l 69 -222 z "},"]":{"ha":435,"x_min":42,"x_max":368,"o":"m 368 871 l 43 871 l 43 774 l 229 774 l 229 -125 l 42 -125 l 42 -222 l 368 -222 l 368 871 z "},"=":{"ha":631,"x_min":56,"x_max":575,"o":"m 56 135 l 575 135 l 575 236 l 56 236 l 56 135 m 56 357 l 575 357 l 575 458 l 56 458 l 56 357 z "},"‰":{"ha":1313,"x_min":78,"x_max":1269,"o":"m 810 819 l 268 0 l 151 0 l 693 819 l 810 819 m 893 224 q 886 138 894 181 q 857 62 878 96 q 801 7 836 28 q 715 -14 767 -14 q 630 7 664 -14 q 575 62 596 28 q 545 138 554 96 q 536 224 536 181 l 536 236 q 545 322 536 279 q 575 398 554 364 q 630 453 596 432 q 715 474 664 474 q 801 453 767 474 q 856 398 835 432 q 885 322 876 364 q 893 236 893 279 l 893 224 m 646 232 l 646 231 q 647 188 646 215 q 655 135 649 161 q 675 90 661 110 q 714 71 689 71 l 715 71 q 756 90 742 71 q 776 135 769 110 q 783 188 782 161 q 785 231 785 215 l 785 232 q 783 274 785 247 q 776 327 782 301 q 755 372 769 353 q 714 390 740 390 q 675 372 689 390 q 655 327 661 353 q 647 274 649 301 q 646 232 646 247 m 435 583 q 428 498 436 540 q 399 422 419 456 q 343 367 378 388 q 257 346 308 346 q 172 367 206 346 q 117 422 138 388 q 87 498 96 456 q 78 583 78 540 l 78 596 q 87 681 78 639 q 117 758 96 724 q 172 813 138 792 q 257 833 206 833 q 342 813 308 833 q 397 758 376 792 q 426 681 418 724 q 435 596 435 639 l 435 583 m 188 592 l 188 590 q 189 548 188 575 q 197 495 190 521 q 217 450 203 469 q 256 431 231 431 l 257 431 q 297 450 283 431 q 317 495 311 469 q 325 548 324 521 q 326 590 326 575 l 326 592 q 325 634 326 607 q 317 687 324 661 q 297 731 311 713 q 256 750 282 750 q 217 731 231 750 q 197 687 203 713 q 189 634 190 661 q 188 592 188 607 m 1268 224 q 1261 138 1269 181 q 1232 62 1253 96 q 1176 7 1211 28 q 1090 -14 1142 -14 q 1005 7 1039 -14 q 950 62 971 28 q 920 138 929 96 q 911 224 911 181 l 911 236 q 920 322 911 279 q 950 398 929 364 q 1005 453 971 432 q 1090 474 1039 474 q 1176 453 1142 474 q 1231 398 1210 432 q 1260 322 1251 364 q 1268 236 1268 279 l 1268 224 m 1021 232 l 1021 231 q 1022 188 1021 215 q 1030 135 1024 161 q 1050 90 1036 110 q 1089 71 1064 71 l 1090 71 q 1131 90 1117 71 q 1151 135 1144 110 q 1158 188 1157 161 q 1160 231 1160 215 l 1160 232 q 1158 274 1160 247 q 1151 327 1157 301 q 1130 372 1144 353 q 1089 390 1115 390 q 1050 372 1064 390 q 1030 327 1036 353 q 1022 274 1024 301 q 1021 232 1021 247 z "},"™":{"ha":553,"x_min":14,"x_max":524,"o":"m 142 788 l 142 557 l 94 557 l 94 788 l 14 788 l 14 819 l 222 819 l 222 788 l 142 788 m 476 735 l 404 557 l 368 557 l 297 735 l 297 557 l 250 557 l 250 819 l 306 819 l 386 622 l 467 819 l 524 819 l 524 557 l 476 557 l 476 735 z "},"©":{"ha":928,"x_min":53,"x_max":872,"o":"m 53 410 q 85 569 53 494 q 172 700 117 644 q 303 788 228 756 q 463 819 378 819 q 622 788 547 819 q 753 700 697 756 q 840 569 808 644 q 872 410 872 494 q 840 250 872 325 q 753 119 808 175 q 622 32 697 64 q 463 0 547 0 q 303 32 378 0 q 172 119 228 64 q 85 250 117 175 q 53 410 53 325 m 133 410 q 159 278 133 339 q 230 172 185 217 q 335 103 275 128 q 463 78 394 78 q 590 103 531 78 q 695 172 650 128 q 766 278 740 217 q 792 410 792 339 q 766 542 792 482 q 695 647 740 603 q 590 717 650 692 q 463 742 531 742 q 335 717 394 742 q 230 647 275 692 q 159 542 185 603 q 133 410 133 482 m 360 411 l 360 410 q 363 370 360 396 q 379 319 367 344 q 415 276 392 294 q 478 257 439 257 q 538 265 510 257 q 592 286 565 272 l 611 211 q 554 192 590 203 q 468 181 518 181 q 365 201 407 181 q 299 255 324 222 q 263 327 274 288 q 253 406 253 367 l 253 417 q 263 494 253 454 q 299 567 274 535 q 365 619 324 599 q 468 640 407 640 q 556 630 521 640 q 611 610 590 619 l 593 536 q 533 558 569 551 q 478 564 497 564 q 415 545 439 564 q 379 501 392 526 q 363 451 367 476 q 360 411 360 425 z "},"®":{"ha":928,"x_min":53,"x_max":872,"o":"m 53 410 q 85 569 53 494 q 172 700 117 644 q 303 788 228 756 q 463 819 378 819 q 622 788 547 819 q 753 700 697 756 q 840 569 808 644 q 872 410 872 494 q 840 250 872 325 q 753 119 808 175 q 622 32 697 64 q 463 0 547 0 q 303 32 378 0 q 172 119 228 64 q 85 250 117 175 q 53 410 53 325 m 133 410 q 159 278 133 339 q 230 172 185 217 q 335 103 275 128 q 463 78 394 78 q 590 103 531 78 q 695 172 650 128 q 766 278 740 217 q 792 410 792 339 q 766 542 792 482 q 695 647 740 603 q 590 717 650 692 q 463 742 531 742 q 335 717 394 742 q 230 647 275 692 q 159 542 185 603 q 133 410 133 482 m 531 499 q 503 575 531 553 q 426 597 476 597 l 374 597 l 374 415 l 433 415 q 510 441 490 415 q 531 499 531 467 m 432 360 l 374 360 l 374 172 l 290 172 l 290 654 l 431 654 q 498 647 465 654 q 556 623 531 640 q 597 576 582 606 q 613 500 613 546 q 585 413 613 444 q 514 369 557 382 l 646 172 l 554 172 l 432 360 z "},"–":{"ha":728,"x_min":56,"x_max":672,"o":"m 56 246 l 56 347 l 672 347 l 672 246 l 56 246 z "},"—":{"ha":1028,"x_min":56,"x_max":978,"o":"m 56 246 l 56 347 l 978 347 l 978 246 l 56 246 z "},"−":{"ha":465,"x_min":56,"x_max":408,"o":"m 56 246 l 56 347 l 408 347 l 408 246 l 56 246 z "},"­":{"ha":454,"x_min":56,"x_max":408,"o":"m 56 246 l 408 246 l 408 347 l 56 347 l 56 246 z "},"×":{"ha":669,"x_min":54,"x_max":592,"o":"m 592 486 l 507 558 l 322 363 l 139 558 l 54 486 l 246 282 l 54 79 l 139 8 l 322 201 l 507 8 l 592 79 l 399 282 l 592 486 z "},"÷":{"ha":413,"x_min":31,"x_max":383,"o":"m 144 14 l 144 153 l 283 153 l 283 14 l 144 14 m 144 431 l 144 569 l 283 569 l 283 431 l 144 431 m 31 246 l 31 347 l 383 347 l 383 246 l 31 246 z "}}}
